<?xml version="1.0" standalone="no"?>
<!DOCTYPE svg PUBLIC "-//W3C//DTD SVG 20010904//EN"
 "http://www.w3.org/TR/2001/REC-SVG-20010904/DTD/svg10.dtd">
<svg version="1.0" xmlns="http://www.w3.org/2000/svg"
 width="256.000000pt" height="256.000000pt" viewBox="0 0 256.000000 256.000000"
 preserveAspectRatio="xMidYMid meet">

<g transform="translate(0.000000,256.000000) scale(0.100000,-0.100000)"
fill="#000000" stroke="none">
<path d="M831 2534 c-26 -33 -35 -97 -28 -198 5 -77 3 -90 -54 -285 -68 -230
-110 -350 -163 -467 l-37 -81 -55 -12 c-65 -15 -76 -28 -36 -43 l31 -12 -38
-45 c-206 -247 -260 -552 -148 -830 35 -86 93 -168 183 -256 133 -131 308
-220 525 -266 135 -29 369 -32 502 -6 396 79 685 322 764 645 24 98 21 265 -6
367 -34 127 -103 260 -184 354 l-29 34 23 18 24 18 -28 10 c-16 6 -46 14 -67
17 -22 4 -44 12 -49 18 -15 18 -86 195 -109 271 -11 39 -44 156 -73 260 -49
181 -51 196 -53 322 -1 117 -3 135 -22 160 -38 51 -59 44 -154 -55 -76 -79
-89 -88 -106 -78 -26 15 -332 15 -358 0 -16 -10 -30 1 -105 77 -94 97 -116
106 -150 63z m99 -111 c38 -59 40 -106 6 -129 -14 -8 -35 -14 -48 -12 -19 2
-24 11 -30 53 -8 46 -3 109 8 127 12 19 37 4 64 -39z m734 31 c8 -20 8 -103 0
-143 -5 -25 -11 -31 -33 -31 -33 0 -71 33 -71 61 0 40 59 129 86 129 6 0 15
-7 18 -16z m-524 -296 c6 -24 13 -49 16 -56 2 -8 -1 -12 -8 -10 -7 3 -15 15
-18 29 -18 68 -20 79 -11 79 6 0 15 -19 21 -42z m256 16 c-4 -15 -10 -39 -13
-55 -5 -27 -23 -41 -23 -18 0 27 23 99 32 99 6 0 7 -11 4 -26z m-312 -36 c4
-16 2 -28 -4 -28 -11 0 -30 61 -22 74 6 10 17 -9 26 -46z m370 15 c-7 -42 -11
-49 -20 -40 -10 9 5 77 17 77 6 0 7 -15 3 -37z m-415 -109 c53 -14 106 -32
119 -40 32 -21 29 -68 -7 -105 -35 -34 -55 -38 -46 -9 4 13 0 31 -9 45 -31 47
-106 25 -106 -31 0 -29 -6 -30 -47 -4 -77 46 -87 168 -14 170 7 0 57 -12 110
-26z m605 10 c39 -39 4 -125 -67 -165 l-39 -21 7 21 c10 32 -19 71 -53 71 -40
0 -54 -13 -61 -55 l-6 -38 -31 26 c-18 15 -34 38 -37 52 -8 44 20 64 128 95
117 34 138 35 159 14z m-536 -270 c-9 -8 -191 -64 -196 -59 -3 3 -3 7 -1 10
10 10 184 63 192 58 5 -3 7 -7 5 -9z m501 -35 c17 -6 31 -15 31 -20 0 -11 0
-11 -39 2 -17 6 -31 15 -31 20 0 11 0 11 39 -2z m-489 -8 c0 -12 -101 -72
-114 -68 -6 2 14 20 44 40 57 38 70 43 70 28z m445 -62 c12 -19 -3 -22 -27 -5
l-22 16 21 0 c12 0 25 -5 28 -11z m-770 -279 c72 -5 283 -9 470 -9 310 0 440
5 655 24 l75 7 51 -63 c177 -220 235 -478 160 -714 -34 -107 -86 -192 -175
-287 -121 -130 -254 -206 -440 -255 -130 -34 -391 -44 -526 -19 -373 69 -638
273 -731 561 -76 239 -16 495 169 717 l50 60 56 -6 c31 -4 115 -11 186 -16z"/>
<path d="M1073 1119 c-19 -29 -27 -55 -28 -88 -1 -65 -33 -161 -61 -184 -28
-21 -30 -51 -10 -117 l14 -45 11 28 c6 16 11 39 11 52 0 33 15 39 28 11 27
-59 135 -150 202 -171 14 -4 46 -27 71 -51 65 -59 109 -77 199 -78 69 -1 140
16 140 33 0 4 -15 12 -32 19 -18 6 -46 23 -63 37 l-30 24 30 1 c40 0 90 32
110 69 25 50 21 56 -42 57 -32 0 -90 5 -128 10 l-70 9 21 53 21 54 22 -31 c27
-37 41 -40 41 -7 0 43 -17 72 -54 94 -20 12 -36 28 -36 36 0 9 -13 30 -28 48
-16 18 -32 49 -36 68 -7 37 -43 97 -63 105 -7 2 -33 -4 -58 -15 -45 -19 -45
-19 -91 0 -25 11 -50 20 -55 20 -5 0 -21 -19 -36 -41z m105 -21 c8 -10 -3 -20
-44 -40 -54 -26 -54 -26 -54 -5 0 38 14 48 76 56 6 0 16 -5 22 -11z m154 -12
c19 -28 7 -33 -46 -17 -42 12 -52 19 -44 29 12 14 78 6 90 -12z m-23 -62 c59
-30 104 -88 116 -150 9 -50 -29 -124 -99 -194 l-56 -54 -45 22 c-58 28 -131
96 -156 144 -38 74 -14 170 53 221 58 44 114 47 187 11z"/>
</g>
</svg>
