<?xml version="1.0" ?><!DOCTYPE svg  PUBLIC '-//W3C//DTD SVG 1.1//EN'  'http://www.w3.org/Graphics/SVG/1.1/DTD/svg11.dtd'><svg enable-background="new 0 0 48 48" height="48px" version="1.1" viewBox="0 0 48 48" width="48px" xml:space="preserve" xmlns="http://www.w3.org/2000/svg" xmlns:xlink="http://www.w3.org/1999/xlink"><g id="Layer_3"><g><path d="M34.479,10.755l4.869-10.713h-1.656h-1.35H11.644h-1.249H8.636l4.871,10.714    C5.916,14.593,0.704,22.443,0.704,31.529c0,6.412,2.591,12.217,6.783,16.43h4.23h24.569h4.201h0.027    c4.191-4.213,6.783-10.018,6.783-16.43C47.297,22.438,42.076,14.591,34.479,10.755z M39.189,45.279H8.811    c-3.306-3.641-5.347-8.443-5.347-13.748c0-8.546,5.236-15.843,12.663-18.934l-0.018-0.032l1.017-0.463L12.889,2.78h22.205    l-4.234,9.322l1.369,0.623l-0.006,0.011c7.244,3.171,12.312,10.382,12.312,18.795C44.535,36.836,42.494,41.639,39.189,45.279z" fill="#241F20"/><circle cx="10.384" cy="29.238" fill="#241F20" r="2.141"/><circle cx="17.898" cy="25" fill="#241F20" r="3.442"/><circle cx="16.807" cy="18.871" fill="#241F20" r="1.595"/><path d="M37.041,35.289c-6.066-6.168-11.227-6.229-14.943-4.586c1.756,1.178,2.913,3.186,2.913,5.461    c0,2.246-1.125,4.225-2.838,5.406c3.8,1.688,9.013,1.709,14.917-4.492l2.809,2.109v-6.051L37.041,35.289z" fill="#241F20"/><path d="M19.831,31.994c-2.622,1.855-4.103,4.201-4.103,4.201s1.548,2.281,4.197,4.105    c1.706-0.609,2.932-2.221,2.932-4.137C22.857,34.213,21.583,32.578,19.831,31.994z M19.102,36.148    c-0.56,0-1.013-0.453-1.013-1.006c0-0.557,0.453-1.01,1.013-1.01c0.554,0,1.005,0.453,1.005,1.01    C20.107,35.695,19.656,36.148,19.102,36.148z" fill="#241F20"/></g></g></svg>