<?xml version="1.0" ?><svg viewBox="0 0 64 64" xmlns="http://www.w3.org/2000/svg"><defs><style>.cls-1{fill:#f5d96d;}.cls-2{fill:#94d8e5;}.cls-3{fill:#f6e782;}.cls-4{fill:#756d78;}</style></defs><g data-name="Yellow Tang" id="Yellow_Tang"><path class="cls-1" d="M39.09,25.73c-4.57-8.43-12.85-10.59-19.62-4.41-7.73,7.05-4.58,18.38-4.58,18.38l.84,3.15S20,51.5,24.33,54.53c3.7,2.59,9.41-.34,9.45-5.9Z" id="path62581-1"/><path class="cls-2" d="M55,27.49a2.82,2.82,0,1,1-2.82-2.82A2.82,2.82,0,0,1,55,27.49Z" id="path65656-5"/><path class="cls-2" d="M49.93,14.82a4.31,4.31,0,1,1-4.31-4.3A4.31,4.31,0,0,1,49.93,14.82Z" id="path65761-4"/><path class="cls-2" d="M16,16.07a2.82,2.82,0,1,1-2.82-2.81A2.82,2.82,0,0,1,16,16.07Z" id="path71055-76"/><path class="cls-3" d="M36.77,48.11c-4.32,1.16-10.49.94-17.4-4-1.15-.83-3-2.51-3.64-1.22C14.8,44.82,14,47.51,12,48a2.75,2.75,0,0,1-3.39-2L7.1,40.47a2.76,2.76,0,0,1,2-3.39c2-.53,4,1.37,5.84,2.62,1.16.81,1.95-1.59,2.54-2.88,3.49-7.77,8.73-11,13-12.2a12.68,12.68,0,0,1,13.86,6.22,3.42,3.42,0,0,0,3.78,1.92,1.88,1.88,0,1,1,1,3.63l-2,.54a2.59,2.59,0,0,0-1.66,1.84A13,13,0,0,1,36.77,48.11Z" id="path61850-6"/><path class="cls-4" d="M40,31.64a1.92,1.92,0,1,1-2.34-1.35A1.92,1.92,0,0,1,40,31.64Z" id="path54162-0"/><path class="cls-1" d="M33.23,37.71a38.92,38.92,0,0,0-6.09.51A1.57,1.57,0,0,0,26,40.66a7.22,7.22,0,0,0,3.42,3.06c2.9,1,5.45-1.2,5.45-1.2Z" id="path53183-2"/><path class="cls-1" d="M48.49,32.7a1.67,1.67,0,0,0-.38.06,2.9,2.9,0,0,1-1,.08,2.1,2.1,0,0,1-.22,4l-2.23.6a2.94,2.94,0,0,0-1.87,2.06A14.4,14.4,0,0,1,37,48a13,13,0,0,0,8.47-9.27,2.59,2.59,0,0,1,1.66-1.84l2-.54a1.88,1.88,0,0,0-.6-3.69Z" id="path27292"/><path d="M36.65,34.66a2.91,2.91,0,0,0,2.21.29,2.91,2.91,0,0,0-1.51-5.63,3,3,0,0,0-1.77,1.36,2.9,2.9,0,0,0-.29,2.21A2.85,2.85,0,0,0,36.65,34.66Zm.66-3a.89.89,0,0,1,.56-.42.59.59,0,0,1,.23,0,.92.92,0,0,1,.89.68h0a1,1,0,0,1-.09.7.92.92,0,0,1-1.68-.22A.94.94,0,0,1,37.31,31.68Z"/><path d="M7.63,46.33A3.78,3.78,0,0,0,12.25,49c1.8-.48,2.78-2.17,3.56-3.87,1.53,2.77,4.67,7.93,8,10.22a6.29,6.29,0,0,0,3.63,1.13,7,7,0,0,0,3.21-.8,7.72,7.72,0,0,0,4.12-6.15A19.72,19.72,0,0,0,37,49.08h0A14.06,14.06,0,0,0,46.4,39a1.65,1.65,0,0,1,1-1.11l2-.53a2.88,2.88,0,0,0-1.49-5.57,2.46,2.46,0,0,1-2.64-1.41,12.72,12.72,0,0,0-5.36-5.32c-2.52-4.55-6.14-7.44-10.23-8.13-3.71-.63-7.56.67-10.83,3.65-5.9,5.39-5.85,13-5.34,16.86-1.43-1-3-1.78-4.65-1.33a3.78,3.78,0,0,0-2.67,4.62Zm22.05,7.58a4.56,4.56,0,0,1-4.77-.2c-3-2.11-6.11-7.28-7.51-9.83.34.23.68.48.89.64l.49.36c.45.33.9.61,1.34.9l-.29.57a1,1,0,0,0,.44,1.35,1,1,0,0,0,.45.1,1,1,0,0,0,.89-.55l.23-.44c.44.24.88.47,1.31.68l-.75,1.77a1,1,0,0,0,.52,1.31.91.91,0,0,0,.39.08,1,1,0,0,0,.93-.6L25,48.28c.69.26,1.37.49,2,.67l-.57,2.25a1,1,0,0,0,.73,1.22l.24,0a1,1,0,0,0,1-.76L29,49.4a19.57,19.57,0,0,0,3.31.3c.14,0,.26,0,.4,0A5.7,5.7,0,0,1,29.68,53.91ZM20.14,22.06c2.85-2.6,6-3.69,9.15-3.16a11.9,11.9,0,0,1,7.37,4.91,14.47,14.47,0,0,0-4.53-.44l-1-2.85a1,1,0,0,0-1.88.68l.9,2.49a18.6,18.6,0,0,0-2.13.73l-1.42-3a1,1,0,1,0-1.81.85l1.42,3.05a17,17,0,0,0-2,1.28L22.09,24a1,1,0,0,0-1.57,1.23l2.06,2.64c-.47.42-.93.87-1.39,1.37l-2.27-2a1,1,0,0,0-1.42.08,1,1,0,0,0,.09,1.41l2.3,2c-.28.37-.57.76-.84,1.16l-1.48-.68a1,1,0,0,0-1.33.48A1,1,0,0,0,16.73,33l1.23.57c-.5.87-1,1.81-1.45,2.83-.07.17-.16.36-.24.56s-.4.94-.65,1.39C15.1,35.47,14.3,27.39,20.14,22.06ZM9.31,38c1.19-.31,2.74.82,4.1,1.83.71.52,1.55,1.17,2.4.93,1.15-.33,1.76-1.77,2.3-3l.23-.52c2.5-5.57,6.58-10.08,12.36-11.63a11.69,11.69,0,0,1,12.74,5.71,4.37,4.37,0,0,0,4.93,2.41.89.89,0,0,1,.46,1.71l-2,.53a3.64,3.64,0,0,0-2.38,2.59,11.68,11.68,0,0,1-4.15,6.53,12.22,12.22,0,0,1-6-14.2,1,1,0,0,0-1.92-.56A14.23,14.23,0,0,0,32,36.74a38.41,38.41,0,0,0-5.05.5,2.68,2.68,0,0,0-2,1.52,2.52,2.52,0,0,0,.22,2.43,8.07,8.07,0,0,0,3.93,3.48A6,6,0,0,0,31,45a7.36,7.36,0,0,0,4.21-1.47,14,14,0,0,0,3.24,2.8,11.1,11.1,0,0,1-1.94.83,16.73,16.73,0,0,1-8,.12h-.07a19.27,19.27,0,0,1-3.57-1.17h0A26.89,26.89,0,0,1,20,43.26l-.45-.34c-1-.76-2.33-1.78-3.52-1.49-1,.24-1.32,1.34-1.61,2-.68,1.55-1.45,3.31-2.64,3.63a1.74,1.74,0,0,1-1.34-.18,1.78,1.78,0,0,1-.83-1.07l-1.5-5.61A1.78,1.78,0,0,1,9.31,38Zm23.2.69A14.47,14.47,0,0,0,34,41.91a4.88,4.88,0,0,1-4.27.87,6.4,6.4,0,0,1-2.91-2.66.58.58,0,0,1-.07-.55.69.69,0,0,1,.55-.36A37.25,37.25,0,0,1,32.51,38.73Z"/><path d="M48.36,27.49a3.82,3.82,0,1,0,3.82-3.82A3.83,3.83,0,0,0,48.36,27.49Zm3.82-1.82a1.82,1.82,0,1,1-1.82,1.82A1.83,1.83,0,0,1,52.18,25.67Z"/><path d="M45.62,20.13a5.31,5.31,0,1,0-5.3-5.31A5.31,5.31,0,0,0,45.62,20.13Zm0-8.61a3.31,3.31,0,1,1-3.3,3.3A3.31,3.31,0,0,1,45.62,11.52Z"/><path d="M13.17,19.89a3.82,3.82,0,1,0-3.82-3.82A3.83,3.83,0,0,0,13.17,19.89Zm0-5.63a1.82,1.82,0,1,1-1.82,1.81A1.82,1.82,0,0,1,13.17,14.26Z"/></g></svg>