<?xml version="1.0" ?><svg viewBox="0 0 64 64" xmlns="http://www.w3.org/2000/svg"><defs><style>.cls-1{fill:#655e66;}.cls-2{fill:#e29375;}.cls-3{fill:#e7a990;}.cls-4{fill:#f7f8fa;}.cls-5{fill:#94d8e5;}</style></defs><g data-name="Clown Fish" id="Clown_Fish"><path class="cls-1" d="M48.14,48.68c-1.27,2.82-3.34,6.18-6.17,7-3.13.92-4.23-1.72-4.62-3.87l-6.14-.06c-2.59,1.67-6.36,3.52-9.35,2.66-3.29-.94-3.07-3.8-2.11-6.15Z" id="path270060-7"/><path class="cls-2" d="M25.54,30.61c-3.08-.15-7.38-.29-9.54,2-3.94,4.07,3,7.41,4.68,9l2.75-1.24L29,31Z" id="path270473-9"/><path class="cls-2" d="M41.64,24.4c-2.52-1.8-6-3.68-8.86-3-3.17.76-2.69,4-2,6.09Z" id="path270475-2"/><path class="cls-3" d="M11.84,41.83h-.18A9.12,9.12,0,0,0,9,42.11c-1.85.7-2.52,3.61-1.51,6.63s3.29,4.95,5.19,4.41c1.28-.43,3.58-2.26,5.28-4.07l.47-2.94,5.68,4.31a27.62,27.62,0,0,0,4.19,1l3-1L35,51.91a31.64,31.64,0,0,0,9.2-1.23l.29-.11,1.63-1.78,3-.89c4.39-3.63,7-9.55,5.27-14.83-1.84-5.51-7.93-8.7-13.87-8.71a15.54,15.54,0,0,0-4.86.76l-.23.09L34,27.1l-3.08.34a41.82,41.82,0,0,0-3.88,2.65L25.8,32.78l-2.67.7a22.87,22.87,0,0,0-5.07,6.85l.23,3.19Z" id="path186849"/><path class="cls-2" d="M40.58,24.36a15.54,15.54,0,0,0-4.86.76,22.6,22.6,0,0,0-3,1.33c.69-.18.6-.11,1.1-.27,7.06-2.36,16.38.89,18.73,8,2,5.88-1.54,12.56-6.85,16,6.34-2.91,11-10.47,8.77-17C52.61,27.56,46.52,24.37,40.58,24.36Z" id="path176711"/><path class="cls-4" d="M18.06,40.33a9.53,9.53,0,0,0-.68,2.24,23.69,23.69,0,0,0-5.54-.74c2.09.52,3,2.3,4.18,3.77a14.69,14.69,0,0,1,1.92,3.48c.43-.46.83-.92,1.16-1.35a12.88,12.88,0,0,0,5,2.72h0c-.19-.45-.37-.9-.56-1.36a26.84,26.84,0,0,0-3.41-6.61A13,13,0,0,0,18.06,40.33Z" id="path271677-0"/><path class="cls-4" d="M27.05,30.09a40.71,40.71,0,0,0-3.92,3.39l.65.83A23,23,0,0,1,26.35,38a4.33,4.33,0,0,1,.44,3.28,13.9,13.9,0,0,0,1.49,10.17h0a41.24,41.24,0,0,0,6.76.49c-1.81-2.16-4.16-5.81-3.25-9.4A9.91,9.91,0,0,0,31,35.7a24.81,24.81,0,0,0-3.15-4.58c-.28-.37-.54-.71-.77-1Z" id="path274935-3"/><path class="cls-4" d="M35.49,25.21a25.9,25.9,0,0,0-4.56,2.23,20.17,20.17,0,0,0,3.75,5.79c3.36,3.7,4.08,5.82,4.81,8.23l2.3,5.59a22.46,22.46,0,0,0,2.74,3.52,15.79,15.79,0,0,0,4.65-2.67c-4.35-3.54-8.31-10.32-8.57-15.57a33,33,0,0,0-2.11-2.56A15.61,15.61,0,0,1,35.49,25.21Z" id="path274927-9"/><path class="cls-1" d="M11.33,41.83A8.79,8.79,0,0,0,9,42.11c-1.85.7-2.52,3.61-1.51,6.63s3.29,4.95,5.19,4.41a7.23,7.23,0,0,0,1.68-.94c-1.46-.48-2.88-2.11-3.62-4.33C9.89,45.4,10.19,43,11.33,41.83Z" id="path276223-8"/><path class="cls-5" d="M54.06,18.23a3.49,3.49,0,1,1-3.49-3.49A3.49,3.49,0,0,1,54.06,18.23Z" id="path277996-9"/><path class="cls-5" d="M24.14,20.72a4.56,4.56,0,1,1-4.55-4.56A4.55,4.55,0,0,1,24.14,20.72Z" id="path277998-73"/><path class="cls-5" d="M36.5,13.09a3,3,0,1,1-3-3A3,3,0,0,1,36.5,13.09Z" id="path278000-6"/><path class="cls-2" d="M42.79,39.71c-1.89,1-5.24,2.75-6.1,3.37a1.6,1.6,0,0,0,0,2.76,7.42,7.42,0,0,0,4.53,1.31,5.53,5.53,0,0,0,4.08-3.23Z" id="path275618-6"/><path class="cls-1" d="M48.77,30.49A2.1,2.1,0,1,1,46.2,29,2.1,2.1,0,0,1,48.77,30.49Z" id="path273716-2"/><path d="M47.22,24.64A18.25,18.25,0,0,0,42,23.43c-3.7-2.59-6.88-3.61-9.44-3a4,4,0,0,0-2.74,2,6.36,6.36,0,0,0-.17,4.63,43.29,43.29,0,0,0-3.73,2.64c-.69-.28-7.8-.75-10.63,2.17a4.58,4.58,0,0,0-1.46,3.52c.16,2.18,2.18,3.86,3.33,4.55a10.76,10.76,0,0,0-.52,1.43c-2-.43-6.06-.84-8-.19-2.39.92-3.29,4.31-2.1,7.89,1,3,3.58,5.86,6.46,5,1.6-.54,4-2.65,5.23-3.87a5.08,5.08,0,0,0,.36,2.85,4.55,4.55,0,0,0,3,2.32,7,7,0,0,0,1.88.25c2.76,0,5.73-1.44,8-2.85a44.12,44.12,0,0,0,5.13.08,5.56,5.56,0,0,0,2.19,3.46,3.69,3.69,0,0,0,2,.55,5.42,5.42,0,0,0,1.5-.23c2.53-.75,4.78-3.22,6.69-7.33a17.94,17.94,0,0,0,4.79-5.17,13.55,13.55,0,0,0,1.67-11.4A13.54,13.54,0,0,0,47.22,24.64ZM31.57,23.37a2.07,2.07,0,0,1,1.44-1,8.12,8.12,0,0,1,5.29,1.13A18.49,18.49,0,0,0,31.43,26,4,4,0,0,1,31.57,23.37Zm8.09,9.37a21.87,21.87,0,0,0,1.75,6.56L40.07,40a19.38,19.38,0,0,0-4.65-7.45,19.88,19.88,0,0,1-3.2-4.72A25.15,25.15,0,0,1,35,26.47a17.74,17.74,0,0,0,2.78,4C38.45,31.2,39.09,32,39.66,32.74Zm5.16,16.64a23.88,23.88,0,0,1-1.49-1.87,6.51,6.51,0,0,0,2.07-1.86,28,28,0,0,0,2.12,2.25A14.49,14.49,0,0,1,44.82,49.38Zm-9.31,1.51c-1.73-2.17-3.49-5.22-2.75-8.13a10.9,10.9,0,0,0-.89-7.5A23.33,23.33,0,0,0,29,30.92l-.49-.62c.68-.5,1.37-1,2.05-1.42a21.68,21.68,0,0,0,3.43,5c2.94,3.22,3.76,5.18,4.35,7.06-1,.55-1.8,1-2.18,1.29a2.75,2.75,0,0,0-1.2,2.3,2.6,2.6,0,0,0,1.27,2.13,8.81,8.81,0,0,0,4.54,1.49c.21,0,.42,0,.62,0a22.18,22.18,0,0,0,1.43,1.92A33.2,33.2,0,0,1,35.51,50.89ZM24.83,49.61c-.13-.3-.25-.59-.37-.91a28.24,28.24,0,0,0-3.54-6.83,13.68,13.68,0,0,0-1.64-1.76A22.13,22.13,0,0,1,23.06,35h0a21.4,21.4,0,0,1,2.38,3.4A3.31,3.31,0,0,1,25.82,41a14.31,14.31,0,0,0,.73,9.05C26,49.92,25.38,49.78,24.83,49.61Zm4.11.88a12.69,12.69,0,0,1-1.18-9,5.36,5.36,0,0,0-.51-4,22.69,22.69,0,0,0-2.61-3.75l-.1-.13-.05-.06c.76-.72,1.56-1.41,2.38-2.08a26.86,26.86,0,0,1,3.21,4.63,8.89,8.89,0,0,1,.74,6.13c-.79,3.12.54,6.19,2.19,8.6C31.64,50.81,30.27,50.68,28.94,50.49Zm12.18-4.34A6.43,6.43,0,0,1,37.24,45a.62.62,0,0,1-.33-.49.75.75,0,0,1,.35-.61c.54-.38,2.35-1.39,5-2.8A27.63,27.63,0,0,0,44.12,44,4.16,4.16,0,0,1,41.12,46.15ZM15.82,35.24a2.62,2.62,0,0,1,.9-2c1.51-1.56,4.53-1.75,7-1.71A29.58,29.58,0,0,0,18,38.31C17.72,38,15.92,36.74,15.82,35.24Zm1.29,8.29a1,1,0,0,0,.81-.12,1,1,0,0,0,.45-.68c0-.19.1-.4.14-.59a12.26,12.26,0,0,1,.82.94,23.8,23.8,0,0,1,2.94,5.56A9.3,9.3,0,0,1,19.8,47a1,1,0,0,0-.77-.27,1,1,0,0,0-.72.39l-.11.13a22.93,22.93,0,0,0-2.76-4.09A16.74,16.74,0,0,1,17.11,43.53Zm-2.84,7.52a6.09,6.09,0,0,1-2.6-3.49,5.79,5.79,0,0,1,.12-4.68c1.91.59,4.13,4.16,5,6A25.47,25.47,0,0,1,14.27,51.05ZM8.42,48.43c-.89-2.67-.25-4.94.87-5.37L9.57,43a8.5,8.5,0,0,0,.2,5.2,8.92,8.92,0,0,0,2.6,4C11.17,52.51,9.31,51.09,8.42,48.43Zm13.72,5a2.57,2.57,0,0,1-1.77-1.27,3.55,3.55,0,0,1-.08-2.34,22.72,22.72,0,0,0,7.76,2.54C25.69,53.52,23.64,53.9,22.14,53.47Zm19.54,1.27a2.24,2.24,0,0,1-1.86-.1,3.36,3.36,0,0,1-1.21-1.88,23.92,23.92,0,0,0,7-1.56A8,8,0,0,1,41.68,54.74ZM52,43.12a16.43,16.43,0,0,1-2.91,3.51c-4.45-4.11-7.84-10.41-7.58-16.87a1,1,0,0,0-1-1,1,1,0,0,0-1,.77l-.34-.39a16.32,16.32,0,0,1-2.35-3.27,15.61,15.61,0,0,1,9.59.67,11.59,11.59,0,0,1,7,6.89,9.77,9.77,0,0,1,.37,1.6l-2.56.69a1,1,0,0,0,.26,2,1.15,1.15,0,0,0,.26,0L54,37A13,13,0,0,1,52,43.12Z"/><path d="M48.29,28.34a3.1,3.1,0,0,0-4.54,3.49,3.1,3.1,0,1,0,4.54-3.49ZM47,32.09A1.1,1.1,0,1,1,46.46,30a1.06,1.06,0,0,1,.83.11,1,1,0,0,1,.51.66h0A1.1,1.1,0,0,1,47,32.09Z"/><path d="M50.57,22.72a4.49,4.49,0,1,0-4.49-4.49A4.5,4.5,0,0,0,50.57,22.72Zm0-7a2.49,2.49,0,1,1-2.49,2.49A2.5,2.5,0,0,1,50.57,15.74Z"/><path d="M19.59,26.27A5.56,5.56,0,1,0,14,20.72,5.56,5.56,0,0,0,19.59,26.27Zm0-9.11A3.56,3.56,0,1,1,16,20.72,3.56,3.56,0,0,1,19.59,17.16Z"/><path d="M33.52,17.07a4,4,0,1,0-4-4A4,4,0,0,0,33.52,17.07Zm0-6a2,2,0,1,1-2,2A2,2,0,0,1,33.52,11.11Z"/></g></svg>