<?xml version="1.0" ?><svg viewBox="0 0 64 64" xmlns="http://www.w3.org/2000/svg"><defs><style>.cls-1{fill:#94d8e5;}.cls-2{fill:#f6e782;}.cls-3{fill:#544f56;}.cls-4{fill:#7bd1e0;}</style></defs><g id="Angelfish"><path class="cls-1" d="M22.31,44.2c.9-.52,1.72-.2,2,1,1.24,4.64,22.27,3.69,22.27,3.69,6.12-1.64,6-8,8.09-14A5.43,5.43,0,0,0,53.13,29c-4.19-3.64-7.09-8.36-11.85-8.38a7.78,7.78,0,0,0-2.17.29S17.93,27.11,21.67,35.21a1.22,1.22,0,0,1-1.13,1.84Z" id="path239088-3-6"/><path class="cls-2" d="M40.46,34.76a39,39,0,0,0-5.84,1.63A1.55,1.55,0,0,0,34,39a7.14,7.14,0,0,0,3.9,2.36c3,.45,5.08-2.18,5.08-2.18Z" id="path53183-6-5-0"/><path class="cls-3" d="M47.07,29.11a1.91,1.91,0,1,1-2.34-1.35A1.9,1.9,0,0,1,47.07,29.11Z" id="path50883-1"/><path class="cls-1" d="M53.05,15.74a2.9,2.9,0,1,1-2.89-2.89A2.89,2.89,0,0,1,53.05,15.74Z" id="path65656-2-3-7"/><path class="cls-1" d="M28.06,17.6a3.71,3.71,0,1,1-3.71-3.72A3.71,3.71,0,0,1,28.06,17.6Z" id="path65761-9-5-65"/><path class="cls-1" d="M37.49,11.89A2.9,2.9,0,1,1,34.59,9,2.9,2.9,0,0,1,37.49,11.89Z" id="path71055-1-6-69"/><path class="cls-2" d="M39.11,20.88l-30,8A2.91,2.91,0,0,0,7,31c-.21.8.66,1.33,1.47,1.11L16.36,30A3.77,3.77,0,0,1,21,32.67l.68,2.54C20.43,30.57,40.94,27.71,39.11,20.88ZM24.34,45.17,25,47.71a3.79,3.79,0,0,1-2.67,4.64l-7.86,2.1c-.81.22-1.3,1.11-.72,1.7a2.93,2.93,0,0,0,2.82.75l30-8C44.78,42,25.58,49.81,24.34,45.17Z" id="path58584-5"/><path class="cls-2" d="M16,36.56a7.25,7.25,0,0,0-1.71.15c-1.83.58-2.64,3.34-1.84,6.32s2.88,5,4.75,4.55a15.69,15.69,0,0,0,4.73-3.07,3.46,3.46,0,0,1,.42-.31l3.06-2.39a2.41,2.41,0,0,0-1.18-4.28l-3.66-.48h0a3,3,0,0,1-.65,0A22.9,22.9,0,0,0,16,36.56Z" id="path54281-5"/><path class="cls-4" d="M41.28,20.59H41c3.36,1.87,6.13,5.6,9.68,8.68a6.43,6.43,0,0,1,1.86,6.94c-1.43,4.14-2,8.43-3.66,11.66,3.88-2.47,4.07-7.89,5.84-13A5.43,5.43,0,0,0,53.13,29C48.94,25.33,46,20.61,41.28,20.59Z" id="path331954"/><path d="M40.39,31.44a1,1,0,1,0-2,.39A14,14,0,0,0,39.09,34a39.09,39.09,0,0,0-4.82,1.41,2.69,2.69,0,0,0-1.71,1.87,2.57,2.57,0,0,0,.66,2.34,8.06,8.06,0,0,0,4.48,2.66,6.18,6.18,0,0,0,.85.06,7,7,0,0,0,4.91-2.32c.2.16.38.34.59.48a1,1,0,0,0,1.4-.23,1,1,0,0,0-.23-1.39A12.15,12.15,0,0,1,40.39,31.44ZM38,40.34a6.32,6.32,0,0,1-3.32-2.05.56.56,0,0,1-.17-.51.67.67,0,0,1,.46-.45,36.84,36.84,0,0,1,5-1.43,14.45,14.45,0,0,0,2,2.8A4.8,4.8,0,0,1,38,40.34Z"/><path d="M50.71,25.24c-3.39-3.46-6.6-6.74-11.86-5.33L8.84,28a3.92,3.92,0,0,0-2.77,2.77,1.8,1.8,0,0,0,.47,1.79,2.33,2.33,0,0,0,2.22.54L16.62,31a2.77,2.77,0,0,1,3.4,2l.68,2.55c.1.35.23.63-.12.58-1.83-.23-4.82-.77-6.63-.29-2.38.75-3.45,4-2.5,7.53s3.49,5.8,6,5.25a15.81,15.81,0,0,0,4.68-2.89l.77-.61c.41-.35.41,0,.5.39L24.05,48a2.78,2.78,0,0,1-2,3.41l-7.86,2.1a2.34,2.34,0,0,0-1.65,1.59,1.8,1.8,0,0,0,.49,1.78A3.9,3.9,0,0,0,15.84,58a3.83,3.83,0,0,0,1-.13l30-8c5.26-1.41,6.4-5.85,7.6-10.54.35-1.36.71-2.76,1.18-4.11a6.42,6.42,0,0,0-1.87-7C52.7,27.27,51.69,26.24,50.71,25.24ZM16.1,29l-7.86,2.1a.52.52,0,0,1-.21,0,1.93,1.93,0,0,1,1.32-1.25l28.82-7.72c-.52,2.46-5.17,4.54-9.34,6.4C26,29.83,23.42,31,21.93,32.34A4.78,4.78,0,0,0,16.1,29Zm.84,17.57c-1.16.26-2.86-1.22-3.56-3.83s0-4.74,1.13-5.09c1.4-.37,3.45.13,9.55.84a1.4,1.4,0,0,1,.69,2.5c-2.4,1.86-5.09,4-5,3.92A10.81,10.81,0,0,1,16.94,46.6Zm-.61,9.34a1.93,1.93,0,0,1-1.76-.42.39.39,0,0,1,.18-.1l7.86-2.11A4.79,4.79,0,0,0,26,47.52c2,.42,4.78.14,7.86-.18,4.54-.47,9.6-1,11.29.88ZM54,33.65h-.07l-2.43.65a1,1,0,0,0,.26,2,1.15,1.15,0,0,0,.26,0l1.37-.37c-.29,1-.56,2-.8,2.92-1.07,4.15-2,7.46-5.39,8.8-1.91-3.43-8-2.81-13.49-2.24-3.38.35-8,.83-8.36-.44h0a2.72,2.72,0,0,0-.67-1.25L26,42.59a3.41,3.41,0,0,0-1.66-6.06l-1.63-.21A2.82,2.82,0,0,0,22.64,35c-.34-1.27,3.91-3.17,7-4.55,5-2.24,10.63-4.76,10.57-8.7,3.64-.55,6.06,1.88,9.06,4.94,1,1,2,2.09,3.19,3.08A4.39,4.39,0,0,1,54,33.65Z"/><path d="M46.68,27.08a2.94,2.94,0,0,0-2.21-.29,2.91,2.91,0,0,0,.76,5.72,2.82,2.82,0,0,0,.75-.1,2.91,2.91,0,0,0,.7-5.33Zm-1.22,3.4a.91.91,0,0,1-1.11-.64A.9.9,0,0,1,45,28.73a.67.67,0,0,1,.24,0,.93.93,0,0,1,.45.13.87.87,0,0,1,.42.55A.91.91,0,0,1,45.46,30.48Z"/><path d="M50.16,11.85a3.9,3.9,0,1,0,3.89,3.89A3.9,3.9,0,0,0,50.16,11.85Zm0,5.79a1.9,1.9,0,1,1,1.89-1.9A1.9,1.9,0,0,1,50.16,17.64Z"/><path d="M19.64,17.6a4.71,4.71,0,1,0,4.71-4.72A4.71,4.71,0,0,0,19.64,17.6Zm7.42,0a2.71,2.71,0,1,1-2.71-2.72A2.71,2.71,0,0,1,27.06,17.6Z"/><path d="M30.7,11.89A3.9,3.9,0,1,0,34.59,8,3.9,3.9,0,0,0,30.7,11.89Zm5.79,0A1.9,1.9,0,1,1,34.59,10,1.9,1.9,0,0,1,36.49,11.89Z"/></g></svg>