<?xml version="1.0" ?><svg viewBox="0 0 64 64" xmlns="http://www.w3.org/2000/svg"><defs><style>.cls-1{fill:#f6e782;}.cls-2{fill:#f5d96d;}.cls-3{fill:#94d8e5;}</style></defs><g id="Shoal"><path class="cls-1" d="M26.17,9a19.33,19.33,0,0,0-10.92,3,4.16,4.16,0,0,0-4-2.91H9.15A2.15,2.15,0,0,0,7,11.26v.56A4.21,4.21,0,0,0,11.22,16,4.21,4.21,0,0,0,7,20.26v.56A2.15,2.15,0,0,0,9.15,23h2.12a4.15,4.15,0,0,0,4-2.9,19.33,19.33,0,0,0,10.92,3A7,7,0,0,0,26.17,9Z" id="path31730-8"/><path class="cls-2" d="M23.34,16h-5a3.15,3.15,0,0,0,3.15,3.15h2.32Z" id="path31736-4"/><path class="cls-1" d="M48,26A19.33,19.33,0,0,0,37,29a4.15,4.15,0,0,0-4-2.9H30.94a2.15,2.15,0,0,0-2.15,2.15v.56A4.21,4.21,0,0,0,33,33a4.21,4.21,0,0,0-4.22,4.22v.56a2.15,2.15,0,0,0,2.15,2.15h2.12A4.15,4.15,0,0,0,37,37,19.33,19.33,0,0,0,48,40,7,7,0,1,0,48,26Z" id="path33092-5"/><path class="cls-2" d="M45.13,33h-5a3.15,3.15,0,0,0,3.15,3.15h2.32Z" id="path33098-0"/><path class="cls-1" d="M26.17,42.92a19.33,19.33,0,0,0-10.92,3,4.15,4.15,0,0,0-4-2.9H9.15A2.15,2.15,0,0,0,7,45.18v.56A4.21,4.21,0,0,0,11.22,50,4.21,4.21,0,0,0,7,54.18v.56A2.15,2.15,0,0,0,9.15,56.9h2.12a4.16,4.16,0,0,0,4-2.91,19.33,19.33,0,0,0,10.92,3,7,7,0,0,0,0-14.08Z" id="path33102-3"/><path class="cls-2" d="M23.34,50h-5a3.15,3.15,0,0,0,3.15,3.15h2.32Z" id="path33108-6"/><path class="cls-3" d="M52.67,20.05a2.46,2.46,0,1,1-2.46-2.46A2.46,2.46,0,0,1,52.67,20.05Z" id="path65656-3-1"/><path class="cls-3" d="M45.81,13.28A4.29,4.29,0,1,1,41.52,9,4.28,4.28,0,0,1,45.81,13.28Z" id="path65761-6-0"/><path class="cls-3" d="M22.61,33.64a2.47,2.47,0,1,1-2.47-2.46A2.47,2.47,0,0,1,22.61,33.64Z" id="path66756-6"/><path class="cls-3" d="M46,48a3.85,3.85,0,1,1-3.85-3.85A3.84,3.84,0,0,1,46,48Z" id="path66758-3"/><path class="cls-2" d="M26.17,42.92c-.82,0-1.58,0-2.33.12a7,7,0,0,1,0,13.84c.74.07,1.5.12,2.32.12a7,7,0,0,0,0-14.08Z" id="path16236"/><path class="cls-2" d="M48,26c-.82,0-1.58.05-2.33.12a7,7,0,0,1,0,13.84c.75.07,1.51.12,2.33.12A7,7,0,1,0,48,26Z" id="path16230"/><path class="cls-2" d="M26.17,9c-.82,0-1.58.05-2.32.12a7,7,0,0,1,0,13.84c.75.07,1.51.12,2.33.12A7,7,0,0,0,26.17,9Z" id="path12117"/><path d="M9.15,24h2.12a5.14,5.14,0,0,0,4.41-2.46,20.78,20.78,0,0,0,10.49,2.57A8,8,0,0,0,26.17,8a20.78,20.78,0,0,0-10.49,2.57A5.15,5.15,0,0,0,11.27,8.1H9.15A3.16,3.16,0,0,0,6,11.26v.56A5.23,5.23,0,0,0,8.15,16,5.23,5.23,0,0,0,6,20.26v.56A3.15,3.15,0,0,0,9.15,24ZM22.4,17a11.08,11.08,0,0,0,.21,1.15h-1.1A2.15,2.15,0,0,1,19.61,17ZM8,20.26A3.22,3.22,0,0,1,11.22,17a1,1,0,0,0,0-2A3.23,3.23,0,0,1,8,11.82v-.56A1.16,1.16,0,0,1,9.15,10.1h2.12a3.17,3.17,0,0,1,3,2.21,1,1,0,0,0,.62.64,1,1,0,0,0,.88-.11A18.45,18.45,0,0,1,26.17,10a6,6,0,0,1,6,6A6.19,6.19,0,0,1,32,17.6H29.89a1,1,0,0,0,0,2H31a6,6,0,0,1-3.51,2.32A7.08,7.08,0,0,1,24.34,16a1,1,0,0,0-1-1h-5a1,1,0,0,0-1,1,4.15,4.15,0,0,0,4.15,4.15h1.86A9,9,0,0,0,24.59,22a17.76,17.76,0,0,1-8.79-2.74.9.9,0,0,0-.55-.17,1.26,1.26,0,0,0-.33.05,1,1,0,0,0-.62.65,3.16,3.16,0,0,1-3,2.2H9.15A1.15,1.15,0,0,1,8,20.82Z"/><circle cx="28.51" cy="14.15" r="1.25"/><path d="M56,33a8.05,8.05,0,0,0-8-8,20.71,20.71,0,0,0-10.48,2.57,5.17,5.17,0,0,0-4.42-2.46H30.94a3.16,3.16,0,0,0-3.15,3.15v.56A5.23,5.23,0,0,0,29.94,33a5.23,5.23,0,0,0-2.15,4.22v.56a3.16,3.16,0,0,0,3.15,3.16h2.12a5.18,5.18,0,0,0,4.42-2.47A20.71,20.71,0,0,0,48,41,8.09,8.09,0,0,0,56,33ZM44.19,34a11.08,11.08,0,0,0,.21,1.15H43.3A2.15,2.15,0,0,1,41.4,34ZM37,36a1.26,1.26,0,0,0-.33,0,1,1,0,0,0-.62.65,3.17,3.17,0,0,1-3,2.21H30.94a1.16,1.16,0,0,1-1.15-1.16v-.56A3.23,3.23,0,0,1,33,34a1,1,0,0,0,0-2,3.23,3.23,0,0,1-3.22-3.22v-.56a1.15,1.15,0,0,1,1.15-1.15h2.12a3.16,3.16,0,0,1,3,2.2,1,1,0,0,0,.62.65,1,1,0,0,0,.88-.12A18.45,18.45,0,0,1,48,27a6,6,0,0,1,6,6,5.77,5.77,0,0,1-.23,1.56H51.68a1,1,0,0,0,0,2h1.14a6.06,6.06,0,0,1-3.52,2.32A7.08,7.08,0,0,1,46.13,33a1,1,0,0,0-1-1h-5a1,1,0,0,0-1,1,4.15,4.15,0,0,0,4.15,4.15h1.86a9,9,0,0,0,1.22,1.79A17.69,17.69,0,0,1,37.6,36.2,1,1,0,0,0,37,36Z"/><circle cx="50.3" cy="31.11" r="1.25"/><path d="M9.15,57.9h2.12a5.15,5.15,0,0,0,4.41-2.47A20.78,20.78,0,0,0,26.17,58a8,8,0,0,0,0-16.08,20.78,20.78,0,0,0-10.49,2.57A5.14,5.14,0,0,0,11.27,42H9.15A3.15,3.15,0,0,0,6,45.18v.56A5.23,5.23,0,0,0,8.15,50,5.23,5.23,0,0,0,6,54.18v.56A3.16,3.16,0,0,0,9.15,57.9ZM22.4,51a11.08,11.08,0,0,0,.21,1.15h-1.1A2.15,2.15,0,0,1,19.61,51ZM8,54.18A3.23,3.23,0,0,1,11.22,51a1,1,0,0,0,0-2A3.22,3.22,0,0,1,8,45.74v-.56A1.15,1.15,0,0,1,9.15,44h2.12a3.16,3.16,0,0,1,3,2.2,1,1,0,0,0,.62.65,1,1,0,0,0,.88-.11,18.38,18.38,0,0,1,10.37-2.85,6,6,0,0,1,6,6A6.19,6.19,0,0,1,32,51.52H29.89a1,1,0,1,0,0,2H31a6.06,6.06,0,0,1-3.52,2.32A7.08,7.08,0,0,1,24.34,50a1,1,0,0,0-1-1h-5a1,1,0,0,0-1,1,4.15,4.15,0,0,0,4.15,4.15h1.86a9,9,0,0,0,1.22,1.79,17.76,17.76,0,0,1-8.79-2.74,1,1,0,0,0-1.5.53,3.17,3.17,0,0,1-3,2.21H9.15A1.16,1.16,0,0,1,8,54.74Z"/><circle cx="28.51" cy="48.07" r="1.25"/><path d="M50.21,23.5a3.46,3.46,0,1,0-3.45-3.45A3.46,3.46,0,0,0,50.21,23.5Zm0-4.91a1.46,1.46,0,1,1-1.45,1.46A1.46,1.46,0,0,1,50.21,18.59Z"/><path d="M41.52,18.56a5.28,5.28,0,1,0-5.28-5.28A5.28,5.28,0,0,0,41.52,18.56Zm0-8.56a3.28,3.28,0,1,1-3.28,3.28A3.29,3.29,0,0,1,41.52,10Z"/><path d="M16.68,33.64a3.47,3.47,0,1,0,3.46-3.46A3.46,3.46,0,0,0,16.68,33.64Zm4.93,0a1.47,1.47,0,1,1-1.47-1.46A1.47,1.47,0,0,1,21.61,33.64Z"/><path d="M37.31,48a4.85,4.85,0,1,0,4.85-4.85A4.85,4.85,0,0,0,37.31,48ZM45,48a2.85,2.85,0,1,1-2.85-2.85A2.85,2.85,0,0,1,45,48Z"/></g></svg>