<svg id="Layer_1" data-name="Layer 1" xmlns="http://www.w3.org/2000/svg" viewBox="42.28 62.6 240.73 200.07"><defs><style>.cls-1{fill:#f2e9d6;}.cls-2{fill:#383638;}.cls-3{fill:#232223;}.cls-4{fill:#ed879c;}.cls-5{fill:#dd6c87;}.cls-6{fill:#e5d6ba;}.cls-7{fill:#fff;opacity:0.1;}</style></defs><ellipse class="cls-1" cx="231.1" cy="91.43" rx="29.6" ry="28.8"/><path class="cls-2" d="M252.11,89.77a20,20,0,0,0-20.2-18.87,20.44,20.44,0,0,0-14.82,6.31A42.32,42.32,0,0,0,252.11,89.77Z"/><path class="cls-3" d="M217.09,77.21a19.37,19.37,0,0,0-5.42,13.39c0,10.88,9.06,19.7,20.24,19.7s20.24-8.82,20.24-19.7c0-.28,0-.55,0-.83A42.32,42.32,0,0,1,217.09,77.21Z"/><ellipse class="cls-1" cx="84.7" cy="98.65" rx="29.6" ry="28.8"/><path class="cls-3" d="M63.77,95.71a18.44,18.44,0,0,0-.12,2.12c0,10.88,9.06,19.7,20.24,19.7s20.25-8.82,20.25-19.7A19.23,19.23,0,0,0,100.06,86,53.6,53.6,0,0,1,63.77,95.71Z"/><path class="cls-2" d="M83.89,78.13A20,20,0,0,0,63.77,95.71,53.6,53.6,0,0,0,100.06,86,20.36,20.36,0,0,0,83.89,78.13Z"/><path class="cls-1" d="M48.92,194.28s-6.87-2.77-6.61-9.91,7.13-8.59,7.13-8.59-6.21-3.3-5.28-8.85,9-5,9-5-6.6-6.21-5.15-10.57,7.93-1.72,7.93-1.72-2.64-5.55-.4-9.65,8.19-3.3,8.19-3.3-5-7.93-.66-13.34,11-2.51,11-2.51-2.77-3.84-1.32-7.4,7.66-.53,7.66-.53A12.65,12.65,0,0,1,83.27,101c5-5.42,11.5-2.12,11.5-2.12s-.14-5.68,2.37-7.27,6-.26,6-.26-1.06-5.42,1.59-7,6.73.92,6.73.92-1-6.74,4-8.45,8.72,2.24,8.72,2.24,2.25-6.21,6.61-6.47a13,13,0,0,1,7.39,1.72s.8-6.48,5.55-7.14,7.8,4,7.8,4,3.3-5.81,6.87-5.55S163,69.81,163,69.81s3.43-3.17,6.47-2.77,4.76,3.83,4.76,3.83,2.64-3.83,8.32-2.38,6.87,4.89,6.87,4.89a7.93,7.93,0,0,1,7.67-.92A7.82,7.82,0,0,1,201.66,78s4.62-3.3,7.8-2.24S211.17,83,211.17,83s5.68-2.38,8.33-.14,1.85,6.87,1.85,6.87,7.13-1.85,11.23,2.91a14.64,14.64,0,0,1,3.83,9.51s7.27.53,9.78,4.23.53,6.61.53,6.61,9.38-5.15,11-.93-4.09,9.12-4.09,9.12,5-1.85,7.13.53-1.05,8.46-1.05,8.46,6.87.92,9.77,5.94-.26,10.57-.26,10.57,7.53,3,8.06,8.33-2.51,6.87-2.51,6.87,7.53,3.43,8.19,9.38-4.89,9.38-4.89,9.38,5.29,5.29,4.36,10.57-6.08,8.19-6.08,8.19,5.69,5.42,1.33,10.71a14.65,14.65,0,0,1-9.65,5.55s-2.64,13.08-8.85,15.72-10.71,2-10.71,2-2.77,9.38-9,10.44a13.28,13.28,0,0,1-10-2s-7.8,7.53-12.82,7.92a33.43,33.43,0,0,1-10.83-1.45s-5.55,5.55-11.9,6.34-11.49-3.3-11.49-3.3-2.25,5.42-10.57,6.34-9.12-6.21-9.12-6.21-11.23,8.59-17.31,6.08a83.37,83.37,0,0,1-13-7.27S116,258,110,254.93s-7-10.44-7-10.44-9.25,5.81-11.89,3.83-2.51-8.85-2.51-8.85-7,5.68-12.29,4.09.26-11.09.26-11.09-7.93,4.22-11.23,1.19-1.19-11.1-1.19-11.1-9.51,3.3-13.48-2.51,1.59-11.9,1.59-11.9-6.61-3.56-7-8.06A5.56,5.56,0,0,1,48.92,194.28Z"/><path class="cls-2" d="M116.24,129.23c-8.63-1.13-11,8.58-12,13.53-.32,1.61,2.74,2.31,3.06.68.74-3.76,2.27-12.25,8.48-11.39s8.09,6.61,8.55,10.95c.17,1.63,3.34,1.65,3.17,0C126.94,137.59,124,130.24,116.24,129.23Z"/><path class="cls-2" d="M201.86,125.7c-8.63-1.12-11,8.59-12,13.53-.32,1.62,2.74,2.31,3.06.69.74-3.76,2.27-12.26,8.48-11.39s8.09,6.6,8.55,10.95c.17,1.63,3.34,1.64,3.17,0C212.56,134.07,209.64,126.72,201.86,125.7Z"/><path class="cls-2" d="M175,148.6a15.81,15.81,0,0,1-11.46,10.34q.6-6.37.86-12.78c2.57,0,5.59-.25,7.15-2a1.65,1.65,0,0,0,.25-1.92,5.11,5.11,0,0,0-3.69-2.52l-.19-.06-.42-.06a13.7,13.7,0,0,0-1.45-.13c-4.77-.3-15.71-.14-12.82,4.85,1.32,2.28,5.45,2,8,1.86q-.27,6.6-.9,13.16a18.32,18.32,0,0,1-16.07-8.64c-1.09-1.72-3.83-.13-2.74,1.6a21.39,21.39,0,0,0,19.68,10.14,1.85,1.85,0,0,0,1.18-.12,19.25,19.25,0,0,0,15.68-12.9C178.81,147.52,175.75,146.69,175,148.6Z"/><ellipse class="cls-4" cx="116.81" cy="151.55" rx="18.37" ry="8.06"/><path class="cls-5" d="M110.17,142.22q-1.58,4-3.3,8c-.44,1,1.6,1.46,2,.44q1.73-4,3.3-8C112.61,141.63,110.57,141.19,110.17,142.22Z"/><path class="cls-5" d="M116.72,147q-1.18,3.56-2.13,7.16c-.27,1,1.77,1.5,2,.45.63-2.41,1.33-4.8,2.13-7.17C119.11,146.39,117.07,145.94,116.72,147Z"/><path class="cls-5" d="M127.82,143.22a62.08,62.08,0,0,0-2.34,7.06c-.28,1.05,1.76,1.5,2,.44a61.42,61.42,0,0,1,2.34-7.06C130.27,142.63,128.23,142.19,127.82,143.22Z"/><ellipse class="cls-4" cx="201.37" cy="149.79" rx="18.37" ry="8.06"/><path class="cls-5" d="M195.09,142.49q-1.58,4-3.3,8c-.44,1,1.6,1.46,2,.45q1.71-4,3.29-8C197.53,141.9,195.49,141.46,195.09,142.49Z"/><path class="cls-5" d="M203.12,142.16q-1.5,3.43-2.75,7c-.36,1,1.63,1.65,2,.62q1.24-3.51,2.75-6.95C205.55,141.77,203.55,141.15,203.12,142.16Z"/><path class="cls-5" d="M209.39,144.72a60.63,60.63,0,0,0-2.34,7.05c-.28,1.06,1.76,1.5,2,.45a60.78,60.78,0,0,1,2.34-7.06C211.84,144.13,209.8,143.69,209.39,144.72Z"/><path class="cls-6" d="M282.92,171.29c-.66-5.95-8.19-9.38-8.19-9.38s3-1.59,2.51-6.87-8.06-8.33-8.06-8.33,3.17-5.55.26-10.57a10.3,10.3,0,0,0-2.7-3,61.34,61.34,0,0,1,.83,10.35c-1.06,8.45-8.46,16.91-18,14.8,0,4.22-2.11,8.45-6.34,9.51-2.12,1.06-5.29-2.12-5.29-2.12-6.34,13.75-19,18-29.59,9.52-5.29,16.91-25.37,19-38.06,9.51-6.34,15.86-26.42,11.63-35.94,1.06-1,4.23-3.17,6.34-6.34,8.45-7.4,2.12-11.63-5.28-16.91-5.28-3.17,0-7.4,5.28-11.63,2.11-18-12.68-25.37,7.4-41.22,10.57a16.41,16.41,0,0,1-13.09-2.3,6.78,6.78,0,0,0,0,.77c.39,4.5,7,8.06,7,8.06s-5.55,6.08-1.59,11.9,13.48,2.51,13.48,2.51S62,230.62,65.3,233.65s11.23-1.18,11.23-1.18S71,242,76.27,243.56s12.29-4.09,12.29-4.09-.14,6.87,2.51,8.85S103,244.49,103,244.49s.92,7.4,7,10.44,22.46-4.63,22.46-4.63a83.37,83.37,0,0,0,13,7.27c6.08,2.51,17.31-6.08,17.31-6.08s.79,7.14,9.12,6.21,10.57-6.34,10.57-6.34,5.15,4.1,11.49,3.3,11.9-6.34,11.9-6.34a33.43,33.43,0,0,0,10.83,1.45c5-.39,12.82-7.92,12.82-7.92a13.28,13.28,0,0,0,10,2c6.21-1.06,9-10.44,9-10.44s4.5.66,10.71-2S268,215.69,268,215.69a14.65,14.65,0,0,0,9.65-5.55c4.36-5.29-1.33-10.71-1.33-10.71s5.16-2.9,6.08-8.19S278,180.67,278,180.67,283.58,177.23,282.92,171.29Z"/><path class="cls-3" d="M102.93,239.39c-1.26,9.45-1.42,17.64,1.5,18.88,7.4,3.15,44,5.38,69.59,3.94s48.8-7.09,50.56-10c1.51-2.47-5.19-30.51-8-41.65C191.14,243.5,140.62,256.84,102.93,239.39Z"/><path class="cls-2" d="M216.62,210.59c-.47-1.87-.83-3.28-1-4-2.47-9.37-103.77-10.12-106.23,1a320,320,0,0,0-6.44,31.78C140.62,256.84,191.14,243.5,216.62,210.59Z"/><ellipse class="cls-7" cx="138.55" cy="211.6" rx="27.15" ry="8.39" transform="translate(-30.86 23.8) rotate(-8.84)"/><path class="cls-6" d="M165.83,88.61c-.07-2.64,0-8.67,3.22-9.52,5.06-1.33,4.71,7.21,4.15,10.07a1.6,1.6,0,0,0,2.65,1.54,25.48,25.48,0,0,1,7.44-4.79c5.91-2.25,7.91,3.7,5.84,8.42a1.6,1.6,0,0,0,2.16,2.17c2.14-1.14,12.38-4.18,8.15,1.36-2.06,2.69-6.33,4.34-9.45,5.43-1.92.66-1.1,3.73.84,3.06,4.44-1.55,13.79-5.2,12.7-11.31-1.17-6.62-10.09-3.27-13.84-1.28l2.17,2.17c2-4.5,2.3-11.84-3.47-13.67-5.13-1.64-11.17,3-14.78,6.2L176.26,90c1-5,.75-13.33-5.85-14.08s-7.88,7.85-7.75,12.69c.05,2,3.23,2,3.17,0Z"/><path class="cls-6" d="M159.78,116.78c.89-4.42-.72-10-6.26-9.09s-4.69,7.19-2.89,11l2.49-1.92c-2.58-3-7.37-8.07-11.81-7-5.92,1.37-4.32,9.2-1.53,12.64l1.54-2.65c-3.13-.45-8.82-1.19-10.95,1.92-2.45,3.57,1.91,7.11,4.8,8.47,1.84.85,3.45-1.88,1.6-2.74-2.07-1-4.94-3-1.58-4.67,1.23-.62,3.92-.12,5.29.08a1.6,1.6,0,0,0,1.54-2.65c-.79-1-1.93-3-1.71-4.21.37-2,2.76-2.77,4.2-2.4a7.27,7.27,0,0,1,2.28,1.57,29.8,29.8,0,0,1,4.09,3.93c1.26,1.45,3.2-.39,2.49-1.92-.47-1-1.5-3.48-1-4.55,2.49-2,3.92-2.07,4.27-.33a3.89,3.89,0,0,1,.28,1.69,8.23,8.23,0,0,1-.15,2c-.4,2,2.65,2.85,3.05.85Z"/><path class="cls-6" d="M234.43,134.57c.42-.48.75-1,1.14-1.54a19.68,19.68,0,0,1,1.76-2.11c1.63-1.59,1.67-1.82,3.9-.44,2.67,1.65,1.81,3.36.42,6a18.08,18.08,0,0,1-1.35,2.12c-.84,1.15.55,2.68,1.79,2.33s7.21-2.11,6.72.9c-.25,1.56-5.36,2.43-6.68,2.64a1.6,1.6,0,0,0-.7,2.65c.75.71,3.64,3.37,3.32,4.34-1,2.83-5.21-1.25-6-2.09-1.4-1.48-3.64.76-2.24,2.25,2.35,2.48,7.73,6.3,10.74,2.64,2.53-3.06-1.41-7.36-3.56-9.38-.24.89-.47,1.77-.7,2.65,3.49-.56,10.59-2.72,9.41-7.6-1.09-4.54-8-3-11.14-2.06.6.77,1.2,1.55,1.79,2.33,2.61-3.54,5.27-9.91.92-13.24-5-3.79-8.88,2.19-11.78,5.41-1.36,1.52.88,3.77,2.25,2.25Z"/><path class="cls-6" d="M93.61,166.21c.61,2.18,3.17,6,1.57,8.2-1.05,1.46-3.43.87-4.51,0a9.79,9.79,0,0,1-1.9-2.21,17.39,17.39,0,0,1-1.5-2.79,1.6,1.6,0,0,0-3.06,0c-.47,1.67-1.61,6-3.47,5.48-2.19-.66-.27-5.63.43-7.34.48-1.16-.89-2.24-2-1.95-.89.25-4.17,1.3-4.79.63-2.36-2.5,3.07-3.85,4.38-4.12,2-.42,1.15-3.48-.84-3.06-3.31.69-9.33,3.27-7.84,7.73,1.28,3.82,7.06,2.68,9.93,1.88l-2-1.95C76.76,170,74.87,177.61,80,178.83c4.29,1,6.43-5.52,7.28-8.57H84.21c1.66,4.11,5.55,10,10.8,8.08,6.07-2.17,2.83-8.77,1.66-13a1.59,1.59,0,0,0-3.06.84Z"/></svg>