<svg id="Layer_1" data-name="Layer 1" xmlns="http://www.w3.org/2000/svg" viewBox="43.1 48.68 239.13 227.9"><defs><style>.cls-1{fill:#e0803d;}.cls-2{fill:#cc6723;}.cls-3,.cls-8{fill:#721e0d;}.cls-3{opacity:0.1;}.cls-4{fill:#f3aebd;}.cls-5{fill:#ed879c;}.cls-11,.cls-6{opacity:0.2;}.cls-11,.cls-7{fill:#fff;}.cls-9{fill:#892c15;}.cls-10{fill:#dd6c87;}</style></defs><path class="cls-1" d="M208.78,122.5l2.06,3.81c2.29,4.24,4.86,9,7.61,14.12h0c1.12,2.11,2.28,4.25,3.47,6.48,3.3,6.17,6.8,12.78,10.39,19.61h0c3.28,6.2,6.62,12.59,10,19,1,1.92,2,3.87,3,5.8,3.66,7.11,7.28,14.22,10.72,21.13,1.19,2.37,2.36,4.73,3.5,7q2.59,5.26,5,10.27c3.95,8.24,7.49,15.87,10.32,22.46.22.5.44,1,.64,1.49,4.41,10.34,7,17.9,6.69,20.93-.25,2.67-5.16,2.42-13.2.1-5.18-1.51-11.7-3.86-19.11-6.84-1.7-.7-3.46-1.41-5.26-2.17h0c-5.16-2.14-10.67-4.54-16.4-7.13-7.08-3.17-14.51-6.61-22.06-10.21q-3.12-1.47-6.27-3c-6.64-3.19-13.35-6.46-20-9.73l-6.73-3.34c-8-4-15.87-8-23.24-11.71l-.3-.15c-11.33-5.79-21.52-11.08-29.61-15.29-3.94-2.06-7.37-3.88-10.19-5.36s-3.9-4.54-2.86-7.83c.3-.95.66-1.95,1.09-3a72.38,72.38,0,0,1,7.82-13.56c7-9.83,17.26-21,29.75-31.62a204.66,204.66,0,0,1,23.91-17.67,126.14,126.14,0,0,1,16.69-8.93l1.08-.45a20.72,20.72,0,0,1,10.14-1.58A14.31,14.31,0,0,1,208.78,122.5Z"/><path class="cls-2" d="M206.1,248.41c4.89-1.59,9.79-3,14.66-4.55l7.3-2.27c2.44-.77,4.84-1.5,7.28-2.31s4.85-1.55,7.27-2.36l7.26-2.39,7.28-2.41c2.43-.8,4.85-1.63,7.34-2.33-2.23,1.28-4.52,2.46-6.81,3.63s-4.65,2.2-7,3.2-4.76,1.94-7.16,2.87-4.85,1.71-7.29,2.52-4.93,1.5-7.4,2.18-5,1.3-7.49,1.83A116.81,116.81,0,0,1,206.1,248.41Z"/><path class="cls-2" d="M275.45,253.74a52.58,52.58,0,0,1-7.16,4.35q-3.72,1.89-7.6,3.4a78.63,78.63,0,0,1-7.9,2.63,59.51,59.51,0,0,1-8.22,1.65h0v0h0A67.65,67.65,0,0,1,252,262q3.78-1.68,7.62-3.18t7.77-2.81C270.05,255.15,272.69,254.35,275.45,253.74Z"/><path class="cls-2" d="M179.85,235.69c6.5-1.54,13-3.1,19.36-4.81l4.79-1.3c1.6-.42,3.18-1,4.76-1.42l9.54-2.79c3.18-.92,6.32-2,9.47-3s6.27-2.13,9.41-3.19c6.27-2.18,12.5-4.47,18.8-6.7a165.15,165.15,0,0,1-18,8.78,193.64,193.64,0,0,1-18.85,6.85c-6.45,1.74-12.85,3.71-19.43,4.94A141.37,141.37,0,0,1,179.85,235.69Z"/><path class="cls-2" d="M149.51,220.67l.37-.06h0c7.94-1.37,15.8-3,23.59-4.83s15.5-4,23.15-6.37L208,205.64c1.9-.65,3.83-1.2,5.7-1.9s3.77-1.37,5.64-2.07c7.52-2.78,15-5.77,22.4-8.86l-.06,0h0l0,0h0l3.5-1.45-3.28,1.9.06,0h0l0,0a220.64,220.64,0,0,1-21.74,10.63c-3.72,1.56-7.47,3.06-11.3,4.35l-5.73,2c-1.91.64-3.81,1.36-5.74,1.92a216.56,216.56,0,0,1-23.53,5.8,159.55,159.55,0,0,1-24.05,2.73h-.37Z"/><path class="cls-2" d="M232.32,166.54h0c-4.41,2.53-8.9,4.94-13.38,7.37s-9.15,4.49-13.83,6.52-9.43,3.89-14.22,5.66c-2.4.84-4.83,1.64-7.25,2.46s-4.85,1.6-7.3,2.32c-4.9,1.41-9.84,2.72-14.82,3.84s-10,2.11-15.06,2.82-10.13,1.32-15.22,1.64c-2.55.14-5.1.25-7.65.24a74.65,74.65,0,0,1-7.63-.33c2.54,0,5.07-.24,7.6-.46s5-.51,7.55-.85c5-.65,10-1.49,15-2.44,2.48-.48,4.95-1,7.42-1.54s4.94-1.11,7.39-1.72q7.36-1.78,14.64-3.95c4.87-1.36,9.63-3.06,14.45-4.59s9.54-3.37,14.28-5.17,9.43-3.69,14.08-5.72,9.26-4.14,14-6.1h0Z"/><path class="cls-2" d="M115.83,175.46c4.18-.27,8.33-.71,12.47-1.26s8.24-1.23,12.34-2,8.17-1.61,12.23-2.52,8.1-1.94,12.13-3l-.56.29h0l.23-.2.33-.09c2.41-.7,4.82-1.42,7.24-2.08s4.84-1.31,7.22-2.08c4.79-1.5,9.56-3.05,14.29-4.75q3.56-1.23,7.09-2.57c2.35-.88,4.71-1.76,7.05-2.68,4.69-1.82,9.35-3.73,14-5.64-4.37,2.53-8.88,4.82-13.44,7s-9.2,4.2-13.9,6.09-9.45,3.62-14.28,5.18-9.71,2.87-14.59,4.24l.56-.29h0l-.26.22-.3.07c-4.08,1-8.16,2-12.3,2.8-2.06.43-4.13.78-6.2,1.15s-4.16.64-6.24.91c-4.17.56-8.36.94-12.56,1.17A105.6,105.6,0,0,1,115.83,175.46Z"/><path class="cls-2" d="M249.83,267.93c.61-4.12,1.46-8.14,2.23-12.18l2.39-12.06,2.39-12.07c.72-4,1.53-8.06,2.64-12.1.08,4.15-.12,8.3-.43,12.43a113.53,113.53,0,0,1-1.79,12.3q-1.22,6.09-3,12A88.85,88.85,0,0,1,249.83,267.93Z"/><path class="cls-2" d="M274.81,252.25a26.59,26.59,0,0,1-.24,5.93,55.51,55.51,0,0,1-1.09,5.75c-.25.94-.48,1.89-.79,2.82s-.66,1.84-1,2.74a31.37,31.37,0,0,1-2.71,5.28,31.73,31.73,0,0,1,.55-5.9c.16-1,.36-1.9.58-2.84s.4-1.89.63-2.83A46.51,46.51,0,0,1,274.81,252.25Z"/><path class="cls-2" d="M242.27,185.55c.1,2.5.17,5,.18,7.51v.21l-.2.2h0l.2-.4a155.22,155.22,0,0,1-1.1,16.83q-.48,4.2-1.18,8.37c-.46,2.78-1,5.54-1.59,8.29s-1.23,5.5-2,8.21c-.36,1.36-.74,2.72-1.13,4.07l-.61,2-.65,2a135.53,135.53,0,0,1-6.05,15.74c1.35-5.46,2.74-10.87,4-16.3l.48-2,.47-2.06.94-4.07c.59-2.72,1.18-5.44,1.74-8.17s1.08-5.47,1.58-8.2l1.42-8.24q1.34-8.25,2.46-16.57l0-.27.17-.13h0l-.2.41C241.57,190.51,241.9,188,242.27,185.55Z"/><path class="cls-2" d="M199.83,245.42c2.89-8.5,5.53-17,7.84-25.65,1.12-4.32,2.25-8.63,3.18-13s1.9-8.7,2.66-13.09,1.5-8.78,2.09-13.2,1.09-8.84,1.53-13.28.75-8.89,1-13.35.21-8.92.34-13.42v0h0V140l.05.4v0h0c.25,2.23.47,4.46.68,6.7s.28,4.49.37,6.74c.11,4.49.07,9-.15,13.49s-.6,9-1.08,13.46-1.19,8.93-2,13.37a210.14,210.14,0,0,1-6.53,26.19A179,179,0,0,1,199.83,245.42Z"/><path class="cls-2" d="M197.35,114.54a161.2,161.2,0,0,1,.7,30.44c-.29,5.08-.86,10.15-1.49,15.2S195,170.24,194,175.24a223.18,223.18,0,0,1-8.3,29.37,177.13,177.13,0,0,1-12.57,27.74c4-9.34,7.42-18.83,10.45-28.45,1.48-4.83,2.92-9.66,4.16-14.54s2.47-9.77,3.46-14.71,1.93-9.88,2.69-14.86,1.4-10,2-15A267.67,267.67,0,0,0,197.35,114.54Z"/><path class="cls-2" d="M149.51,220.67l.06-.19h0c1.48-4.33,2.94-8.66,4.31-13s2.67-8.7,3.86-13.1l3.38-13.21,1.4-6.67,1.46-6.65.11-.51.36-.3h0l-.47.8c.64-3.43,1.26-6.87,1.82-10.32s1.06-6.92,1.5-10.39.86-7,1.22-10.44.66-7,1-10.5c.23,3.52.31,7,.28,10.57s-.17,7-.41,10.58-.57,7-1,10.54-1,7-1.59,10.48l-.09.48-.37.32h0l.47-.81-1.42,6.75-1.48,6.73c-.55,2.23-1.21,4.43-1.85,6.64s-1.25,4.42-1.94,6.61c-1.43,4.36-3,8.68-4.71,12.93s-3.61,8.43-5.73,12.49h0Z"/><path class="cls-3" d="M197.4,115.21a20.72,20.72,0,0,0-10.14,1.58l-1.08.45a126.14,126.14,0,0,0-16.69,8.93,204.66,204.66,0,0,0-23.91,17.67c-12.49,10.66-22.78,21.79-29.75,31.62A72.38,72.38,0,0,0,108,189c-.43,1-.79,2-1.09,3-1,3.29.16,6.4,2.86,7.83s6.25,3.3,10.19,5.36c8.09,4.21,18.28,9.5,29.61,15.29l.3.15.84.43c1.94-7.67-3.07-16.16,1-18.12,12.13-10.35,12.8-19.39,17.1-31.53,10.34,4.73,16.69-7.47,21.08-14.61,4.64,7.9,15,12.64,21.33.44,21,29.51,41.25,63.06,37.45,105.27-.17,1.57-.41,3.13-.7,4.67l1.81.74c7.41,3,13.93,5.33,19.11,6.84,8,2.32,12.95,2.57,13.2-.1.29-3-2.28-10.59-6.69-20.93-.2-.49-.42-1-.64-1.49-2.83-6.59-6.37-14.22-10.32-22.46q-2.42-5-5-10.27c-1.14-2.31-2.31-4.67-3.5-7-3.44-6.91-7.06-14-10.72-21.13-1-1.93-2-3.88-3-5.8-3.33-6.42-6.67-12.81-10-19h0c-3.59-6.83-7.09-13.44-10.39-19.61-1.19-2.23-2.35-4.37-3.47-6.48h0c-2.75-5.13-5.32-9.88-7.61-14.12l-2.06-3.81A14.31,14.31,0,0,0,197.4,115.21Z"/><ellipse class="cls-4" cx="63.84" cy="148.99" rx="20.59" ry="20.76" transform="translate(-97.86 137.71) rotate(-62.82)"/><ellipse class="cls-5" cx="67.49" cy="147.41" rx="13" ry="13.1" transform="translate(-94.47 140.07) rotate(-62.81)"/><g class="cls-6"><path class="cls-7" d="M55,132.52c-8.9,6.8-10.82,20.18-2.75,28.5,2.12,2.19,5.88-.77,3.73-3-6.27-6.48-4.94-16.47,2-21.78,2.45-1.87-.54-5.61-3-3.74Z"/></g><ellipse class="cls-4" cx="155.84" cy="69.38" rx="20.59" ry="20.76" transform="translate(-7.73 117.8) rotate(-40.49)"/><ellipse class="cls-5" cx="155.14" cy="73.29" rx="13" ry="13.1" transform="translate(-10.43 118.28) rotate(-40.49)"/><path class="cls-4" d="M199.94,102c-20.33-33.12-64.23-43.13-98.07-22.36S57.09,144,77.42,177.16a69.1,69.1,0,0,0,34.74,28.6l.15-.22c1.89,1.13,5.24,3.23,10.61,6.91,9.45,6.47,15.15,18.51,21.2,17.93s6.53-5.71,4-9.44S121,207.13,122.73,198.72s11.77-1.26,17,5.94,7.63,11.7,13.84,7.31-7.62-14.46-14.23-20.21-9.38-12.83.46-14.81S155,196.61,162.58,190c10.82-9.32-17.76-16.81-8.19-28.12,3.1-3.67,8.86,10.59,18.52,4.72,8.56-5.22-.76-14.2.7-20.16s8-7.15,16.38-1,7.54,15.44,14,16,9.38-5.9,6.83-9.5-17.92-10.25-14.93-19.48,14.42.92,18.68,7.9,6.85,19.7,14.05,18.93,7.19-5.09,4-9.94c-3-4.54-22.36-26.45-24.83-29.25h0A68.87,68.87,0,0,0,199.94,102Z"/><path class="cls-8" d="M136.07,120.55a36.77,36.77,0,0,0-4-6L115,130a54.54,54.54,0,0,0,9.91,7.72A31.91,31.91,0,0,1,136.07,120.55Z"/><path class="cls-9" d="M124.87,137.76c4.69,2.7,9.85,4.06,12.55-.51,3.24-5.49,1.11-12-1.35-16.7A31.91,31.91,0,0,0,124.87,137.76Z"/><ellipse class="cls-5" cx="162.33" cy="111.73" rx="15.77" ry="8.77" transform="translate(-33.67 132.13) rotate(-40.48)"/><path class="cls-5" d="M96.92,170.05c3.15,3.68,11.06,2.08,17.69-3.57s9.44-13.22,6.3-16.9-11.06-2.09-17.69,3.56S93.78,166.36,96.92,170.05Z"/><path class="cls-8" d="M95.49,128.59c-6.57,3.91-7.89,13.73-5.37,20.94a6.94,6.94,0,0,0,1.76,3,5.48,5.48,0,0,0,5.88.5,12.09,12.09,0,0,0,4.45-4.28,19.92,19.92,0,0,0,3.66-9.73,11.84,11.84,0,0,0-3.55-9.52,6.32,6.32,0,0,0-3.09-1.61A6.7,6.7,0,0,0,95.49,128.59Z"/><path class="cls-7" d="M94.18,129.05a6.26,6.26,0,0,0-3.88,3.8c-1,2-1.67,4.48-.29,6.1,1.25,1.46,3.38,1.11,4.73,0a10.5,10.5,0,0,0,2.58-3.66,6.65,6.65,0,0,0,.85-4A3.21,3.21,0,0,0,94.18,129.05Z"/><path class="cls-7" d="M97.34,140.94c-1.48-.1-2.61,1.16-3.46,2.22a6.2,6.2,0,0,0-.75,1.24,3.12,3.12,0,0,0-.27.43A3.75,3.75,0,0,0,93.5,149a3.4,3.4,0,0,0,4.48-.45C99.8,146.87,101.12,141.2,97.34,140.94Z"/><path class="cls-8" d="M132.1,99.29c2.29-7.28,11.55-10.83,19.14-10a6.89,6.89,0,0,1,3.3,1,5.44,5.44,0,0,1,1.83,5.6,12,12,0,0,1-3.13,5.32,19.92,19.92,0,0,1-8.63,5.8,11.83,11.83,0,0,1-10.08-1.27,6.4,6.4,0,0,1-2.28-2.64A6.74,6.74,0,0,1,132.1,99.29Z"/><path class="cls-7" d="M132.25,97.92a6.23,6.23,0,0,1,2.81-4.65c1.68-1.48,4-2.66,5.87-1.69,1.7.88,1.85,3,1.11,4.6a10.36,10.36,0,0,1-3,3.35,6.59,6.59,0,0,1-3.68,1.74A3.21,3.21,0,0,1,132.25,97.92Z"/><path class="cls-7" d="M144.55,98.26c-.45-1.42.53-2.81,1.37-3.88a6.1,6.1,0,0,1,1-1,3.23,3.23,0,0,1,.37-.37c1.12-.85,3-1.24,4.21-.33a3.39,3.39,0,0,1,.6,4.46C150.89,99.29,145.67,101.87,144.55,98.26Z"/><path class="cls-10" d="M158.84,115.74q-5.18-.66-10.26-1.81c-1-.23-1.52,1.27-.52,1.5a107,107,0,0,0,10.65,1.9C159.73,117.45,159.85,115.86,158.84,115.74Z"/><path class="cls-10" d="M166,112.24a79.28,79.28,0,0,0-8.25-1.37c-1-.12-1.14,1.47-.12,1.59a74.47,74.47,0,0,1,7.84,1.29C166.47,114,167,112.47,166,112.24Z"/><path class="cls-10" d="M165.89,104.75q-4.63-1.26-9.37-2.08c-1-.17-1.13,1.42-.12,1.59q4.53.78,9,2C166.35,106.53,166.89,105,165.89,104.75Z"/><path class="cls-10" d="M103.45,165q-4.77-1.64-9.65-3c-1-.27-1.52,1.24-.52,1.51q4.86,1.33,9.65,3A.79.79,0,0,0,103.45,165Z"/><path class="cls-10" d="M111.85,160.13a59.87,59.87,0,0,1-6.55-1.92c-1-.35-1.58,1.13-.61,1.47a62.57,62.57,0,0,0,6.94,2C112.63,161.94,112.84,160.36,111.85,160.13Z"/><path class="cls-10" d="M115.36,152.06l-8.57-2.46c-1-.28-1.51,1.22-.52,1.5l8.57,2.47C115.82,153.85,116.35,152.35,115.36,152.06Z"/><path class="cls-3" d="M199.94,102c-15.24-24.83-43.72-36.66-71.28-32.29,27,1.25,53.16,17.35,60.94,45,3.78,9.35-10.24,15-18.37,17.78-12.81,4.64-3,23.51-23,19.66-10-1.92.14,12.45-5.92,17.63-3.64,3.1-13.31-3.32-16.09,3.25-.35,4.5,4.82,10.56,3.43,13.84-3,8.82-17.63-5.91-17.3,4.29,0,14.7,21.05,19.76,26.73,33.78a3.71,3.71,0,0,1,.12,3.49c1.68,1.35,3.31,2.16,5,2,6.06-.58,6.53-5.71,4-9.44S121,207.13,122.73,198.72s11.77-1.26,17,5.94,7.63,11.7,13.84,7.31-7.62-14.46-14.23-20.21-9.38-12.83.46-14.81S155,196.61,162.58,190c10.82-9.32-17.76-16.81-8.19-28.12,3.1-3.67,8.86,10.59,18.52,4.72,8.56-5.22-.76-14.2.7-20.16s8-7.15,16.38-1,7.54,15.44,14,16,9.38-5.9,6.83-9.5-17.92-10.25-14.93-19.48,14.42.92,18.68,7.9,6.85,19.7,14.05,18.93,7.19-5.09,4-9.94c-3-4.54-22.36-26.45-24.83-29.25h0A68.87,68.87,0,0,0,199.94,102Z"/><path class="cls-11" d="M76.24,129.13c3.12,1.69,10-4.94,15.3-14.81s7.12-19.23,4-20.91-10,4.94-15.29,14.81S73.12,127.45,76.24,129.13Z"/><g class="cls-6"><path class="cls-7" d="M142.17,66.48c3.45-7.7,13-11.44,20.27-7.06,2.62,1.57,5.49-2.26,2.85-3.85-10.16-6.1-22.81-1.46-27.57,9.14-1.26,2.81,3.19,4.58,4.45,1.77Z"/></g><ellipse class="cls-11" cx="189.57" cy="216.78" rx="12.26" ry="28.05" transform="translate(-93.06 272.03) rotate(-59.89)"/><path class="cls-8" d="M123.18,109.46c-1.7-5.43-9.55,1.41-10.83,3.83-.07.14-.13.28-.19.42s-.4.55-.58.83c-1,1.57-1.63,4.34.8,4.95s5.3-2.12,6.8-3.48l.07-.06c2.11,2.17,4.26,4.3,6.49,6.35,1.23,1.14,2.77-1,1.55-2.09-2.12-1.95-4.16-4-6.16-6C122.46,112.76,123.67,111,123.18,109.46Z"/></svg>