<svg id="Layer_1" data-name="Layer 1" xmlns="http://www.w3.org/2000/svg" viewBox="0 0 579.88 670.22"><defs><style>.cls-1{opacity:0.4;}.cls-2{fill:#be956d;}.cls-3{fill:#fff;}.cls-4{fill:#333;}.cls-5{fill:#f78c8b;}</style></defs><ellipse class="cls-1" cx="299.2" cy="610.61" rx="276.18" ry="59.61"/><path class="cls-2" d="M126.08,356l355.77,4.49,39.87,77.81-1,15L365.88,523.58l-261.12-12L68.1,453.25S82.31,372.45,126.08,356Z"/><path d="M365.88,528.08h-.21l-261.12-12A4.49,4.49,0,0,1,101,514L64.29,455.65a4.51,4.51,0,0,1-.63-3.18c.6-3.4,15.19-83.53,60.84-100.69a4.37,4.37,0,0,1,1.64-.29L481.91,356a4.51,4.51,0,0,1,3.95,2.45l39.86,77.81a4.52,4.52,0,0,1,.49,2.34l-1,15a4.51,4.51,0,0,1-2.63,3.81L367.74,527.68A4.45,4.45,0,0,1,365.88,528.08ZM107.32,507.23,365,519l151.44-68.77.71-11-38.07-74.3L126.9,360.5C90,375.22,75.15,441,72.85,452.36Z"/><path class="cls-3" d="M433,474.8s15.26-102.73-46.74-115.48S118.09,323.56,136.41,465.87c0,0,104.62,23.72,165.7,22.33S433,474.8,433,474.8Z"/><path d="M296.78,492.76c-61.44,0-160.37-22.27-161.36-22.5a4.5,4.5,0,0,1-3.47-3.81c-4.13-32.06,2.6-58.34,20-78.1,31.39-35.7,92.17-43.19,137.62-43.19a516,516,0,0,1,97.61,9.75c27.37,5.63,44.72,28.55,50.16,66.29a208.68,208.68,0,0,1,.12,54.27,4.49,4.49,0,0,1-3.68,3.77c-.71.12-70.83,12.07-131.54,13.46C300.44,492.74,298.62,492.76,296.78,492.76ZM140.51,462.17c17.2,3.75,101.92,21.59,156.27,21.59,1.77,0,3.52,0,5.23-.06,52.58-1.2,112.39-10.43,126.92-12.79,1.85-17.11,7.59-96.66-43.58-107.18a505.19,505.19,0,0,0-95.8-9.57c-43.6,0-101.69,7-130.86,40.13C143.64,411.4,137.54,434.22,140.51,462.17Z"/><path class="cls-2" d="M68.1,453.25l58-97.26L89.79,367.21S15.72,442.78,4.5,481.68Z"/><path d="M4.5,486.19a4.51,4.51,0,0,1-4.32-5.75c11.4-39.54,83.34-113.26,86.4-116.38a4.49,4.49,0,0,1,1.89-1.15l36.28-11.22a4.5,4.5,0,0,1,5.2,6.6L72,455.56a4.49,4.49,0,0,1-2,1.8L6.34,485.79A4.42,4.42,0,0,1,4.5,486.19Zm87.72-115c-7.26,7.51-62.39,65.16-79.61,102L65,449.73l51.26-86Z"/><path class="cls-2" d="M520.76,453.25l54.62,28.43L514,377.69l-32.17-17.21S520.18,440.63,520.76,453.25Z"/><path d="M575.37,486.19a4.52,4.52,0,0,1-2.07-.51l-54.62-28.44a4.52,4.52,0,0,1-2.42-3.78c-.39-8.53-23.8-60.37-38.47-91a4.5,4.5,0,0,1,6.18-5.91l32.18,17.21a4.55,4.55,0,0,1,1.75,1.68l61.35,104a4.51,4.51,0,0,1-3.88,6.79Zm-50.53-35.88,38.68,20.13-52.73-89.38-19.05-10.19C502,392.8,521.74,436,524.84,450.31Z"/><path class="cls-3" d="M215.33,389.66s-134-40.87-102-153c9.3-32.59,20.89-61.75,35.78-86.27C137.81,131.05,123.54,7.43,150.37,4.58c23.14-2.46,74.89,50.68,93.74,71,25.31-6.67,54.78-7.78,89.32-2.2,35.22,5.69,65.68,18.07,91.05,34.81,21.71-15.73,84.17-58.86,106.67-51.81,27.43,8.58-17.76,142.41-29.94,145.13l-.09-.1c11.81,30.15,15.06,61.89,8.9,91.05C491.56,379.85,408,417.22,384.87,411.8"/><path class="cls-4" d="M531.15,56.35c-22.5-7.05-85,36.08-106.67,51.81C399.11,91.42,368.65,79,333.43,73.35c-34.54-5.58-64-4.47-89.32,2.2-18.85-20.29-70.6-73.43-93.74-71-26.83,2.85-12.56,126.47-1.27,145.78-14.89,24.52-26.48,53.68-35.78,86.27-4.34,15.23-5.62,18.14-4.59,30.81,18.19,13.4,47.88,36.11,94.21,30.19,94-12,89-69.52,115.5-66.52s9,60.63,60.5,83.94c23.5,10.64,87.81,9.92,126.84-6.66a157.82,157.82,0,0,0,4.24-16c6.16-29.16,2.91-60.9-8.9-91.05l.09.1C513.39,198.76,558.58,64.93,531.15,56.35Z"/><path d="M390,416.82a27.26,27.26,0,0,1-6.17-.64,4.5,4.5,0,0,1,2.06-8.76c8.55,2,28.6-3.2,50.37-17,20.91-13.28,57.71-43.78,69.35-98.89,5.95-28.17,2.95-58.76-8.69-88.47a4.52,4.52,0,0,1,3.12-6c3.63-3.17,13.05-22.34,22.33-52.21,9.82-31.65,14.5-59.32,12.51-74-.56-4.07-1.89-9.14-5.08-10.14C516,56.33,476.66,75.93,427.12,111.8a4.5,4.5,0,0,1-5.12.11c-26.25-17.31-56.29-28.79-89.28-34.12-32.7-5.28-62.13-4.57-87.47,2.11a4.5,4.5,0,0,1-4.44-1.29c-41.24-44.42-75.72-71.07-90-69.56-2,.21-3.76,1.94-5.39,5.16C132.58,39.67,143.58,132,153,148.09a4.51,4.51,0,0,1,0,4.61c-13.95,23-25.5,50.82-35.3,85.17-12.71,44.55-.14,82.8,37.34,113.7,28.47,23.46,61.33,33.69,61.66,33.79A4.5,4.5,0,0,1,214,394c-1.4-.43-34.7-10.76-64.55-35.29C109.38,325.75,95.38,283.11,109,235.4c9.72-34.08,21.17-62,35-85.23-4.88-10.91-9.71-36.45-12.07-64.39-1.75-20.71-3.36-58.07,5.52-75.63C140.51,4,144.71.65,149.89.1c23.44-2.5,69.25,42.15,95.69,70.43,26-6.38,55.74-6.93,88.57-1.62,33.17,5.35,63.5,16.72,90.19,33.79C456.11,79.9,509.9,45,532.5,52.05,541,54.72,545,65,544.25,82.49c-.78,18.83-7,47.09-16.73,75.61a289.81,289.81,0,0,1-12.63,31.69c-3.51,7.2-6.14,11.16-8.28,13.36,11.19,30.29,13.9,61.4,7.82,90.21C502.11,351.69,463.2,384,441.1,398,422.55,409.77,403.08,416.82,390,416.82Z"/><path d="M150.32,296.31a5,5,0,0,1-1.07-.13c-.54-.14-54.38-13.05-93.53-1.07a4.5,4.5,0,1,1-2.63-8.6c41.54-12.72,96,.36,98.3.92a4.51,4.51,0,0,1-1.07,8.88Z"/><path d="M54.19,328.58a4.5,4.5,0,0,1-1.77-8.64c40-17.08,95.5-9.88,97.84-9.56a4.5,4.5,0,1,1-1.19,8.92c-.55-.08-55.46-7.18-93.11,8.91A4.46,4.46,0,0,1,54.19,328.58Z"/><path d="M59.21,364.36A4.5,4.5,0,0,1,57,356c37.66-21.66,93.67-21.05,96-21a4.5,4.5,0,1,1-.14,9c-.55,0-55.92-.59-91.41,19.83A4.51,4.51,0,0,1,59.21,364.36Z"/><path class="cls-5" d="M491.41,151.75c-5.44,1.11-16.2-29.64-31.32-35.43s38.24-32.79,49.63-18S499.52,150.09,491.41,151.75Z"/><path class="cls-5" d="M170.62,105.92c5.12,2.16,21.7-25.89,37.67-28.59S177.23,37.67,163.15,50,163,102.7,170.62,105.92Z"/><circle cx="208.35" cy="258.57" r="21" transform="translate(-82.67 98.64) rotate(-22.35)"/><path class="cls-3" d="M221.08,249.08a3.62,3.62,0,1,1-3.62-3.61A3.62,3.62,0,0,1,221.08,249.08Z"/><circle cx="395.57" cy="282.29" r="21" transform="translate(-83.75 362.39) rotate(-45)"/><path class="cls-3" d="M408.31,272.8a3.62,3.62,0,1,1-3.62-3.62A3.62,3.62,0,0,1,408.31,272.8Z"/><path d="M545.94,344a4.42,4.42,0,0,1-1.9-.43c-37.08-17.36-92.2-12.13-92.75-12.08a4.5,4.5,0,1,1-.89-9c2.35-.23,58.11-5.53,97.45,12.89a4.5,4.5,0,0,1-1.91,8.58Z"/><path d="M541.48,376.93a4.49,4.49,0,0,1-2.33-.65c-35-21.22-90.38-21.9-90.93-21.9a4.5,4.5,0,0,1,0-9h0c2.36,0,58.37.69,95.52,23.2a4.5,4.5,0,0,1-2.33,8.35Z"/><path d="M531.48,411.65a4.48,4.48,0,0,1-2.76-.95c-32.27-25.19-87.17-32.4-87.72-32.47a4.5,4.5,0,0,1,1.13-8.93c2.35.3,57.88,7.57,92.13,34.31a4.5,4.5,0,0,1-2.78,8Z"/><path class="cls-3" d="M227.13,405.73s-20-30.38-23.54-68.61-6.73-35.39-12-39.64-.7-15.22-22.29-15.93c0,0-15.93-12.38-30.09,3.19,0,0-13.8-2.12-19.46,14.86,0,0-14.52,5.67-6.37,36.46s3.53,54.15,15.92,94.15a53.17,53.17,0,0,0-10.48,44.59"/><path d="M118.77,479.31a4.5,4.5,0,0,1-4.39-3.56,57.74,57.74,0,0,1,9.89-46.5c-6.51-21.78-8.06-38.43-9.55-54.54-1.16-12.53-2.26-24.37-5.74-37.5-7.28-27.54,2.52-37.62,7-40.67,5-13,15-16.37,21.35-16.42,12.31-12,26.46-7.69,33.42-3,15.65.86,19.43,7.22,21.93,13.7a8.47,8.47,0,0,0,1.64,3.15c.49.39,1,.74,1.54,1.1,6,4,9,7.45,12.16,41.64,3.4,36.68,22.62,66.26,22.82,66.55a4.5,4.5,0,0,1-7.52,4.95c-.84-1.28-20.66-31.78-24.26-70.67-2.91-31.45-5.37-33.09-8.21-35-.64-.43-1.36-.91-2.16-1.55-2.5-2-3.51-4.62-4.41-6.93-1.57-4.08-2.94-7.61-15.22-8a4.52,4.52,0,0,1-2.62-.94c-1.28-1-13.07-9.36-24,2.66a4.5,4.5,0,0,1-4,1.42c-1-.13-10.26-.94-14.52,11.84a4,4,0,0,1-2.56,2.74c-.8.43-10.33,6.17-3.72,31.14,3.66,13.86,4.79,26,6,39,1.51,16.21,3.06,33,9.88,55a4.48,4.48,0,0,1-1,4.34,48.28,48.28,0,0,0-9.42,40.64,4.5,4.5,0,0,1-3.46,5.34A4.4,4.4,0,0,1,118.77,479.31Z"/><ellipse class="cls-5" cx="183.65" cy="321.09" rx="6.72" ry="9.2"/><ellipse class="cls-5" cx="168.2" cy="305.56" rx="6.72" ry="9.2"/><ellipse class="cls-5" cx="144.49" cy="305.56" rx="6.72" ry="9.2"/><ellipse class="cls-5" cx="128.97" cy="321.09" rx="6.72" ry="9.2"/><path class="cls-5" d="M135.69,341.79c0,8.9,9.51,10.8,21.24,10.8s21.24-1.9,21.24-10.8-9.51-16.1-21.24-16.1S135.69,332.9,135.69,341.79Z"/><path class="cls-5" d="M270.92,314.77s-6.08,26.58,19.8,31.81,33.19-22.08,33.19-22.08S286.78,307.5,270.92,314.77Z"/><path d="M297.08,351.74h0a36.67,36.67,0,0,1-7.25-.75c-8.72-1.76-15.23-5.88-19.33-12.24-7.07-10.94-4.1-24.41-4-25a4.52,4.52,0,0,1,2.51-3.09A28.74,28.74,0,0,1,281,308.46c18.51,0,43.75,11.46,44.82,11.94a4.51,4.51,0,0,1,2.47,5.26C325.84,334.68,316.22,351.74,297.08,351.74ZM275,318.11c-.35,3.51-.44,10.33,3.13,15.81,2.74,4.21,7.29,7,13.52,8.25a27.87,27.87,0,0,0,5.47.57c12.52,0,18.69-10.14,21.15-15.78-7.52-3.09-24.64-9.5-37.26-9.5A24.62,24.62,0,0,0,275,318.11Z"/><path class="cls-3" d="M260.07,302.13s16.14,27.25,36.66,13c0,0,9.78,16.37,39.38,4.5"/><path d="M316.42,328.46c-10.71,0-17.23-4.29-20.62-7.53a23.46,23.46,0,0,1-16.12,2.28c-14-3.06-23.1-18.15-23.48-18.79a4.5,4.5,0,0,1,7.74-4.59h0c.08.12,7.51,12.39,17.68,14.59,4.22.91,8.33-.07,12.54-3a4.5,4.5,0,0,1,6.43,1.39c.31.47,8.54,12.78,33.85,2.64a4.5,4.5,0,1,1,3.34,8.35C329.31,327.2,322.25,328.46,316.42,328.46Z"/><path class="cls-2" d="M68.1,453.25s-.75,85.3,41.9,172.09H502.8s23.94-66.59,18-172.09Z"/><path d="M502.8,629.84H110a4.49,4.49,0,0,1-4-2.52C63.33,540.58,63.59,454.08,63.6,453.21a4.5,4.5,0,0,1,4.5-4.46H520.76a4.51,4.51,0,0,1,4.49,4.25c6,105.2-17.22,171.11-18.22,173.86A4.49,4.49,0,0,1,502.8,629.84Zm-390-9H499.54c4.33-13.79,21.34-74.45,16.95-163.09H72.68C73.25,476.09,77.75,548.06,112.81,620.84Z"/><path class="cls-3" d="M399.13,449.44,393,452s-21,14-34.65-2.8.28-53.65,37.16-56.72,58.12,11.58,61.48,56.28"/><path d="M375.42,462a25.6,25.6,0,0,1-20.57-9.89c-7.07-8.66-8.15-21.87-2.81-34.45,7.17-16.89,23.28-28,43.09-29.61,20.47-1.7,35.68,2,46.53,11.23,11.58,9.88,18.06,26,19.8,49.2a4.5,4.5,0,0,1-9,.67c-1.55-20.71-7-34.78-16.67-43-8.93-7.62-22-10.59-39.94-9.1-16.43,1.37-29.72,10.4-35.56,24.16-4,9.5-3.45,19.17,1.5,25.24,11,13.44,27.95,2.37,28.67,1.89a4.66,4.66,0,0,1,.76-.41l6.15-2.56a4.5,4.5,0,1,1,3.46,8.31L395.1,456A38.11,38.11,0,0,1,375.42,462Z"/><path class="cls-3" d="M378.46,436.08s-1.4,22.91,17.88,22.35S415.9,442.51,416.18,440"/><path d="M395.64,462.94c-6.06,0-11-2-14.79-5.84-7.61-7.86-6.92-20.75-6.89-21.3a4.5,4.5,0,0,1,9,.54c0,.18-.44,9.56,4.39,14.52,2.13,2.18,5,3.19,8.87,3.08,12.79-.38,14.94-8.08,15.44-13.84,0-.24,0-.45.06-.61a4.5,4.5,0,1,1,8.94,1l0,.39c-1.63,18.63-15.83,21.81-24.15,22.05Z"/><path class="cls-3" d="M440.44,438.62s-.65,21.21-21.85,18.7c-16.47-2-12.07-24.57-12.07-24.57"/><path d="M422,462a33.4,33.4,0,0,1-3.93-.24,17.22,17.22,0,0,1-12.27-6.9c-6.26-8.59-4-21.54-3.68-23a4.5,4.5,0,1,1,8.83,1.72c-.55,2.88-1.23,11.38,2.14,16a8.14,8.14,0,0,0,6,3.26c4.94.58,8.85-.31,11.62-2.67,4.85-4.14,5.2-11.65,5.21-11.72a4.5,4.5,0,0,1,9,.3c0,.46-.44,11.44-8.29,18.2A21.72,21.72,0,0,1,422,462Z"/><path d="M318.73,295.48c-.41,3.95-10.32,14.06-21.11,12.92s-18.38-13.07-18-17,9.7-8.2,20.49-7.06S319.15,291.52,318.73,295.48Z"/></svg>