<svg id="Layer_1" data-name="Layer 1" xmlns="http://www.w3.org/2000/svg" viewBox="0 0 329.12 419.84"><defs><style>.cls-1{opacity:0.4;}.cls-2{fill:#ffa356;}.cls-3{fill:#fff;}.cls-4{opacity:0.5;}.cls-5{fill:#e26d1e;}.cls-6{fill:#ffccd8;}.cls-7{fill:#f78c8b;}.cls-8{fill:#ccc;}</style></defs><ellipse class="cls-1" cx="174.77" cy="403.6" rx="154.35" ry="16.24"/><path class="cls-2" d="M167.47,336.72s-60.94,22.68-128.28-30.1S-6.94,416.15,165.8,354.51Z"/><path d="M147.05,364.35h0c-51.06,14.16-84.73,6.9-104-1.68-21.2-9.45-36.78-25.61-41.67-43.24-3.68-13.28.26-24,9.81-26.63,5.52-1.53,15.25-.88,30.3,10.92,56.17,44,107.29,34.47,121.62,30.5,2-.56,3.09-1,3.1-1a3.68,3.68,0,0,1,3.53.54,3.72,3.72,0,0,1,1.43,3.27l-1.67,17.78a3.7,3.7,0,0,1-2.43,3.14C160.28,360.4,153.55,362.54,147.05,364.35ZM13.14,299.92C7,301.62,6.4,310,8.48,317.45c7.73,27.88,51.65,63.34,136.57,39.78h0c5.63-1.56,11.43-3.38,17.28-5.42l.93-10C146,346.2,93.7,354,36.91,309.53,27.21,301.92,18.55,298.42,13.14,299.92Z"/><path class="cls-3" d="M78.93,376.79s-27.25,9.4-8,22.56,86,9.86,80.34-19.74"/><path d="M104.91,410.85c-14.65,0-28.72-2.91-36.3-8.09-6.39-4.36-9.28-9.16-8.6-14.26,1.29-9.54,14.87-14.68,17.57-15.62a4.14,4.14,0,0,1,2.71,7.82h0c-4.61,1.6-11.63,5.54-12.07,8.9-.23,1.67,1.62,4,5.06,6.33,12.81,8.74,50.24,9.51,66.89-1.4,5.83-3.82,8.14-8.44,7.05-14.14a4.14,4.14,0,0,1,8.13-1.55c1.73,9.1-1.95,16.92-10.65,22.62C134.82,407.93,119.58,410.85,104.91,410.85Z"/><path class="cls-3" d="M263.84,376.79s27.25,9.4,8,22.56-86,9.86-80.34-19.74"/><path d="M237.87,410.85c-14.67,0-29.92-2.92-39.8-9.39-8.7-5.7-12.38-13.52-10.64-22.62a4.13,4.13,0,1,1,8.12,1.55c-1.08,5.7,1.22,10.32,7,14.14,16.66,10.91,54.09,10.15,66.9,1.4,3.44-2.35,5.28-4.66,5.06-6.33-.44-3.24-7.29-7.25-12.07-8.89a4.14,4.14,0,0,1,2.7-7.83c2.71.94,16.29,6.08,17.57,15.62.69,5.1-2.21,9.9-8.6,14.26C266.58,407.94,252.51,410.85,237.87,410.85Z"/><path class="cls-2" d="M86.85,195.87c-12.6,45.93-48.33,192.67,9.52,192.67l75-1.41,75,1.41c57.86,0,22.12-146.74,9.52-192.67"/><path class="cls-3" d="M257.19,323.5c0,59.71-38.41,66.16-85.8,66.16s-85.81-6.45-85.81-66.16S124,201.58,171.39,201.58,257.19,263.78,257.19,323.5Z"/><path d="M246.4,392.68l-75-1.41-74.94,1.41c-10.22,0-18.41-4-24.41-11.86-26.7-35-1.32-141.77,10.82-186a4.14,4.14,0,0,1,8,2.19c-9.22,33.62-37.36,145.87-12.22,178.85,4.42,5.78,10.22,8.59,17.75,8.59L171.31,383h.15l75,1.41c7.45,0,13.26-2.81,17.67-8.59,25.15-33-3-145.23-12.22-178.85a4.14,4.14,0,0,1,8-2.19c12.15,44.28,37.52,151,10.82,186C264.73,388.69,256.55,392.68,246.4,392.68Z"/><path class="cls-2" d="M315.06,6.89c-64.25-11.84-90,12.43-92.89,20.24a129.77,129.77,0,0,0-101.57,0C117.73,19.32,91.21-1.42,27.71,6.89c0,0-4.09,90.84,18.83,109.1a123.74,123.74,0,0,0-2.82,26.28c0,69.3,57.16,101.3,127.67,101.3s127.67-32,127.67-101.3A123.74,123.74,0,0,0,296.23,116C319.16,97.73,315.06,6.89,315.06,6.89Z"/><g class="cls-4"><path class="cls-5" d="M187.26,24.52c0-2.31-.09-4.55-.22-6.76a125.45,125.45,0,0,0-31.3,0c-.14,2.21-.23,4.45-.23,6.76,0,23.21,7.11,42,15.88,42S187.26,47.73,187.26,24.52Z"/></g><g class="cls-4"><path class="cls-5" d="M202.84,54.53c6.22,1,13.43-10.93,17.76-28a128.58,128.58,0,0,0-25.92-7.58C192.94,38.21,196.21,53.5,202.84,54.53Z"/></g><path class="cls-3" d="M298.77,150.13c-28.44,21.28-77.09,37.54-127.38-37.1C121.1,187.67,72.44,171.41,44,150.13c4.19,63.85,59.61,93.44,127.39,93.44S294.58,214,298.77,150.13Z"/><g class="cls-4"><path class="cls-5" d="M139.91,54.53c6.63-1,9.9-16.31,8.16-35.61a128.51,128.51,0,0,0-25.91,7.59C126.49,43.6,133.7,55.49,139.91,54.53Z"/></g><path d="M171.39,247.26c-37.47,0-69.44-8.77-92.44-25.36C53.48,203.54,40,176,40,142.27a127.67,127.67,0,0,1,2.47-24.94c-9.33-9.21-15.27-30.2-17.64-62.47A462.31,462.31,0,0,1,24,6.73a3.7,3.7,0,0,1,3.21-3.5,221.24,221.24,0,0,1,28.49-2c24.36,0,40.28,4.87,49.35,9,8.83,4,14.29,8.52,17.09,12.27a133.56,133.56,0,0,1,98.39,0c6.3-9,25.85-22.47,61.9-22.47a185.19,185.19,0,0,1,33.28,3.26,3.7,3.7,0,0,1,3,3.47,463.89,463.89,0,0,1-.82,48.13c-2.38,32.27-8.31,53.26-17.65,62.47a127.67,127.67,0,0,1,2.47,24.94c0,33.73-13.46,61.27-38.93,79.63C240.82,238.49,208.86,247.26,171.39,247.26ZM31.28,10.17c-.89,26.84.66,89.47,17.56,102.94a3.68,3.68,0,0,1,1.31,3.67,120.42,120.42,0,0,0-2.74,25.49c0,61.12,46.35,97.6,124,97.6s124-36.48,124-97.6a120.42,120.42,0,0,0-2.74-25.49,3.7,3.7,0,0,1,1.31-3.67c16.94-13.5,18.46-76.35,17.56-103.1a174.38,174.38,0,0,0-29-2.62c-37.45,0-54.75,15.4-56.81,21a3.69,3.69,0,0,1-2,2.12,3.75,3.75,0,0,1-2.92,0,126.12,126.12,0,0,0-98.67,0,3.71,3.71,0,0,1-4.92-2.13c-.57-1.54-4.39-6.62-15.09-11.44-8.41-3.79-23.28-8.31-46.32-8.31A208.72,208.72,0,0,0,31.28,10.17Z"/><path class="cls-6" d="M280.47,87S245.33,64.94,241.11,43.9s42.28-27.55,54.15-19S298.74,97.53,280.47,87Z"/><path class="cls-6" d="M62.31,87S97.45,64.94,101.67,43.9s-42.29-27.55-54.15-19S44,97.53,62.31,87Z"/><path d="M185.5,157.61c0,2.86-6.32,10.82-14.11,10.82s-14.11-8-14.11-10.82,6.31-6.59,14.11-6.59S185.5,154.75,185.5,157.61Z"/><path d="M181,186h-.16c-3.45-.05-6.6-1.69-9.4-4.89-2.81,3.2-6,4.84-9.4,4.89h-.16c-7.82,0-13.17-8.42-13.76-9.39a3.69,3.69,0,1,1,6.31-3.84c.94,1.52,4.31,5.84,7.45,5.84h.06c2.52,0,4.81-3.15,6.29-5.74a3.69,3.69,0,0,1,6.42,0c1.48,2.6,3.77,5.71,6.3,5.74,3.22.06,6.73-4.59,7.49-5.84a3.69,3.69,0,1,1,6.31,3.84C194.11,177.58,188.77,186,181,186Z"/><path class="cls-3" d="M104.79,375.11s58.14,39.58,133.2,0"/><path d="M104.79,375.11l1.45.63c.94.42,2.34,1,4.11,1.67s3.94,1.46,6.43,2.32,5.32,1.69,8.41,2.58,6.46,1.7,10,2.5,7.36,1.49,11.3,2c2,.31,4,.51,6,.77,1,.14,2,.19,3.06.28s2.05.22,3.09.27c2.08.11,4.17.27,6.27.3l3.15.09,3.16,0c2.11,0,4.22-.08,6.32-.17s4.19-.29,6.26-.43c1-.05,2.07-.19,3.09-.31l3.06-.34c2-.22,4-.61,6-.86,3.91-.66,7.71-1.35,11.28-2.2l2.65-.58,2.55-.67c1.67-.44,3.31-.81,4.86-1.27l4.44-1.29c1.44-.37,2.77-.82,4-1.23,2.49-.86,4.74-1.46,6.51-2.14s3.24-1.11,4.21-1.44l1.51-.49-1.29.91c-.86.57-2.09,1.46-3.71,2.5s-3.63,2.25-6,3.57-5.07,2.66-8.06,4.12c-1.5.72-3.13,1.32-4.78,2l-2.54,1-2.67.94a116.28,116.28,0,0,1-37.64,6.59H168l-3.35-.14c-2.24,0-4.45-.33-6.65-.51A109,109,0,0,1,145.18,394a111.82,111.82,0,0,1-11.63-3.26c-3.62-1.26-7-2.6-10-4s-5.74-2.82-8.07-4.19-4.31-2.64-5.9-3.74-2.77-2.06-3.58-2.7S104.79,375.11,104.79,375.11Z"/><path class="cls-7" d="M243.83,84.39c-30,0-44.38,3.11-50.9,10.26H152.06c-6.52-7.15-20.86-10.26-50.9-10.26-49.12,0-56.94,16.34-54.3,40.76,2.54,23.44,20.66,46.56,54.3,46.56,31.06,0,53.33-22.58,55.27-47.53.11-1.46.21-2.87.31-4.24h31.51c.1,1.37.2,2.78.31,4.24,1.94,24.95,24.21,47.53,55.27,47.53,33.64,0,51.76-23.12,54.3-46.56C300.77,100.73,293,84.39,243.83,84.39Z"/><path d="M243.83,175.85a61.34,61.34,0,0,1-41.33-15.48,54,54,0,0,1-18.06-35.87l0-.42H160.58l0,.42a54.09,54.09,0,0,1-18.06,35.87,61.34,61.34,0,0,1-41.33,15.48c-36.59,0-55.7-25.24-58.41-50.26-1-9.61-1.17-21.83,7.13-31.08,8.73-9.72,25-14.25,51.28-14.25,29.47,0,44.61,2.9,52.61,10.26h37.44c8-7.36,23.15-10.26,52.62-10.26,26.26,0,42.55,4.53,51.28,14.25,8.3,9.25,8.17,21.47,7.13,31.08C299.53,150.61,280.42,175.85,243.83,175.85Zm-87.09-60h31.51a4.13,4.13,0,0,1,4.13,3.86c.09,1.35.2,2.75.31,4.19,1.67,21.49,21.25,43.71,51.14,43.71,31.46,0,47.87-21.53,50.18-42.87,1.27-11.74-.28-19.35-5.05-24.66-7-7.75-21.72-11.51-45.13-11.51-27.84,0-42.15,2.67-47.85,8.91a4.12,4.12,0,0,1-3,1.35H152.06A4.12,4.12,0,0,1,149,97.44c-5.7-6.24-20-8.91-47.85-8.91C77.75,88.53,63,92.29,56,100,51.26,105.35,49.7,113,51,124.7c2.31,21.34,18.72,42.87,50.18,42.87,29.89,0,49.47-22.22,51.14-43.71.11-1.44.22-2.84.31-4.19A4.13,4.13,0,0,1,156.74,115.81Z"/><path d="M140.42,125.31c-1.37,17.65-17.13,33.62-39.09,33.62-23.79,0-36.61-16.35-38.41-32.93-1.87-17.27,3.66-28.83,38.41-28.83C141.55,97.17,142,105.05,140.42,125.31Z"/><path d="M101.33,162.29c-26.15,0-39.81-18-41.75-35.93-.75-6.89-.83-15.65,5.15-22.32,6.26-7,17.89-10.23,36.6-10.23,22.13,0,32.9,2.32,38.41,8.27s4.73,14.41,4,23.49C142.37,143.62,126.11,162.29,101.33,162.29Zm0-61.76c-16.43,0-26.77,2.62-31.59,8-3.29,3.66-4.36,8.93-3.47,17.1,1.61,14.9,13.08,29.94,35.06,29.94,20.88,0,34.57-15.52,35.73-30.52.71-9.16.92-15-2.25-18.4C130.89,102.42,120.57,100.53,101.33,100.53Z"/><path class="cls-8" d="M82.53,154.77a37.66,37.66,0,0,0,7.19,2.7l14.43-60.28-2.82,0c-1.76,0-3.42,0-5,.1Z"/><path class="cls-8" d="M92.89,158.19a46.44,46.44,0,0,0,7.66.72L115.22,97.6q-3.54-.25-7.75-.35Z"/><path d="M204.5,125.31C205.87,143,221.66,159,243.66,159c23.84,0,36.68-16.39,38.48-33,1.87-17.3-3.67-28.88-38.48-28.88C203.37,97.11,202.93,105,204.5,125.31Z"/><path d="M243.66,162.35c-24.82,0-41.11-18.7-42.51-36.78-.71-9.1-1.37-17.69,4-23.53s16.31-8.29,38.48-8.29c18.74,0,30.39,3.26,36.66,10.25,6,6.68,5.91,15.45,5.16,22.36C283.54,144.27,269.86,162.35,243.66,162.35Zm0-61.87c-19.27,0-29.62,1.89-33.54,6.12-3.18,3.44-3,9.26-2.27,18.45,1.17,15,14.88,30.57,35.81,30.57,22,0,33.52-15.06,35.13-30,.89-8.19-.18-13.47-3.47-17.14C270.48,103.1,260.12,100.48,243.66,100.48Z"/><path class="cls-8" d="M226,155.14a40.33,40.33,0,0,0,7.22,2.56l14.48-60.52c-1.29,0-2.61-.07-4-.07s-2.59,0-3.82,0Z"/><path class="cls-8" d="M251,97.31l-14.61,61.06a43.31,43.31,0,0,0,7.3.62H244l14.58-60.93C256.29,97.71,253.74,97.47,251,97.31Z"/><path class="cls-2" d="M149.6,216.23s-63.07-36.77-85.19-1.49,36.51,78.25,140.52,37C204.93,251.77,164.85,215.34,149.6,216.23Z"/><path class="cls-3" d="M138.35,268.16c19.25-1.46,41.6-6.49,66.58-16.39,0,0-40.08-36.43-55.33-35.54,0,0-19.42-11.31-40.49-15.37C123.23,216.45,145.23,245.4,138.35,268.16Z"/><path d="M126.54,272.76h0c-32.21,0-57.25-10.49-67-28.06-5.69-10.29-5.21-21.71,1.34-32.16,7.17-11.44,18.74-17.24,34.39-17.24,23.91,0,49.92,13.74,55.39,16.79,17,.65,52.95,32.91,57,36.62a4.14,4.14,0,0,1-1.26,6.91C177.74,267,150.85,272.76,126.54,272.76ZM95.29,203.58c-12.79,0-21.74,4.37-27.38,13.36-4.95,7.9-5.34,16.11-1.11,23.75,6.36,11.51,25.4,23.8,59.73,23.8h0c21.49,0,45.19-4.75,70.54-14.14-15.17-13.11-37.77-30-46.91-30h-.33a4.1,4.1,0,0,1-2.32-.55C147.24,219.65,119.35,203.58,95.29,203.58Z"/><path class="cls-2" d="M149.6,216.23s71.15,57.4,108.21,46.93S300,214.74,260.5,197.1,175.61,187.83,149.6,216.23Z"/><path class="cls-3" d="M149.6,216.23a361,361,0,0,0,38.75,26.54c9-21.85,38.67-40.74,57.55-51C210.29,181.8,172.45,191.28,149.6,216.23Z"/><path d="M247.88,268.58h0c-39.52,0-98.38-47.12-100.87-49.13a4.15,4.15,0,0,1-.45-6c17.28-18.87,43.16-29.69,71-29.69a110.36,110.36,0,0,1,44.64,9.57c19.82,8.86,31,23.72,29.8,39.75-1.14,15.59-13.8,28.64-33.05,34.08A40.78,40.78,0,0,1,247.88,268.58ZM155.79,215.8c13.32,10.15,60.73,44.5,92.08,44.5h0a32.27,32.27,0,0,0,8.81-1.12c15.81-4.46,26.17-14.69,27-26.71.91-12.4-8.41-24.21-24.91-31.59A101.88,101.88,0,0,0,217.55,192C193.67,192,171.43,200.64,155.79,215.8Z"/><path d="M20.89,169.74a3.33,3.33,0,0,1-.89-6.53c12.62-3.49,32.51-3.6,33.35-3.6h0a3.33,3.33,0,0,1,0,6.65c-.2,0-19.85.1-31.6,3.36A3.46,3.46,0,0,1,20.89,169.74Z"/><path d="M24.6,183.71a3.32,3.32,0,0,1-1.31-6.38c12-5.15,31.73-7.93,32.56-8.05a3.33,3.33,0,1,1,.91,6.59c-.19,0-19.64,2.77-30.86,7.57A3.16,3.16,0,0,1,24.6,183.71Z"/><path d="M30.27,201.09a3.32,3.32,0,0,1-2.09-5.91C38.37,187,56.58,179,57.35,178.61A3.32,3.32,0,0,1,60,184.7c-.18.08-18.16,8-27.65,15.65A3.32,3.32,0,0,1,30.27,201.09Z"/><path d="M321.9,169.74a3.32,3.32,0,0,0,.88-6.53c-12.62-3.49-32.51-3.6-33.35-3.6h0a3.33,3.33,0,0,0,0,6.65c.2,0,19.84.1,31.6,3.36A3.35,3.35,0,0,0,321.9,169.74Z"/><path d="M318.19,183.71a3.32,3.32,0,0,0,1.31-6.38c-12-5.15-31.73-7.93-32.57-8.05a3.33,3.33,0,1,0-.91,6.59c.19,0,19.65,2.77,30.86,7.57A3.2,3.2,0,0,0,318.19,183.71Z"/><path d="M312.51,201.09a3.32,3.32,0,0,0,2.09-5.91C304.41,187,286.21,179,285.44,178.61a3.32,3.32,0,1,0-2.67,6.09c.18.08,18.17,8,27.66,15.65A3.27,3.27,0,0,0,312.51,201.09Z"/></svg>