<svg xmlns="http://www.w3.org/2000/svg" viewBox="0 0 650 650"><defs><style>.cls-1{isolation:isolate;}.cls-2{fill:#aeecff;}.cls-3{mix-blend-mode:multiply;}.cls-4{fill:#9adeff;}.cls-5{fill:#009dff;}</style></defs><g class="cls-1"><g id="Layer_1" data-name="Layer 1"><rect class="cls-2" width="650" height="650" rx="325"/><g class="cls-3"><path class="cls-4" d="M579.3,397.69c-28.78-34.45-67.55-48.27-118-41.92-6.51-38.95-28.27-128-96.37-194-90.68-87.85-223-44.17-228.62-42.25a18,18,0,0,0-11.24,11.25c-1.91,5.59-45.59,137.94,42.24,228.63,65.38,67.48,153.46,89.45,192.93,96.18-11,63.13,16.63,96.18,43,118.19a18,18,0,0,0,21.33,1.31c2.39-1.55,53.22-35.2,54.85-100.83,67-.31,100-53.18,101.49-55.67A18,18,0,0,0,579.3,397.69ZM156.68,151.18c23.23-5.88,88.23-18.2,145.42,9.95-5.35,27.06-17.54,60.71-45.05,88.23C228.89,277.51,194,289.73,165.91,295,138.77,238.17,150.84,174.16,156.68,151.18ZM466.41,437.26l-24.79-18a12.06,12.06,0,0,0-16.84,16.84l17.87,24.65c3.78,37.78-14.83,63.07-27.32,75.36-16.87-17.33-29.31-42.24-15.85-90.93a18,18,0,0,0-15.89-22.76c-1.15-.09-115.14-10.39-190.42-88.1a149.22,149.22,0,0,1-11.34-13.28c30.38-7.09,65.92-21.66,95.59-51.33,28.88-28.87,43.38-63.08,50.61-92.33a147.37,147.37,0,0,1,11.82,10.27C417.56,263,427.86,377,428,378.09a18,18,0,0,0,7.19,13,17.8,17.8,0,0,0,14.47,3.18c49.09-10.28,75.38,1.2,92,16.12C529.64,423,504.54,441.89,466.41,437.26Z"/><circle class="cls-4" cx="237.87" cy="192.09" r="26.9"/><path class="cls-4" d="M351.6,220.37a3.07,3.07,0,0,0-5.28,2c-.53,9.93-4.61,26.82-26.29,27.17a3.07,3.07,0,0,0-2.07,5.3c8.74,8.14,26.15,20.44,40.44,6.15C372.92,246.44,359.82,228.86,351.6,220.37Z"/><path class="cls-4" d="M325,317c17.7-17.69,1.73-39.1-8.28-49.46a3.75,3.75,0,0,0-6.44,2.41c-.63,12.09-5.61,32.68-32,33.1a3.74,3.74,0,0,0-2.52,6.46C286.33,319.43,307.55,334.42,325,317Z"/><path class="cls-4" d="M383.05,345.64c-.58,11-5.11,29.79-29.21,30.18a3.42,3.42,0,0,0-2.3,5.89c9.71,9.05,29,22.71,44.93,6.83,16.14-16.13,1.58-35.66-7.55-45.1A3.41,3.41,0,0,0,383.05,345.64Z"/><path class="cls-4" d="M388,326c16.14-16.14,1.58-35.66-7.55-45.1a3.41,3.41,0,0,0-5.87,2.19c-.58,11-5.12,29.8-29.21,30.18a3.42,3.42,0,0,0-2.3,5.9C352.73,328.19,372.07,341.86,388,326Z"/><path class="cls-4" d="M318.32,339.28c-.58,11-5.11,29.79-29.21,30.18a3.41,3.41,0,0,0-2.29,5.89c9.7,9,29,22.71,44.92,6.83,16.14-16.13,1.58-35.66-7.55-45.1A3.41,3.41,0,0,0,318.32,339.28Z"/><path class="cls-4" d="M256.78,311.88c-.52,9.92-4.6,26.82-26.29,27.16a3.07,3.07,0,0,0-2.06,5.31c8.73,8.14,26.14,20.44,40.43,6.14,14.52-14.52,1.42-32.09-6.8-40.59A3.07,3.07,0,0,0,256.78,311.88Z"/></g><g class="cls-3"><path class="cls-5" d="M579.3,398.69c-28.78-34.45-67.55-48.27-118-41.92-6.51-38.95-28.27-128-96.37-194-90.68-87.85-223-44.17-228.62-42.25a18,18,0,0,0-11.24,11.25c-1.91,5.59-45.59,137.94,42.24,228.63,65.38,67.48,153.46,89.45,192.93,96.18-11,63.13,16.63,96.18,43,118.19a18,18,0,0,0,21.33,1.31c2.39-1.55,53.22-35.2,54.85-100.83,67-.31,100-53.18,101.49-55.67A18,18,0,0,0,579.3,398.69ZM156.68,152.18c23.23-5.88,88.23-18.2,145.42,9.95-5.35,27.06-17.54,60.71-45.05,88.23C228.89,278.51,194,290.73,165.91,296,138.77,239.17,150.84,175.16,156.68,152.18ZM466.41,438.26l-24.79-18a12.06,12.06,0,0,0-16.84,16.84l17.87,24.65c3.78,37.78-14.83,63.07-27.32,75.36-16.87-17.33-29.31-42.24-15.85-90.93a18,18,0,0,0-15.89-22.76c-1.15-.09-115.14-10.39-190.42-88.1a149.22,149.22,0,0,1-11.34-13.28c30.38-7.09,65.92-21.66,95.59-51.33,28.88-28.87,43.38-63.08,50.61-92.33a147.37,147.37,0,0,1,11.82,10.27C417.56,264,427.86,378,428,379.09a18,18,0,0,0,7.19,13,17.8,17.8,0,0,0,14.47,3.18c49.09-10.28,75.38,1.2,92,16.12C529.64,424,504.54,442.89,466.41,438.26Z"/><circle class="cls-5" cx="237.87" cy="193.09" r="26.9"/><path class="cls-5" d="M351.6,221.37a3.07,3.07,0,0,0-5.28,2c-.53,9.93-4.61,26.82-26.29,27.17a3.07,3.07,0,0,0-2.07,5.3c8.74,8.14,26.15,20.44,40.44,6.15C372.92,247.44,359.82,229.86,351.6,221.37Z"/><path class="cls-5" d="M325,318c17.7-17.69,1.73-39.1-8.28-49.46a3.75,3.75,0,0,0-6.44,2.41c-.63,12.09-5.61,32.68-32,33.1a3.74,3.74,0,0,0-2.52,6.46C286.33,320.43,307.55,335.42,325,318Z"/><path class="cls-5" d="M383.05,346.64c-.58,11-5.11,29.79-29.21,30.18a3.42,3.42,0,0,0-2.3,5.89c9.71,9.05,29,22.71,44.93,6.83,16.14-16.13,1.58-35.66-7.55-45.1A3.41,3.41,0,0,0,383.05,346.64Z"/><path class="cls-5" d="M388,327c16.14-16.14,1.58-35.66-7.55-45.1a3.41,3.41,0,0,0-5.87,2.19c-.58,11-5.12,29.8-29.21,30.18a3.42,3.42,0,0,0-2.3,5.9C352.73,329.19,372.07,342.86,388,327Z"/><path class="cls-5" d="M318.32,340.28c-.58,11-5.11,29.79-29.21,30.18a3.41,3.41,0,0,0-2.29,5.89c9.7,9,29,22.71,44.92,6.83,16.14-16.13,1.58-35.66-7.55-45.1A3.41,3.41,0,0,0,318.32,340.28Z"/><path class="cls-5" d="M256.78,312.88c-.52,9.92-4.6,26.82-26.29,27.16a3.07,3.07,0,0,0-2.06,5.31c8.73,8.14,26.14,20.44,40.43,6.14,14.52-14.52,1.42-32.09-6.8-40.59A3.07,3.07,0,0,0,256.78,312.88Z"/></g></g></g></svg>