<?xml version="1.0" encoding="utf-8"?>
<!-- Generator: Adobe Illustrator 25.0.0, SVG Export Plug-In . SVG Version: 6.00 Build 0)  -->
<svg version="1.1" id="Layer_1" xmlns="http://www.w3.org/2000/svg" xmlns:xlink="http://www.w3.org/1999/xlink" x="0px" y="0px"
	 viewBox="0 0 355.21 384.48" style="enable-background:new 0 0 355.21 384.48;" xml:space="preserve">
<style type="text/css">
	.st0{opacity:0.4;}
	.st1{fill:#B3B3B3;}
	.st2{fill:#FFFFFF;}
	.st3{fill:#F78C8B;}
	.st4{fill:#683A32;}
	.st5{fill:#FAAF5E;}
	.st6{fill:#333333;}
	.st7{fill:#976934;}
	.st8{fill:#FBDA98;}
	.st9{fill:#999999;}
	.st10{fill:#4D4D4D;}
	.st11{fill:#CCCCCC;}
</style>
<g>
	<ellipse class="st0" cx="145.26" cy="365.27" rx="107.63" ry="19.2"/>
	<g>
		<path class="st9" d="M222.66,305.99c0,0,40.88,10.24,71.15-14.09c30.27-24.34,22.26-69.51,10.85-88.19
			c-11.41-18.69-10.3-33.14,0.49-40.29c10.79-7.15,27.31-2.71,41.2,30.17s10.98,93.25-35.96,115.85c-46.95,22.6-92.5,11.9-92.5,11.9
			L222.66,305.99z"/>
		<path class="st10" d="M297.88,188.42c0,0,25.7-4.42,22.89,0c-2.81,4.42-19.68,7.63-19.68,7.63L297.88,188.42z"/>
		<path class="st10" d="M347.34,196.05c0,0-31.4,2.41-30.6,7.63s32.33,2.86,32.33,2.86L347.34,196.05z"/>
		<path class="st10" d="M312.73,225.17c0,0,8.46-3.61,8.25,0c-0.21,3.61-7.24,4.25-7.24,4.25L312.73,225.17z"/>
		<path class="st10" d="M353.51,237.14c0,0-34.35-8.91-33.95,0c0.4,8.91,33.37,7.21,33.37,7.21L353.51,237.14z"/>
		<path class="st10" d="M349.08,263.32c0,0-27.92-10.65-29.52-5.83c-1.6,4.82,25.96,11.46,25.96,11.46L349.08,263.32z"/>
		<path class="st10" d="M308.75,273.01l18.44,1.75c0,0-13.53,4.65-22.23,4.94L308.75,273.01z"/>
		<path class="st10" d="M327.6,297.9c0,0-18.48-9.97-20.49-5.51c-2.01,4.46,8.95,14.01,8.95,14.01L327.6,297.9z"/>
		<path class="st10" d="M280.29,300.36c0,0,3.47,8.13,5.51,8.53c2.04,0.4-0.79-10.99-0.79-10.99L280.29,300.36z"/>
		<path d="M245.14,325.38c-16.45,0-27.14-2.46-27.59-2.57c-0.41-0.1-0.76-0.36-0.96-0.72c-0.21-0.36-0.25-0.8-0.13-1.19l4.76-15.35
			c0.24-0.76,1.03-1.2,1.8-1.01c0.08,0.02,8.53,2.09,20.34,2.09c13.56,0,33.16-2.76,49.51-15.9c16.43-13.21,20.21-31.8,20.49-45.07
			c0.38-17.69-5.14-33.23-9.98-41.16c-11.35-18.59-11-34.42,0.95-42.33c3.19-2.11,6.63-3.18,10.24-3.18
			c7.02,0,20.67,4.42,33.18,34.02c14.74,34.88,10.18,95.23-36.69,117.8C286.02,322.85,261.39,325.38,245.14,325.38z M219.83,320.2
			c3.55,0.67,12.81,2.17,25.31,2.17c15.94,0,40.09-2.48,64.61-14.29c45.19-21.76,49.49-80.13,35.23-113.91
			c-11.83-28-24.12-32.18-30.4-32.18c-3.01,0-5.9,0.9-8.58,2.68c-10.59,7.01-10.6,20.96-0.04,38.25
			c5.05,8.28,10.82,24.45,10.42,42.79c-0.3,13.91-4.29,33.42-21.62,47.36c-17.03,13.69-37.35,16.57-51.39,16.57
			c-9.5,0-16.75-1.27-19.67-1.87L219.83,320.2z"/>
		<path class="st9" d="M145.26,357.6c18.21,0,25.4,7.77,25.4,7.77s27.72,7.29,39.82,5.78c12.1-1.51,17.2-6.44,10.83-15.32
			c0,0,36.3-5.92,39.49-40.44c3.18-34.52-34.27-72.98-115.54-72.98c-81.26,0-118.72,38.46-115.54,72.98
			c3.18,34.52,39.49,40.44,39.49,40.44c-6.37,8.88-1.27,13.81,10.83,15.32c12.1,1.51,39.82-5.78,39.82-5.78
			S127.05,357.6,145.26,357.6z"/>
		<path class="st10" d="M32.85,294.22c0,0,18.26-4.64,19.77,0c1.51,4.64-21.38,6.14-21.38,6.14L32.85,294.22z"/>
		<path class="st10" d="M30.03,311.5c0,0,24.54-8.43,22.66-3.61c-1.88,4.82-22.96,7.51-22.96,7.51L30.03,311.5z"/>
		<path class="st10" d="M254.87,288.21c0,0-24.33-0.05-23.69,3.94c0.64,3.99,25.06,2.59,25.06,2.59L254.87,288.21z"/>
		<path class="st10" d="M260.38,304c0,0-22.54,0.39-21.64,2.89c0.9,2.5,21.64,4.01,21.64,4.01V304z"/>
		<path class="st10" d="M258.04,327.33c0,0-19.6-4.98-22.61-3.78c-3.01,1.2,18.67,11.44,18.67,11.44L258.04,327.33z"/>
		<path class="st10" d="M33.21,329.19c0,0,11.87-1.29,11.87,0s-9.11,5.2-9.11,5.2L33.21,329.19z"/>
		<path d="M206.7,372.87c-13.32,0-35.49-5.79-36.43-6.04c-0.28-0.07-0.53-0.22-0.72-0.43c-0.06-0.07-7.07-7.29-24.29-7.29
			c-17.22,0-24.23,7.22-24.3,7.3c-0.19,0.2-0.45,0.36-0.72,0.43c-0.94,0.25-23.11,6.04-36.43,6.04c0,0,0,0,0,0
			c-1.48,0-2.81-0.07-3.97-0.22c-7.87-0.98-12.69-3.36-14.31-7.07c-1.09-2.5-0.68-5.43,1.21-8.72c-3.33-0.8-9.97-2.78-16.88-7.01
			c-8.94-5.47-19.95-15.86-21.65-34.31c-1.29-14.03,4-28.34,14.91-40.3c20.19-22.13,56.45-34.32,102.12-34.32
			c45.67,0,81.94,12.19,102.12,34.32c10.91,11.96,16.21,26.28,14.91,40.3c-1.7,18.45-12.71,28.84-21.65,34.31
			c-6.91,4.23-13.55,6.21-16.88,7.01c1.9,3.29,2.31,6.22,1.21,8.72c-1.62,3.71-6.44,6.09-14.31,7.07
			C209.51,372.79,208.18,372.87,206.7,372.87z M171.43,364.02c3.04,0.78,23.28,5.84,35.27,5.84c1.35,0,2.56-0.06,3.59-0.19
			c6.65-0.83,10.77-2.66,11.92-5.29c0.84-1.93,0.13-4.5-2.13-7.65c-0.3-0.42-0.37-0.97-0.17-1.45c0.2-0.48,0.63-0.83,1.15-0.91
			c0.09-0.01,8.98-1.52,18.09-7.13c12.09-7.43,18.87-18.18,20.14-31.96c1.21-13.17-3.81-26.67-14.14-38
			c-19.61-21.5-55.08-33.34-99.9-33.34c-44.81,0-80.29,11.84-99.9,33.34c-10.33,11.33-15.35,24.82-14.14,38
			c3.04,32.98,37.88,39.03,38.23,39.09c0.51,0.08,0.95,0.43,1.15,0.91c0.2,0.48,0.14,1.03-0.17,1.45c-2.26,3.15-2.98,5.72-2.13,7.65
			c1.15,2.63,5.27,4.46,11.92,5.29c1.03,0.13,2.24,0.19,3.59,0.19c12,0,32.23-5.06,35.27-5.84c1.66-1.57,9.45-7.92,26.17-7.92
			S169.76,362.45,171.43,364.02z"/>
		<path class="st9" d="M172.81,280.66c-10.85,13.15-23.34,47.34-26.63,65.75c-3.29,18.41,2.96,23.67,6.91,25.97
			c3.95,2.3,31.23,9.53,38.46,0c7.23-9.53-2.63-17.75-2.63-17.75s35.83-44.71,41.75-99.94c5.92-55.23-41.62-85.8-85.41-85.8
			c-43.79,0-91.33,30.57-85.41,85.8c5.92,55.23,41.75,99.94,41.75,99.94s-9.86,8.22-2.63,17.75c7.23,9.53,34.51,2.3,38.46,0
			c3.95-2.3,10.19-7.56,6.91-25.97c-3.29-18.41-15.78-52.6-26.63-65.75"/>
		<path class="st10" d="M58.94,238.02c0,0,19.07,4.42,26.91,1.41c7.83-3.01,15.46-1.92,5.82,2.76c-9.64,4.67-31.12,5.97-31.92,4.02
			S58.94,238.02,58.94,238.02z"/>
		<path class="st10" d="M61.73,269.34c0,0,30.01-10.64,35.01-4.02c5,6.63-33.48,9.44-33.48,9.44L61.73,269.34z"/>
		<path class="st10" d="M122.19,288.21c0,0-36.54,12.85-30.52,15.46c6.02,2.61,33.53-11.44,33.53-11.44L122.19,288.21z"/>
		<path class="st10" d="M82.55,321.29c0,0,15.34-5.17,14.74-0.95c-0.6,4.22-13.36,5.04-13.36,5.04L82.55,321.29z"/>
		<path class="st10" d="M134.95,318.68c0,0-21.06,4.31-26.85,6.7c-5.79,2.39,29.79,0,29.79,0L134.95,318.68z"/>
		<path class="st10" d="M227.6,223.56c0,0-13.41,7.53-21.01,9.94c-7.6,2.41,22.95-1.25,23.03-3.49
			C229.71,227.78,227.6,223.56,227.6,223.56z"/>
		<path class="st10" d="M231.17,244.94c0,0-31.77,3.31-35.89,8.13c-4.13,4.82,35.33-2.41,35.33-2.41L231.17,244.94z"/>
		<path class="st10" d="M167.66,288.21c0,0,16.38-6.53,19.04-3.21c2.66,3.31-21.37,7.39-21.37,7.39L167.66,288.21z"/>
		<path class="st10" d="M222.82,285.11c0,0-27.33-7.94-25.28-10.35c2.05-2.41,28.69,5.17,28.69,5.17L222.82,285.11z"/>
		<path class="st10" d="M212.05,316.6c0,0-24.51-11.31-30.23-9.71c-5.72,1.6,28.61,13.35,28.61,13.35L212.05,316.6z"/>
		<path class="st11" d="M142.52,338.01c0,0-31.02-78.31-11.44-87.79c22.32-10.82,32.53,2.71,33.73,11.14
			c1.69,11.84-0.75,31.92-7.08,47.28c-6.32,15.36-12.05,40.96-12.05,40.96L142.52,338.01z"/>
		<path d="M113.41,378.64c-6.54,0-12.6-1.34-15.63-5.35c-5.83-7.68-1.83-15.16,1.8-18.83c-5.51-7.29-35.83-49.37-41.22-99.61
			c-2.4-22.45,3.8-42.63,17.94-58.37c16.37-18.22,42.15-29.1,68.97-29.1c26.81,0,52.59,10.88,68.97,29.1
			c14.14,15.74,20.35,35.92,17.94,58.37c-5.38,50.24-35.7,92.32-41.22,99.61c3.62,3.67,7.62,11.16,1.8,18.83
			c-7.9,10.41-36.21,2.84-40.42,0.39c-1.6-0.94-5.08-2.96-7.07-8.41c-1.99,5.45-5.47,7.48-7.07,8.41
			C135.6,375.19,123.88,378.64,113.41,378.64z M145.26,170.4c-25.97,0-50.91,10.5-66.73,28.1c-13.56,15.09-19.5,34.46-17.19,56.03
			c5.8,54.16,41.07,98.71,41.43,99.16c0.51,0.64,0.42,1.57-0.21,2.1c-0.35,0.3-8.65,7.43-2.39,15.69c6.3,8.3,32.4,2,36.5-0.39
			c4.1-2.39,9.2-7.52,6.18-24.4c-3.42-19.17-15.92-52.47-26.31-65.06c-0.53-0.64-0.44-1.59,0.2-2.12c0.64-0.53,1.59-0.44,2.12,0.2
			c10.16,12.31,22.25,43.73,26.39,63.56c4.14-19.83,16.23-51.25,26.39-63.56c0.53-0.64,1.48-0.73,2.12-0.2
			c0.64,0.53,0.73,1.48,0.2,2.12c-10.39,12.59-22.88,45.88-26.31,65.06c-3.02,16.89,2.08,22.02,6.18,24.4
			c4.1,2.39,30.2,8.69,36.5,0.39c6.29-8.29-2.04-15.39-2.39-15.69c-0.63-0.53-0.72-1.46-0.21-2.1c0.36-0.44,35.63-45.02,41.43-99.16
			c2.31-21.57-3.63-40.95-17.19-56.03C196.18,180.9,171.23,170.4,145.26,170.4z"/>
		<path class="st9" d="M113.23,226.72c0,0-111.71,1.78-92.36-104.37c0,0-26.65-37.58-17.4-64.5c7.58-22.09,71.89-9.23,71.89-9.23
			s33.4-24.9,93.19-16.42c0,0,41.81-37.92,67.78-29.45c24.58,8.02,17.79,85.76,17.79,85.76s59.88,117.25-75.76,140.01"/>
		<path class="st11" d="M162.77,145.14c3.31,17.08-6.6,34.68-22.88,37.84c-16.28,3.16-32.77-8.73-36.08-25.8
			c-3.31-17.08,2.98-30.47,19.26-33.63C139.36,120.4,159.46,128.06,162.77,145.14z"/>
		<path d="M178.37,230.01c-0.72,0-1.36-0.52-1.48-1.26c-0.14-0.82,0.42-1.6,1.24-1.73c40.52-6.8,67.37-22.76,79.78-47.43
			c20.14-40.02-4.86-89.9-5.12-90.4c-0.13-0.25-0.18-0.53-0.16-0.82c0.02-0.19,1.67-19.58,0.32-39.67
			c-1.76-26.06-7.66-41.45-17.07-44.52c-24.86-8.11-65.89,28.76-66.31,29.13c-0.33,0.3-0.78,0.44-1.22,0.38
			c-30.52-4.33-53.93,0.29-68.19,4.93C84.7,43.63,76.35,49.76,76.26,49.82c-0.34,0.25-0.78,0.35-1.19,0.27
			c-0.16-0.03-16.18-3.2-32.88-3.64C27.18,46.06,8.52,47.8,4.9,58.34c-8.89,25.88,16.94,62.77,17.2,63.14
			c0.23,0.33,0.33,0.74,0.25,1.14c-5.51,30.2-0.77,54.39,14.06,71.9c26.36,31.11,76.29,30.71,76.79,30.69
			c0.84,0.02,1.52,0.65,1.53,1.48c0.01,0.83-0.65,1.52-1.48,1.53c-0.53,0-13.07,0.16-29.16-3.64c-14.9-3.52-35.67-11.25-49.96-28.11
			c-15.35-18.11-20.35-42.93-14.85-73.78c-3.33-4.85-26.13-39.42-17.23-65.34c7.59-22.11,65.78-11.72,72.97-10.35
			c2.13-1.47,10.27-6.72,24.05-11.22c14.48-4.73,38.17-9.44,69-5.19c5.18-4.59,43.53-37.52,68.74-29.29
			c24.72,8.07,19.42,79.99,18.86,86.89c1.13,2.3,6.73,14.15,10.27,30.42c3.58,16.47,5.57,40.66-5.33,62.32
			c-12.87,25.58-40.45,42.08-81.97,49.05C178.54,230.01,178.45,230.01,178.37,230.01z"/>
		<g>
			<g>
				<path d="M135.74,130.66c0.5,4.13-3.96,9.54-9.84,10.25c-5.89,0.71-10.98-3.55-11.48-7.68c-0.5-4.13,4.17-5.6,10.06-6.31
					C130.36,126.22,135.24,126.53,135.74,130.66z"/>
			</g>
		</g>
		<g>
			<g>
				<path class="st11" d="M237.08,67.09c0,0-23.6-23.57-51.07-30.98c0,0,30.32-22.98,42.68-17.86
					C239.07,22.55,237.08,67.09,237.08,67.09z"/>
			</g>
		</g>
		<g>
			<g>
				<path class="st11" d="M58.58,60.03c0,0-23.82,20.87-30.26,39.24c0,0-15.84-29.42-10.11-36.57
					C25.45,53.66,58.58,60.03,58.58,60.03z"/>
			</g>
		</g>
		<g>
			<path d="M119.12,154.14c-3.21,0-5.54-1.55-5.59-1.58c-0.69-0.47-0.86-1.41-0.4-2.09c0.47-0.68,1.4-0.86,2.09-0.4
				c0.59,0.39,5.88,3.61,10.85-3.2c0.48-0.66,1.41-0.82,2.08-0.34c0.36,0.25,8.92,6.03,19.04-0.77c0.69-0.46,1.63-0.28,2.09,0.41
				c0.46,0.69,0.28,1.63-0.41,2.09c-9.49,6.38-18.08,3.08-21.21,1.46C124.74,153.17,121.66,154.14,119.12,154.14z"/>
		</g>
		<g>
			<path class="st3" d="M132.33,166.05c-14.14,2.01-13.72-13.42-13.72-13.42c2.46,0.13,5.68-0.76,8.68-4.88c0,0,7.74,5.44,17.4,1.12
				C144.69,148.87,146.47,164.04,132.33,166.05z"/>
			<path d="M129.89,167.74c-3.56,0-6.47-1.14-8.66-3.39c-4.29-4.4-4.14-11.46-4.13-11.75c0.01-0.41,0.19-0.79,0.48-1.07
				c0.3-0.28,0.69-0.42,1.1-0.4c0.12,0.01,0.25,0.01,0.38,0.01c2.59,0,4.94-1.44,7-4.27c0.48-0.67,1.41-0.82,2.08-0.35
				c0.03,0.02,3.68,2.51,8.89,2.51c2.38,0,4.75-0.52,7.03-1.54c0.44-0.2,0.94-0.17,1.36,0.06c0.42,0.24,0.7,0.66,0.75,1.13
				c0.02,0.17,1.78,16.65-13.64,18.85C131.63,167.67,130.74,167.74,129.89,167.74z M120.17,154.09c0.18,2.01,0.84,5.72,3.23,8.17
				c2.02,2.06,4.96,2.84,8.71,2.31c9.75-1.39,11.07-9.65,11.15-13.53c-2.04,0.67-4.12,1.01-6.22,1.01c-4.31,0-7.67-1.42-9.38-2.33
				C125.05,152.79,122.32,153.84,120.17,154.09z"/>
		</g>
		<g>
			<path d="M129.88,167.74c-3.24,0-5.95-0.95-8.08-2.85c-4.86-4.34-4.71-11.97-4.7-12.29c0.02-0.83,0.74-1.48,1.55-1.46
				c0.83,0.02,1.49,0.71,1.46,1.54c0,0.12-0.1,6.6,3.7,9.97c1.99,1.77,4.78,2.41,8.3,1.91c12.5-1.78,11.14-14.96,11.08-15.52
				c-0.09-0.83,0.5-1.57,1.32-1.67c0.83-0.09,1.57,0.49,1.67,1.32c0.02,0.17,1.78,16.66-13.65,18.85
				C131.61,167.67,130.73,167.74,129.88,167.74z"/>
		</g>
		<g>
			<path d="M102.52,125.64c-0.43,0-0.86-0.18-1.16-0.54c-0.5-0.59-12.25-14.09-37.99-3.73c-0.77,0.31-1.65-0.06-1.96-0.83
				c-0.31-0.77,0.06-1.65,0.84-1.96c27.89-11.22,40.89,3.95,41.43,4.6c0.53,0.64,0.44,1.59-0.2,2.12
				C103.2,125.53,102.86,125.64,102.52,125.64z"/>
		</g>
		<g>
			<path d="M155.62,120.29c-0.18,0-0.37-0.03-0.55-0.11c-0.77-0.3-1.15-1.18-0.85-1.95c0.08-0.2,8.28-20.32,36.2-20.47
				c0,0,0.01,0,0.01,0c0.83,0,1.5,0.67,1.51,1.5c0,0.83-0.67,1.51-1.5,1.51c-25.8,0.14-33.11,17.81-33.41,18.56
				C156.78,119.93,156.22,120.29,155.62,120.29z"/>
		</g>
		<g>
			<path d="M200.19,183.9c-0.61,0-1.18-0.37-1.41-0.98c-10.71-28.67-28.67-34.3-28.85-34.35c-0.8-0.24-1.25-1.08-1.01-1.87
				c0.24-0.8,1.08-1.25,1.87-1.01c0.79,0.24,19.59,6.13,30.82,36.19c0.29,0.78-0.1,1.65-0.88,1.94
				C200.54,183.87,200.36,183.9,200.19,183.9z"/>
		</g>
		<g>
			<path d="M227.41,162.92c-0.41,0-0.82-0.17-1.12-0.49c-25.85-28.45-55.24-20.7-55.53-20.62c-0.8,0.22-1.63-0.25-1.85-1.05
				c-0.22-0.8,0.25-1.63,1.05-1.85c0.32-0.09,8-2.17,19.11-0.56c10.2,1.48,25.33,6.5,39.46,22.06c0.56,0.62,0.51,1.57-0.1,2.13
				C228.13,162.79,227.77,162.92,227.41,162.92z"/>
		</g>
		<g>
			<path d="M170.35,132.46c-0.6,0-1.16-0.36-1.4-0.94c-0.31-0.77,0.06-1.65,0.83-1.96c1.21-0.49,29.84-11.81,55.57,0.03
				c0.76,0.35,1.09,1.24,0.74,2c-0.35,0.75-1.24,1.09-2,0.74c-24.56-11.3-52.9-0.09-53.18,0.03
				C170.73,132.42,170.54,132.46,170.35,132.46z"/>
		</g>
		<g>
			<path d="M67.24,200.2c-0.11,0-0.22-0.01-0.34-0.04c-0.81-0.19-1.32-0.99-1.13-1.8c7.15-31.28,25-39.61,25.75-39.95
				c0.76-0.34,1.65,0,1.99,0.76c0.34,0.76,0,1.65-0.75,1.99c-0.22,0.1-17.28,8.21-24.05,37.87C68.55,199.73,67.93,200.2,67.24,200.2
				z"/>
		</g>
		<g>
			<path d="M37.48,183.01c-0.3,0-0.59-0.09-0.85-0.27c-0.68-0.47-0.86-1.41-0.38-2.1c11.95-17.29,26.28-24.27,36.2-27.09
				c10.79-3.06,18.68-2.02,19.01-1.97c0.82,0.11,1.4,0.88,1.28,1.7c-0.11,0.82-0.88,1.4-1.7,1.28c-0.12-0.02-7.74-0.99-17.92,1.93
				c-9.4,2.7-23,9.37-34.4,25.86C38.43,182.78,37.96,183.01,37.48,183.01z"/>
		</g>
		<g>
			<path d="M36.1,152.46c-0.5,0-0.99-0.25-1.27-0.7c-0.44-0.7-0.24-1.63,0.47-2.08c23.93-15.14,53.82-7.71,55.08-7.38
				c0.81,0.21,1.29,1.03,1.08,1.83c-0.21,0.81-1.03,1.29-1.83,1.08c-0.3-0.08-29.9-7.42-52.72,7.01
				C36.66,152.38,36.38,152.46,36.1,152.46z"/>
		</g>
		<g>
			<path d="M127.28,149.26c-0.71,0-1.34-0.51-1.48-1.23l-2.21-11.9c-0.15-0.82,0.39-1.6,1.21-1.76c0.82-0.15,1.6,0.39,1.76,1.21
				l2.21,11.9c0.15,0.82-0.39,1.6-1.21,1.76C127.47,149.25,127.37,149.26,127.28,149.26z"/>
		</g>
		<g>
			<path d="M114.92,378.66c-0.57,0-1.12-0.33-1.37-0.89c-2.55-5.64-0.11-11.34-0.01-11.58c0.33-0.76,1.22-1.11,1.98-0.78
				c0.76,0.33,1.11,1.22,0.78,1.98c-0.04,0.08-1.99,4.76-0.01,9.14c0.34,0.76,0.01,1.65-0.75,1.99
				C115.34,378.61,115.13,378.66,114.92,378.66z"/>
		</g>
		<g>
			<path d="M100.59,375.51c-0.72,0-1.36-0.52-1.48-1.26c-1.14-6.88,2.1-9.65,2.24-9.77c0.64-0.53,1.59-0.44,2.12,0.2
				c0.52,0.63,0.44,1.57-0.18,2.1c-0.12,0.11-2.04,1.98-1.21,6.97c0.14,0.82-0.42,1.6-1.24,1.73
				C100.75,375.5,100.67,375.51,100.59,375.51z"/>
		</g>
		<g>
			<path d="M68.95,368.99c-0.02,0-0.05,0-0.07,0c-0.83-0.04-1.47-0.74-1.44-1.57c0.01-0.28,0.37-6.83,5.27-9.16
				c0.75-0.36,1.65-0.04,2.01,0.71c0.36,0.75,0.04,1.65-0.71,2.01c-3.23,1.54-3.55,6.53-3.55,6.58
				C70.41,368.36,69.74,368.99,68.95,368.99z"/>
		</g>
		<g>
			<path d="M80.04,372.66c-0.77,0-1.43-0.59-1.5-1.37c-0.07-0.79-0.61-7.81,2.94-10.7c0.64-0.53,1.59-0.43,2.12,0.22
				c0.53,0.64,0.43,1.59-0.22,2.12c-1.95,1.59-1.98,6.5-1.84,8.09c0.07,0.83-0.54,1.56-1.36,1.64
				C80.13,372.66,80.09,372.66,80.04,372.66z"/>
		</g>
		<g>
			<path d="M78.53,358.56c-6.17,0-9.6-1.22-9.83-1.31c-0.78-0.29-1.18-1.15-0.89-1.93c0.29-0.78,1.15-1.18,1.93-0.89
				c0.12,0.04,8.77,3.04,23.61-1.02c0.8-0.22,1.63,0.25,1.85,1.05c0.22,0.8-0.25,1.63-1.05,1.85
				C87.83,358.03,82.59,358.56,78.53,358.56z"/>
		</g>
		<g>
			<path d="M175.61,378.66c-0.21,0-0.42-0.04-0.62-0.13c-0.76-0.34-1.09-1.23-0.75-1.99c1.99-4.4,0.01-9.09-0.01-9.14
				c-0.33-0.76,0.02-1.65,0.78-1.98c0.76-0.33,1.65,0.02,1.98,0.78c0.1,0.24,2.54,5.94-0.01,11.58
				C176.73,378.33,176.18,378.66,175.61,378.66z"/>
		</g>
		<g>
			<path d="M189.94,375.51c-0.08,0-0.16-0.01-0.25-0.02c-0.82-0.14-1.38-0.91-1.24-1.73c0.84-5.04-1.13-6.9-1.22-6.98
				c-0.64-0.53-0.72-1.47-0.19-2.11c0.53-0.64,1.49-0.72,2.13-0.19c0.14,0.11,3.39,2.89,2.24,9.77
				C191.3,374.99,190.66,375.51,189.94,375.51z"/>
		</g>
		<g>
			<path d="M221.58,368.99c-0.8,0-1.46-0.63-1.5-1.43c0-0.08-0.3-5.03-3.55-6.58c-0.75-0.36-1.07-1.26-0.71-2.01
				c0.36-0.75,1.26-1.07,2.01-0.71c4.9,2.33,5.26,8.88,5.27,9.16c0.04,0.83-0.6,1.54-1.43,1.57
				C221.63,368.99,221.6,368.99,221.58,368.99z"/>
		</g>
		<g>
			<path d="M210.48,372.66c-0.05,0-0.09,0-0.14-0.01c-0.83-0.08-1.44-0.81-1.36-1.64l0,0c0.14-1.59,0.11-6.5-1.84-8.09
				c-0.64-0.53-0.74-1.47-0.22-2.12c0.52-0.64,1.47-0.74,2.12-0.22c3.54,2.89,3.01,9.91,2.94,10.7
				C211.91,372.07,211.25,372.66,210.48,372.66z"/>
		</g>
		<g>
			<path d="M212,358.56c-4.06,0-9.3-0.53-15.6-2.25c-0.8-0.22-1.27-1.05-1.05-1.85c0.22-0.8,1.05-1.27,1.85-1.05
				c14.96,4.1,23.52,1.06,23.6,1.03c0.78-0.29,1.65,0.11,1.93,0.89c0.29,0.78-0.11,1.65-0.89,1.93
				C221.6,357.34,218.17,358.56,212,358.56z"/>
		</g>
		<path class="st10" d="M99.34,88.33c4.08,2.23-0.06-34.2-2.08-50.33c-2.23,0.78-4.3,1.57-6.21,2.36
			C92.25,54.76,95.31,86.13,99.34,88.33z"/>
		<path class="st10" d="M120.93,99.15c7.39,5.21,4.33-43.57,2.42-67.32c-4.89,0.67-9.42,1.54-13.59,2.53
			C110.92,55.76,113.96,94.23,120.93,99.15z"/>
		<path class="st10" d="M140.56,81.71c3.34,2.38,4.69-35.38,5.11-51.26c-1.92-0.02-3.81,0-5.65,0.04
			C139.04,46.09,137.34,79.41,140.56,81.71z"/>
		<path class="st10" d="M262.84,112.3c-10.58-2.33-21.71-4.08-27.58-2.88c-8.11,1.66,11.88,6.93,29.71,12.01
			C264.34,118.22,263.61,115.17,262.84,112.3z"/>
		<path class="st10" d="M238.16,128.17c-6.56,3.48,13.79,10.37,29.12,17.13c0.05-3.73-0.12-7.4-0.44-10.97
			C256.17,129.77,243.35,125.42,238.16,128.17z"/>
		<path class="st10" d="M31.68,145.31c-2.55-0.89-7.33,1.14-12.97,4.61c0.14,3.38,0.44,6.62,0.89,9.71
			C28.86,152.68,35.69,146.7,31.68,145.31z"/>
		<path class="st10" d="M38.99,164.54c-3.46-1.79-9.66,3.08-15.88,9.61c0.95,2.73,2.04,5.31,3.25,7.76
			C35.24,174.38,43.85,167.05,38.99,164.54z"/>
	</g>
</g>
</svg>
