<svg id="Layer_1" data-name="Layer 1" xmlns="http://www.w3.org/2000/svg" viewBox="0 0 2751.99 322.81"><defs><style>.cls-1{fill:#fbda98;}.cls-2{fill:#faaf5e;}.cls-3{fill:#e26d1e;opacity:0.5;}.cls-4{fill:#4d4d4d;}.cls-5{fill:#fff;}.cls-6{fill:#f78c8b;}</style></defs><path class="cls-1" d="M368.59,124.14c0-.78-3.48-112.86-37.73-118.08-41.37-6.32-90.3,51.7-90.3,51.7l.25.13c-20.23-.74-42.29,1.72-66.08,8.17-24.81,6.73-45.56,16.73-62.63,29h0s-57.37-6.23-90,11.25S47.17,209.37,47.17,209.37l.5-.89c-3.41,42.31,10.56,82.9,36.18,105.75h257.5s49-28.14,56.51-96.12C401,189.55,390.87,154.3,368.59,124.14Z"/><path class="cls-2" d="M384,150.43a162.66,162.66,0,0,0-15.49-25.6c0-.77-3.48-112.85-37.73-118.08-41.38-6.31-90.3,51.71-90.3,51.71l.25.12c-20.24-.73-42.29,1.72-66.08,8.18C149.81,73.49,129.06,83.48,112,95.7c0,0-57.38-6.22-90,11.25S47.05,210.07,47.05,210.07l.51-.89a154,154,0,0,0,.91,33.41c13.77,7.31,32.55,12.06,57,7.79,62.05-10.8,43.76-56.79,76.44-76s60.91,45.54,138,33.74C352.51,203.15,372.16,177.9,384,150.43Z"/><path class="cls-3" d="M149.45,123.78c8.8-2.5,2.77-34.11-2.44-48.34a205.15,205.15,0,0,0-20,10.12C130.66,99.6,139.85,126.5,149.45,123.78Z"/><path class="cls-3" d="M157.67,71.55c.48-.18,5.7-1.76,6.18-1.94,4.38-1.68,19.51-4.92,23.8-6.27,6.39,16.58,13.25,65.1,4.13,74.45C180.73,149.11,162.6,94.38,157.67,71.55Z"/><path class="cls-3" d="M224.6,106.64c6.47-.87,2.94-29.76-.93-47.4-10,.65-13.89.53-24.64,2.77C204.68,74.14,217.24,107.64,224.6,106.64Z"/><path class="cls-4" d="M349.91,214.29c0,6.53,29.14,6.73,47.13,5.15.64-10,1.25-13.84.41-24.79C384.69,198.69,349.86,206.86,349.91,214.29Z"/><path d="M341.35,317.55H83.85a3.32,3.32,0,0,1-2.2-.84c-25.94-23.14-40.18-63.5-37.47-105.84-3.74-5.62-41.77-63.67-34.43-93.26a21.22,21.22,0,0,1,10.79-14.27C40.16,92.82,68.18,90.62,88.22,90.62c11.26,0,19.85.68,23,1,17.95-12.65,39-22.31,62.68-28.73a230,230,0,0,1,60-8.41c1.71,0,3.42,0,5.13.07A231.53,231.53,0,0,1,265.45,29.1c21.82-17.81,41.65-26.84,59-26.84a46.69,46.69,0,0,1,6.95.52c15.77,2.41,27.37,23.74,34.46,63.4a444.68,444.68,0,0,1,6,56.82c21.67,29.72,32.61,65.34,29.29,95.47a143.6,143.6,0,0,1-12.28,44.73,134.88,134.88,0,0,1-19.55,30.61c-13.41,15.79-25.8,23-26.32,23.3A3.39,3.39,0,0,1,341.35,317.55ZM85.13,310.92H340.42a110.87,110.87,0,0,0,24-21.62c11.66-13.79,26.35-37.4,30.12-71.55,3.17-28.8-7.54-63.06-28.64-91.65a3.3,3.3,0,0,1-.65-1.86,439,439,0,0,0-6-56.89c-2.93-16.42-6.67-29.66-11.11-39.37C343,16.62,337,10.34,330.36,9.33a40,40,0,0,0-5.95-.44c-34.87,0-74.12,42.83-80.44,50a3.31,3.31,0,0,1-3.28,2.31c-2.25-.08-4.55-.13-6.83-.13a223.21,223.21,0,0,0-58.26,8.19c-23.33,6.33-44,15.9-61.57,28.44a3.32,3.32,0,0,1-2.28.6c-.1,0-10-1.06-23.53-1.06-19.29,0-46.14,2.07-64.55,11.94a14.66,14.66,0,0,0-7.49,10c-2.79,11.23,2.09,30,14.09,54.17a341.08,341.08,0,0,0,18.16,31.88l.22.06A3.31,3.31,0,0,1,51,208.74C47.69,249.51,60.76,288.51,85.13,310.92Z"/><circle cx="272.02" cy="172.67" r="29.71"/><circle class="cls-5" cx="278.55" cy="157.63" r="6.99" transform="translate(-29.88 243.13) rotate(-45)"/><circle cx="126.1" cy="202.38" r="29.71"/><circle class="cls-5" cx="132.62" cy="187.34" r="6.99" transform="translate(-95.98 166.63) rotate(-49.53)"/><path class="cls-6" d="M222.74,227.8s-.69,12.94-15,17.82-19.18-9.76-19.18-9.76,11-3.74,12.84-8.06C201.42,227.8,214.14,230.42,222.74,227.8Z"/><path d="M210,200.92c1.34,5.71-4,14-12.2,15.91s-15.94-3.26-17.29-9,5-8.51,13.11-10.42S208.63,195.2,210,200.92Z"/><path d="M190.2,238.19a16.47,16.47,0,0,1-6.69-1.58l-.16-.07a3.31,3.31,0,1,1,2.59-6.1l.28.12c.92.42,3.7,1.67,6.08.55s3.9-4.59,4.64-7.25a3.3,3.3,0,0,1,5.53-1.45,15.67,15.67,0,0,0,7.09,3.53c5.7,1.16,11.54-1.21,17.36-7a3.31,3.31,0,0,1,4.68,4.68c-9.49,9.49-18.14,10-23.74,8.76a22,22,0,0,1-6.12-2.38,14.15,14.15,0,0,1-6.63,7.14A11.46,11.46,0,0,1,190.2,238.19Z"/><path d="M200.13,228.06a3.31,3.31,0,0,1-3.2-2.46l-3.7-14a3.31,3.31,0,0,1,6.4-1.69l3.7,14a3.31,3.31,0,0,1-2.35,4A3.54,3.54,0,0,1,200.13,228.06Z"/><path class="cls-6" d="M342.11,95.93s-36.77-29.36-76.44-35.44c0,0,38.91-37,57-31.71C337.93,33.18,342.11,95.93,342.11,95.93Z"/><path class="cls-2" d="M333.88,314.23c2.53-13.5,4.65-33.5,1.19-54.57-6.17-37.59-2.05-35.66,2-41.07s-3.47-14.44,17.08-20.53c0,0,12.19-15.88,29.68-4.47,0,0,12.72-5.49,22.41,9.4,0,0,15.35,1.46,15.24,33.06-.09,27.26,7.53,46.84,8.42,78.35"/><path d="M429.88,317.89a3.48,3.48,0,0,1-3.48-3.39c-.43-15.27-2.47-27.7-4.44-39.71-2.07-12.66-4-24.61-4-38.75.1-27.65-12-29.57-12.08-29.58a3.48,3.48,0,0,1-2.59-1.57c-3.43-5.26-7.56-8.19-12.31-8.72a13.06,13.06,0,0,0-5.8.62,3.47,3.47,0,0,1-3.29-.28c-6.15-4-12.2-4.63-18-1.82a22,22,0,0,0-7,5.5,3.53,3.53,0,0,1-1.77,1.22c-5.65,1.67-9.43,3.7-11.24,6-1.39,1.79-1.57,3.7-1.78,5.91s-.48,4.94-2.25,7.32c-.61.82-1.21,1.48-1.73,2.06-2.53,2.8-4.72,5.22.39,36.37,3.57,21.73,1.32,42.33-1.21,55.78a3.49,3.49,0,1,1-6.85-1.29c2.42-12.9,4.59-32.63,1.18-53.37-5.4-32.92-3.26-37.1,1.32-42.16.46-.52.9-1,1.31-1.56.58-.77.72-1.95.9-3.82.64-6.7,2.44-13.1,17-17.65a29.27,29.27,0,0,1,8.75-6.61c5.32-2.59,13.61-4.36,23.38,1.36a20.72,20.72,0,0,1,7.5-.54c4.53.51,11,2.79,16.57,10.67,4.67,1.42,16.7,7.83,16.61,36.15-.05,13.56,1.86,25.24,3.89,37.6s4.08,24.91,4.53,40.64a3.49,3.49,0,0,1-3.39,3.58Z"/><ellipse class="cls-6" cx="349.5" cy="236.88" rx="6.67" ry="9.13" transform="translate(-48.45 95.84) rotate(-14.61)"/><ellipse class="cls-6" cx="360.45" cy="218.1" rx="6.67" ry="9.13" transform="translate(-43.36 97.99) rotate(-14.61)"/><path class="cls-6" d="M389.68,210.79c1.27,4.88-.59,9.59-4.15,10.52s-7.49-2.27-8.76-7.15.58-9.59,4.15-10.52S388.41,205.91,389.68,210.79Z"/><ellipse class="cls-6" cx="402.01" cy="223.5" rx="6.67" ry="9.13" transform="translate(-43.38 108.65) rotate(-14.61)"/><path class="cls-6" d="M401.51,244.73c1.48,8.7-7.5,12.14-19,14.09s-21.08,1.67-22.56-7,6.62-17.33,18.09-19.28S400,236,401.51,244.73Z"/><path class="cls-6" d="M90.76,114s-30.13,33-36.29,59.75c0,0-26.81-38.77-19.9-49.69C43.31,110.22,90.76,114,90.76,114Z"/><path d="M477.11,318.24H3.61a3.62,3.62,0,0,1,0-7.23h473.5a3.62,3.62,0,0,1,0,7.23Z"/><path class="cls-2" d="M95.08,311.91l5.18,2.16s17.66,11.77,29.2-2.35-.24-45.22-31.32-47.81-49,9.76-51.81,47.43"/><path d="M115.18,322a26.59,26.59,0,0,1-5.3-.55A35.72,35.72,0,0,1,98.72,317l-4.92-2a3.32,3.32,0,0,1,2.55-6.12l5.18,2.16a3.91,3.91,0,0,1,.57.31c.61.4,15.32,9.9,24.79-1.7,4.29-5.25,4.8-13.59,1.33-21.76-5-11.76-16.34-19.48-30.36-20.65-15.25-1.27-26.38,1.28-34,7.79-8.25,7-12.9,19-14.21,36.59a3.31,3.31,0,0,1-6.61-.5c1.46-19.44,6.86-32.89,16.52-41.13,9-7.72,21.75-10.77,38.86-9.35,16.52,1.38,29.94,10.6,35.91,24.66,4.43,10.44,3.55,21.38-2.3,28.54A21.07,21.07,0,0,1,115.18,322Z"/><path class="cls-2" d="M112.5,300.65s1.18,19.31-15.07,18.84S81,306.06,80.71,304"/><path d="M98,322.81h-.68c-6.85-.2-18.54-2.82-19.89-18.15,0-.13,0-.25,0-.34a3.31,3.31,0,1,1,6.58-.73c0,.13,0,.3,0,.5.44,5,2.32,11.77,13.48,12.1,3.38.1,5.94-.8,7.83-2.74,4.24-4.36,3.84-12.52,3.84-12.6a3.31,3.31,0,0,1,6.61-.39c0,.45.6,11.1-5.67,17.58A16.2,16.2,0,0,1,98,322.81Z"/><path class="cls-2" d="M60.27,302.79s.55,17.87,18.41,15.75c13.88-1.64,10.17-20.7,10.17-20.7"/><path d="M75.82,322a17.88,17.88,0,0,1-12-4.15c-6.45-5.56-6.8-14.61-6.81-15a3.3,3.3,0,0,1,3.2-3.41h.11a3.32,3.32,0,0,1,3.31,3.19c0,.12.32,6.61,4.55,10.22,2.43,2.08,5.85,2.88,10.16,2.37a7.41,7.41,0,0,0,5.43-2.95c2.94-4,2.35-11.35,1.88-13.84a3.31,3.31,0,0,1,6.5-1.26c.09.48,2.22,11.8-3,19a13.85,13.85,0,0,1-10,5.63A26.11,26.11,0,0,1,75.82,322Z"/><path d="M202.18,249.93a15.84,15.84,0,0,1-7.09-1.64c-6.93-3.44-9.54-11.06-9.65-11.38l6.28-2.11c.4,1.17,4.25,11.34,15,7.68,12-4.11,12.74-14.76,12.75-14.86l6.61.35c0,.62-1,15.24-17.22,20.78A20.53,20.53,0,0,1,202.18,249.93Z"/><path d="M664,95.2c36.8,0,72,20.8,72,58.4,0,21.6-11.19,35.6-29.19,35.6-23.6,0-29.2-12-29.2-23.2,0-7.2-4-9.6-13.6-9.6-20.4,0-30,12.4-30,30.8,0,16.8,8,32.8,28,32.8,26.4,0,28.8-10.8,44.8-10.8,22,0,29.19,18.8,29.19,30,0,24-26.39,40.8-73.19,40.8-55.2,0-92.4-35.6-92.4-93.2C570.44,140.8,602,95.2,664,95.2Z"/><path d="M835.23,95.2c23.2,0,36,10.4,44.4,22.4,2.4-11.2,10.8-22,28-22,23.2,0,34,14.4,34,30.4,0,12-8.4,24.8-8.4,44.8v18.4c0,14,2.8,21.2,11.2,29.6,4.4,4.4,10,14,10,28,0,21.2-17.2,32.8-32.8,32.8-24,0-34-10.4-39.6-31.2-6.4,15.6-19.2,31.2-51.6,31.2-54,0-73.6-39.2-73.6-87.6C756.83,135.6,783.63,95.2,835.23,95.2ZM848,220.8c19.2,0,25.2-17.2,25.2-34.8,0-16.8-4.8-29.2-25.6-29.2-20.4,0-26.8,14.4-26.8,34C820.83,208.4,827.63,220.8,848,220.8Z"/><path d="M983.63,154.8a24.47,24.47,0,0,1-24-24.8c0-23.2,11.2-31.2,24.4-31.2,4.8,0,9.6.8,13.6.8,0-7.6-2.4-20-2.4-31.6,0-14.8,8.4-31.6,32.8-31.6,28.4,0,36.4,14,36.4,26.8,0,13.6-3.2,24-3.2,36.4,13.6,0,24.8-1.2,39.2-1.2,19.6,0,26.4,9.2,26.4,28.4,0,18-10,28.4-26.4,28.4-16.8,0-29.6-1.6-40.8-1.6-.8,18-3.6,36.4-2,54.4.4,4.8,1.2,12.4,9.6,12.4,7.2,0,11.2-4,11.2-12.4,0-14,10.4-18.8,23.6-18.8,22,0,30,10.8,30,26.4,0,33.2-17.6,63.6-69.6,63.6-48.8,0-70-29.6-67.2-71.2,1.2-18,2.4-36,1.6-54A120.81,120.81,0,0,1,983.63,154.8Z"/><path d="M1329.22,95.2c36.8,0,72,20.8,72,58.4,0,21.6-11.2,35.6-29.2,35.6-23.6,0-29.2-12-29.2-23.2,0-7.2-4-9.6-13.6-9.6-20.4,0-30,12.4-30,30.8,0,16.8,8,32.8,28,32.8,26.4,0,28.8-10.8,44.8-10.8,22,0,29.2,18.8,29.2,30,0,24-26.4,40.8-73.2,40.8-55.2,0-92.4-35.6-92.4-93.2C1235.62,140.8,1267.22,95.2,1329.22,95.2Z"/><path d="M1599.22,187.2c0,53.2-38,90.8-87.6,90.8-57.6,0-90-37.6-90-90.4,0-58,32.4-92.4,87.6-92.4C1565.62,95.2,1599.22,127.2,1599.22,187.2Zm-60.8-2.8c0-16-9.6-29.6-26.4-29.6-18.8,0-28,13.2-28,32.8,0,16.4,9.2,30.8,27.6,30.8C1531.22,218.4,1538.42,202,1538.42,184.4Z"/><path d="M1620.41,36c0-22,11.2-36,34.4-36,24.4,0,35.6,14,35.6,30,0,15.6-3.2,24.4-3.2,47.6l-.8,130.4c0,4.8,2,11.6,6.4,11.6,5.6,0,4.8-1.2,12-.8s20,4.8,20,25.6c0,27.2-20.4,35.2-47.2,35.2-22.8,0-53.59-10.8-53.2-55.6l.8-156.8C1625.21,58.4,1620.41,45.6,1620.41,36Z"/><path d="M1734.41,36c0-22,11.2-36,34.4-36,24.4,0,35.6,14,35.6,30,0,15.6-3.2,24.4-3.2,47.6l-.8,130.4c0,4.8,2,11.6,6.4,11.6,5.6,0,4.8-1.2,12-.8s20,4.8,20,25.6c0,27.2-20.4,35.2-47.2,35.2-22.8,0-53.6-10.8-53.2-55.6l.8-156.8C1739.21,58.4,1734.41,45.6,1734.41,36Z"/><path d="M2014.8,240.8c0,22.8-18,39.2-72,39.2-61.6,0-96.4-35.6-96.4-93.2,0-46,31.6-91.6,94-91.6,38,0,70.4,18.4,70.4,62,0,30-33.6,54.4-83.6,54.4-5.6,0-10.8,0-15.2-.4,8,8,20.4,13.2,39.2,13.2,17.2,0,26.8-8,39.2-8C2006.8,216.4,2014.8,226.8,2014.8,240.8Zm-110-72.4c7.6.8,16,1.2,20,1.2,23.2,0,31.2-4.4,31.2-12.4,0-6.8-6.8-10.8-17.6-10.8C1926,146.4,1910.8,152.8,1904.8,168.4Z"/><path d="M2127.2,95.2c36.8,0,72,20.8,72,58.4,0,21.6-11.2,35.6-29.2,35.6-23.6,0-29.2-12-29.2-23.2,0-7.2-4-9.6-13.6-9.6-20.4,0-30,12.4-30,30.8,0,16.8,8,32.8,28,32.8,26.4,0,28.8-10.8,44.8-10.8,22,0,29.2,18.8,29.2,30,0,24-26.4,40.8-73.2,40.8-55.2,0-92.4-35.6-92.4-93.2C2033.6,140.8,2065.2,95.2,2127.2,95.2Z"/><path d="M2234,154.8a24.47,24.47,0,0,1-24-24.8c0-23.2,11.2-31.2,24.4-31.2,4.8,0,9.6.8,13.6.8,0-7.6-2.4-20-2.4-31.6,0-14.8,8.4-31.6,32.8-31.6,28.4,0,36.4,14,36.4,26.8,0,13.6-3.2,24-3.2,36.4,13.6,0,24.8-1.2,39.2-1.2,19.6,0,26.4,9.2,26.4,28.4,0,18-10,28.4-26.4,28.4-16.8,0-29.6-1.6-40.8-1.6-.8,18-3.6,36.4-2,54.4.4,4.8,1.2,12.4,9.6,12.4,7.2,0,11.2-4,11.2-12.4,0-14,10.4-18.8,23.6-18.8,22,0,30,10.8,30,26.4,0,33.2-17.6,63.6-69.6,63.6-48.8,0-70-29.6-67.2-71.2,1.2-18,2.4-36,1.6-54A120.81,120.81,0,0,1,2234,154.8Z"/><path d="M2575.19,187.2c0,53.2-38,90.8-87.6,90.8-57.6,0-90-37.6-90-90.4,0-58,32.4-92.4,87.6-92.4C2541.59,95.2,2575.19,127.2,2575.19,187.2Zm-60.8-2.8c0-16-9.6-29.6-26.4-29.6-18.8,0-28,13.2-28,32.8,0,16.4,9.2,30.8,27.6,30.8C2507.19,218.4,2514.39,202,2514.39,184.4Z"/><path d="M2664.79,192.4c0,24.8,7.6,34.8,7.6,49.6,0,19.6-6,38-36,38-27.6,0-33.2-16.4-33.2-38,0-13.2,1.6-43.6,1.6-66,0-36.8-10.8-34.8-10.8-54.8,0-10.8,5.2-26,31.6-26,22.8,0,34.8,13.2,36,27.2,6.8-16.8,17.2-27.2,44-27.2,27.6,0,46.4,21.2,46.4,50.8,0,26.4-11.6,44.4-33.2,44.4-12,0-21.6-6-21.6-17.2s-4-16.8-14.8-16.8C2669.19,156.4,2664.79,167.6,2664.79,192.4Z"/></svg>