<svg id="Layer_1" data-name="Layer 1" xmlns="http://www.w3.org/2000/svg" viewBox="65.73 49.82 193.83 225.63"><defs><style>.cls-1{fill:#fce1a7;}.cls-2{fill:#f7d56b;}.cls-3{fill:#f3aebd;}.cls-4{fill:#e593a9;}.cls-5{fill:#9dd6dc;}.cls-6{fill:#73bbc0;}.cls-7{fill:#c66b2e;}.cls-8{fill:#d7823e;}.cls-9{opacity:0.2;}.cls-10,.cls-14{fill:#fff;}.cls-11{fill:#721e0d;}.cls-12{fill:#5b1206;}.cls-13{fill:#dd6c87;}.cls-14{opacity:0.5;}</style></defs><path class="cls-1" d="M211.78,180.23c4.4-1.1,9.44,2,11.26,6.9s-.26,9.81-4.65,10.92-9.44-2-11.26-6.9S207.39,181.34,211.78,180.23Z"/><path class="cls-2" d="M211.86,185.88c1.78-1.34,4.49-.68,6.06,1.48s1.39,5-.39,6.33-4.49.68-6.06-1.48S210.08,187.22,211.86,185.88Z"/><ellipse class="cls-1" cx="177.58" cy="217.36" rx="8.04" ry="9.64" transform="matrix(0.76, -0.65, 0.65, 0.76, -98.71, 167.92)"/><path class="cls-2" d="M175.18,213.45c-1.73,1.41-1.73,4.2,0,6.24s4.51,2.54,6.24,1.13,1.73-4.2,0-6.24S176.91,212,175.18,213.45Z"/><path class="cls-3" d="M139.13,151.64c-.2-.2-12.77-7.19-18-5.71s8.09,21.46,8.42,21.52S139.13,151.64,139.13,151.64Z"/><path class="cls-4" d="M138.74,153.64c-.15-.15-9.6-5.4-13.51-4.29s6.09,16.13,6.34,16.18S138.74,153.64,138.74,153.64Z"/><path class="cls-3" d="M156.48,138c-.14-.2-4.34-12-2.14-16s18,10.66,18,10.94S156.48,138,156.48,138Z"/><path class="cls-4" d="M158.36,138.05c-.11-.15-3.27-9-1.61-12.05s13.55,8,13.55,8.24S158.36,138.05,158.36,138.05Z"/><ellipse class="cls-5" cx="75.42" cy="95.27" rx="9.63" ry="9.8" transform="translate(-40.42 58.59) rotate(-34.06)"/><path class="cls-6" d="M70.81,95.64a4.83,4.83,0,1,0,3.38-6A4.87,4.87,0,0,0,70.81,95.64Z"/><ellipse class="cls-5" cx="112.93" cy="68.32" rx="9.63" ry="9.8" transform="translate(-18.89 74.96) rotate(-34.06)"/><path class="cls-6" d="M115,64.18a4.83,4.83,0,1,1-6.83.9A4.88,4.88,0,0,1,115,64.18Z"/><path class="cls-7" d="M236.24,244.43l-1.53-1.73Q218.28,224,202,205.12a31.25,31.25,0,0,1-4.65,3.81q13.65,15.8,27.4,31.52l10.31,11.76A10,10,0,0,1,236.24,244.43Z"/><path class="cls-8" d="M258.74,269.93l-1.33-1.5-4.87-5.49q-8.17-9.24-16.3-18.51a10,10,0,0,0-1.19,7.78q9.82,11.18,19.71,22.29c2.59,2.9,6.51-1.73,3.95-4.61,0,0,0,0,0,0h0C258.8,270,259.29,270.55,258.74,269.93Z"/><path class="cls-5" d="M116.33,115.53A87.87,87.87,0,0,0,145.4,101c-4.57-10.75-28.32-35.8-32.24-35-4.29.87-13,4.52-21.93,11.17s-19.16,15-17,20c0,0,4.61,7.31,10.55,15.69C94.76,117.33,105.63,119,116.33,115.53Z"/><path class="cls-6" d="M116.33,115.53c-10.7,3.45-21.57,1.8-31.53-2.64,7.91,11.17,18.18,24.24,23.07,24.42,8.55.32,38.85-25.25,38.29-33.61a8.8,8.8,0,0,0-.76-2.67A87.87,87.87,0,0,1,116.33,115.53Z"/><path class="cls-3" d="M196.53,162.16c-4.8-10.87-28.25-35.58-32.14-34.79-4.29.87-12.68,4.1-21.61,10.74s-17.72,15-17.3,20.44c.46,5.91,10.07,18.42,19,27.91C164.79,186.65,182.77,176.54,196.53,162.16Z"/><path class="cls-4" d="M144.49,186.46c6.46,6.85,12.56,12.12,14.61,12.19,8.55.32,38.85-25.24,38.28-33.6a8.67,8.67,0,0,0-.75-2.67l-.1-.22C182.77,176.54,164.79,186.65,144.49,186.46Z"/><path class="cls-1" d="M204.93,234.57A60.11,60.11,0,0,0,245.44,220c-6.37-11-25.43-30.25-29-29.45-4.23,1-12.54,4.32-21.49,10.93s-17.81,14.83-17.58,20a10.56,10.56,0,0,0,.83,3.29C185.6,230.78,195.05,233.78,204.93,234.57Z"/><path class="cls-2" d="M204.93,234.57c-9.88-.79-19.33-3.79-26.69-9.74,4.55,11.46,26.44,33.78,30.75,33.79,8.35,0,38.82-25.29,38.53-33.23a7.49,7.49,0,0,0-.65-2.52,22.15,22.15,0,0,0-1.43-2.83A60.11,60.11,0,0,1,204.93,234.57Z"/><path class="cls-8" d="M258.71,269.89h0S258.69,269.87,258.71,269.89Z"/><path class="cls-7" d="M185.43,185.92l-2-2.37-4.52,3.9,3.48,4.06A8.28,8.28,0,0,1,185.43,185.92Z"/><path class="cls-7" d="M192.21,203l5.13,6a31.25,31.25,0,0,0,4.65-3.81l-.93-1.08C198.2,204.62,195.14,203.93,192.21,203Z"/><path class="cls-8" d="M182.35,191.51,192.21,203c2.93,1,6,1.65,8.85,1.07q-7.83-9.06-15.63-18.12A8.28,8.28,0,0,0,182.35,191.51Z"/><path class="cls-7" d="M143.19,145.22a20.26,20.26,0,0,0,4.55-3.8l-1.4-1.68a18,18,0,0,1-7.23.57Z"/><path class="cls-8" d="M139.11,140.31a18,18,0,0,0,7.23-.57q-6.54-7.89-13-15.79a13.8,13.8,0,0,0-3.55,5.07Q134.42,134.67,139.11,140.31Z"/><path class="cls-7" d="M127.46,126.25l1.52,1.83c.25.32.52.63.77.94A13.8,13.8,0,0,1,133.3,124L132,122.39Z"/><path class="cls-8" d="M68.58,54.42q9.83,12,19.66,24a11.73,11.73,0,0,0,7.72-.1L73.6,51C71.16,48,66.11,51.39,68.58,54.42Z"/><path class="cls-7" d="M88.24,78.46,91.93,83a14.91,14.91,0,0,0,4.93-3.52L96,78.36A11.73,11.73,0,0,1,88.24,78.46Z"/><g class="cls-9"><path class="cls-10" d="M72.2,54.26,88.68,74c.83,1,2.51-.13,1.68-1.13L73.88,53.13c-.83-1-2.51.13-1.68,1.13Z"/></g><g class="cls-9"><path class="cls-10" d="M235.82,249.37l17.54,18.84c.88,1,2.19-.6,1.31-1.54l-17.53-18.84c-.89-1-2.2.59-1.32,1.54Z"/></g><g class="cls-9"><path class="cls-10" d="M185.77,190.46l7.41,8.88c.82,1,2.51-.13,1.67-1.13l-7.4-8.88c-.83-1-2.51.13-1.68,1.13Z"/></g><g class="cls-9"><path class="cls-10" d="M132.59,127.24l9.07,10.89c.83,1,2.51-.13,1.67-1.13l-9.07-10.89c-.82-1-2.51.13-1.67,1.13Z"/></g><path class="cls-11" d="M102.75,105.25a5.69,5.69,0,0,0-6.38-.51c-2.34,1.47-2.54,4-1.83,6.39.24.83,1.51.4,1.28-.43-.56-1.94-.49-3.83,1.44-4.91a4.3,4.3,0,0,1,4.62.48C102.58,106.76,103.47,105.75,102.75,105.25Z"/><path class="cls-11" d="M125.67,87.7c-2-1.58-5.29-2.33-7.45-.56s-1.47,5-.37,7.16c.4.77,1.51,0,1.11-.75-.9-1.74-1.44-4.53.62-5.66,1.67-.92,3.81-.26,5.21.84C125.47,89.26,126.35,88.24,125.67,87.7Z"/><path class="cls-11" d="M145.44,161.81a6.17,6.17,0,0,0-2.56,2.06h0l0,0h0c-3.18,4-3.07,10.85,2.26,13.19,5,2.22,9.16-3,9.65-7.48C155.34,164.3,150.91,159.5,145.44,161.81Z"/><path class="cls-11" d="M165.79,142.47a6.06,6.06,0,0,1,2.87-1.61h.05c4.92-1.44,11.2,1.2,11.39,7,.18,5.52-6.16,7.39-10.54,6.16C164.41,152.58,161.61,146.68,165.79,142.47Z"/><path class="cls-11" d="M165.07,169.35a4.42,4.42,0,0,0,2.16-.32,4,4,0,0,0,2-2.7,7.68,7.68,0,0,0-.08-3.47,15.75,15.75,0,0,0-1.4-3.91,25.76,25.76,0,0,0-7.12,8.67A8.7,8.7,0,0,0,165.07,169.35Z"/><path class="cls-12" d="M166.29,156.59a.71.71,0,0,0-.3-.27.77.77,0,0,0-.57.1c-2.69,1.32-6.71,5.57-8,7.11-.29.34,0,.72.28,1.08a15.48,15.48,0,0,0,2.9,2.93l.11.08a25.76,25.76,0,0,1,7.12-8.67A15.69,15.69,0,0,0,166.29,156.59Z"/><path class="cls-11" d="M205,227.12a26,26,0,0,0-7.12-2.48c-1.06-.2-1.2,1.48-.14,1.68a23.37,23.37,0,0,1,4.78,1.46,19.12,19.12,0,0,0-5.89,4.54c-.72.81.67,1.76,1.38,1a17.2,17.2,0,0,1,6.88-4.71A.85.85,0,0,0,205,227.12Z"/><path class="cls-10" d="M146.39,163a5.05,5.05,0,0,0-2.21,4.12,4.15,4.15,0,0,0,.06,2.24c.71,2.12,3,1.7,4.3.43a4.9,4.9,0,0,0,1.55-4.73C149.65,163.48,148,162.09,146.39,163Z"/><path class="cls-10" d="M148.88,172.2c-1.44-1.08-3.45.69-3.64,2.17a2,2,0,0,0,0,.35,1.8,1.8,0,0,0,.22,1.31,1.65,1.65,0,0,0,2.28.56C149,175.87,150.4,173.33,148.88,172.2Z"/><path class="cls-10" d="M170.58,140.83a4.74,4.74,0,0,0-2.09,3.9,3.91,3.91,0,0,0,0,2.12c.67,2,2.85,1.62,4.08.42a4.68,4.68,0,0,0,1.47-4.49C173.67,141.28,172.14,140,170.58,140.83Z"/><path class="cls-10" d="M173,149.55c-1.37-1-3.28.66-3.46,2a1.83,1.83,0,0,0,0,.33,1.74,1.74,0,0,0,.21,1.25,1.56,1.56,0,0,0,2.16.53C173.06,153,174.38,150.62,173,149.55Z"/><path class="cls-11" d="M118.24,96.84a4,4,0,0,1,.81,2.54c-.74,3.6-3.84,4-5.85,2.61-.62-.34-1.16.45-.85,1q.78,5.16-4.08,4.12a6.17,6.17,0,0,1-1.74-1.38c-.61-.62-1.48.41-.87,1,1.75,1.78,4,2.72,6.26,1.35a4,4,0,0,0,2.17-4.25,4.84,4.84,0,0,0,4.74-.76c2.11-1.78,1.7-4.4.69-6.67C119.17,95.62,117.89,96.05,118.24,96.84Z"/><path class="cls-3" d="M94.2,116.18c1.13,1.67,4.64,1.27,7.84-.89s4.88-5.27,3.75-6.94-4.64-1.27-7.84.89S93.07,114.51,94.2,116.18Z"/><path class="cls-3" d="M119.86,97.08c1.12,1.67,4.63,1.27,7.83-.89s4.88-5.27,3.75-6.94-4.64-1.27-7.84.89S118.73,95.41,119.86,97.08Z"/><path class="cls-4" d="M147.83,181.9c1.36,1.67,5,.91,8.24-1.7s4.68-6.06,3.32-7.73-5-.9-8.24,1.7S146.47,180.23,147.83,181.9Z"/><ellipse class="cls-4" cx="179.04" cy="154.44" rx="7.46" ry="3.89" transform="translate(-57.32 147.91) rotate(-39.2)"/><path class="cls-3" d="M197,241c1.36,1.67,5.05.91,8.24-1.7s4.68-6.06,3.32-7.73-5-.9-8.24,1.7S195.68,239.31,197,241Z"/><path class="cls-11" d="M218,215.64a25.79,25.79,0,0,1-.95-7.47c0-1.08,1.69-.87,1.67.2a22.41,22.41,0,0,0,.44,5,19.39,19.39,0,0,1,5.66-4.83c.94-.53,1.58,1,.65,1.55a17.32,17.32,0,0,0-6,5.76A.84.84,0,0,1,218,215.64Z"/><path class="cls-3" d="M233.18,210.71c1.35,1.67-.16,5.13-3.36,7.71s-6.9,3.33-8.25,1.65.15-5.12,3.36-7.71S231.83,209,233.18,210.71Z"/><path class="cls-11" d="M222.91,220.35c-.41,4.29-4.47,5.34-8,4.4-.86-.23-1.27.78-.94,1.43,1.76,3.39-1.44,7.19-4.89,7-1.19-.06-1.06,1.79.12,1.85a6.41,6.41,0,0,0,4.8-1.81l0,0c2.32,1.29,5.48,2.22,7.44-.19,1.71-2.09,1.27-5,.06-7.23a6.36,6.36,0,0,0,3.25-5.13C224.84,219.52,223,219.16,222.91,220.35Z"/><path class="cls-13" d="M96.6,109.27a38.29,38.29,0,0,0,.41,5.66c.06.43.73.39.67,0a39.7,39.7,0,0,1-.41-5.66C97.27,108.79,96.6,108.84,96.6,109.27Z"/><path class="cls-13" d="M99.43,111.6c.16,1.09.31,2.18.47,3.27.06.42.74.38.67-.05l-.47-3.27C100,111.13,99.37,111.17,99.43,111.6Z"/><path class="cls-13" d="M101.63,108.1c.09,1.37.22,2.73.4,4.08.06.43.73.39.67,0-.17-1.36-.31-2.72-.4-4.08A.34.34,0,0,0,101.63,108.1Z"/><path class="cls-13" d="M121,92a14,14,0,0,0,.42,3c.1.42.74.2.63-.22a12.93,12.93,0,0,1-.37-2.84C121.71,91.56,121,91.61,121,92Z"/><path class="cls-13" d="M124.56,92.52A15.93,15.93,0,0,0,125,95c.11.42.75.2.64-.22a13.68,13.68,0,0,1-.43-2.28C125.19,92,124.52,92.09,124.56,92.52Z"/><path class="cls-13" d="M126.7,88.38l.58,3.4c.07.43.75.39.67,0-.19-1.13-.38-2.27-.58-3.4C127.3,87.91,126.63,88,126.7,88.38Z"/><path class="cls-13" d="M150.23,175.85l.51,3.49c.06.43.73.39.67,0l-.5-3.49C150.85,175.38,150.17,175.42,150.23,175.85Z"/><path class="cls-13" d="M153.2,176.22c.18,1.07.38,2.13.61,3.18.09.43.73.21.64-.21-.22-1-.41-2-.57-3C153.81,175.75,153.13,175.79,153.2,176.22Z"/><path class="cls-13" d="M154.88,172.1c.17,1,.32,2.08.44,3.13,0,.43.72.39.67,0-.12-1.05-.26-2.1-.44-3.14C155.48,171.63,154.8,171.67,154.88,172.1Z"/><path class="cls-13" d="M175.11,153.41a23.88,23.88,0,0,0,.82,3.23.34.34,0,0,0,.64-.21,21.44,21.44,0,0,1-.78-3.06C175.71,153,175,153,175.11,153.41Z"/><path class="cls-13" d="M178.67,153.88a16.63,16.63,0,0,0,.94,2.9c.17.39.8.18.63-.22a16.33,16.33,0,0,1-.93-2.9C179.21,153.24,178.57,153.46,178.67,153.88Z"/><path class="cls-13" d="M180,149.82a9.1,9.1,0,0,0,.74,2.76c.18.4.82.18.64-.21a8.67,8.67,0,0,1-.71-2.59C180.61,149.34,179.94,149.39,180,149.82Z"/><path class="cls-13" d="M198.22,235.24a19.18,19.18,0,0,0,.47,3.29c.09.43.73.21.63-.21a19.35,19.35,0,0,1-.43-3.12A.34.34,0,0,0,198.22,235.24Z"/><path class="cls-13" d="M201.17,234.66a21.61,21.61,0,0,0,1,3.82c.15.41.79.19.64-.21a20.81,20.81,0,0,1-.94-3.65C201.78,234.19,201.1,234.24,201.17,234.66Z"/><path class="cls-13" d="M203.5,231a18,18,0,0,0,.74,3.06.33.33,0,0,0,.63-.22,16.77,16.77,0,0,1-.69-2.88C204.11,230.54,203.44,230.58,203.5,231Z"/><path class="cls-13" d="M223,213.79c.22,1.14.49,2.26.8,3.38.11.41.75.2.63-.22-.3-1.12-.57-2.24-.79-3.37C223.58,213.15,222.94,213.37,223,213.79Z"/><path class="cls-13" d="M226.7,214.41a13.27,13.27,0,0,0,1.19,3.22c.21.38.76,0,.56-.38a12.84,12.84,0,0,1-1.12-3.05C227.24,213.77,226.6,214,226.7,214.41Z"/><path class="cls-13" d="M227.66,209.24a23.17,23.17,0,0,0,.91,3.85.33.33,0,0,0,.63-.22,22,22,0,0,1-.86-3.67C228.27,208.77,227.6,208.81,227.66,209.24Z"/><path class="cls-14" d="M130.3,162.36c1.49,2.22,3.79,3.28,5.11,2.38s1.2-3.42-.3-5.63-3.79-3.29-5.12-2.39S128.8,160.14,130.3,162.36Z"/><path class="cls-14" d="M231.39,227.69c1.49,2.21,3.79,3.28,5.11,2.38s1.2-3.42-.3-5.64-3.79-3.28-5.12-2.38S229.89,225.47,231.39,227.69Z"/><path class="cls-14" d="M187.5,169.38c1.5,2.21,3.79,3.28,5.12,2.38s1.19-3.42-.31-5.64-3.79-3.28-5.12-2.38S186,167.16,187.5,169.38Z"/><path class="cls-14" d="M140.42,160.64c1,1.51,2.58,2.23,3.48,1.62s.82-2.33-.2-3.84-2.59-2.24-3.49-1.63S139.39,159.13,140.42,160.64Z"/><path class="cls-14" d="M229.93,237.31c1,1.51,2.58,2.24,3.49,1.63s.81-2.33-.21-3.84-2.58-2.24-3.49-1.63S228.91,235.8,229.93,237.31Z"/><path class="cls-14" d="M178,170.89c1,1.51,2.59,2.24,3.49,1.63s.81-2.33-.21-3.84-2.58-2.24-3.48-1.63S177,169.38,178,170.89Z"/><path class="cls-14" d="M140.7,151.13c.71,1.06,1.81,1.57,2.45,1.14s.57-1.64-.15-2.7-1.81-1.57-2.45-1.14S140,150.07,140.7,151.13Z"/><path class="cls-14" d="M242.79,227.16c.72,1.06,1.81,1.57,2.45,1.14s.57-1.64-.15-2.7-1.81-1.57-2.45-1.14S242.07,226.1,242.79,227.16Z"/><path class="cls-14" d="M82.43,100.37c1.5,2.21,3.79,3.28,5.12,2.38s1.19-3.42-.31-5.64-3.79-3.28-5.12-2.38S80.93,98.15,82.43,100.37Z"/><path class="cls-14" d="M92.55,98.65c1,1.5,2.58,2.23,3.49,1.62s.81-2.33-.21-3.84-2.58-2.24-3.49-1.63S91.53,97.14,92.55,98.65Z"/><path class="cls-14" d="M134.27,100.81c1,1.51,2.58,2.23,3.49,1.62s.81-2.33-.21-3.84S135,96.35,134.06,97,133.25,99.3,134.27,100.81Z"/><path class="cls-14" d="M92.83,89.14c.72,1.06,1.81,1.57,2.45,1.14s.57-1.64-.15-2.7S93.32,86,92.68,86.44,92.11,88.08,92.83,89.14Z"/><path class="cls-14" d="M133.52,109.62c.71,1.06,1.81,1.57,2.45,1.14s.57-1.64-.15-2.7-1.81-1.57-2.45-1.14S132.8,108.56,133.52,109.62Z"/><path class="cls-14" d="M186.48,233.6c1,1.51,2.58,2.24,3.49,1.63s.81-2.33-.21-3.84-2.58-2.24-3.48-1.63S185.46,232.09,186.48,233.6Z"/><path class="cls-14" d="M185.8,222.31c1.48,2.19,3.74,3.24,5.06,2.36s1.18-3.39-.3-5.58-3.75-3.24-5.07-2.36S184.32,220.12,185.8,222.31Z"/></svg>