<svg id="Layer_1" data-name="Layer 1" xmlns="http://www.w3.org/2000/svg" viewBox="0 0 2181.55 280"><path d="M93.6,95.2c36.8,0,72,20.8,72,58.4,0,21.6-11.2,35.6-29.2,35.6-23.6,0-29.2-12-29.2-23.2,0-7.2-4-9.6-13.6-9.6-20.4,0-30,12.4-30,30.8,0,16.8,8,32.8,28,32.8,26.4,0,28.8-10.8,44.8-10.8,22,0,29.2,18.8,29.2,30,0,24-26.4,40.8-73.2,40.8C37.2,280,0,244.4,0,186.8,0,140.8,31.6,95.2,93.6,95.2Z"/><path d="M264.79,95.2c23.2,0,36,10.4,44.4,22.4,2.4-11.2,10.8-22,28-22,23.2,0,34,14.4,34,30.4,0,12-8.4,24.8-8.4,44.8v18.4c0,14,2.8,21.2,11.2,29.6,4.4,4.4,10,14,10,28,0,21.2-17.2,32.8-32.8,32.8-24,0-34-10.4-39.6-31.2-6.4,15.6-19.2,31.2-51.6,31.2-54,0-73.59-39.2-73.59-87.6C186.4,135.6,213.2,95.2,264.79,95.2Zm12.8,125.6c19.2,0,25.2-17.2,25.2-34.8,0-16.8-4.8-29.2-25.6-29.2-20.4,0-26.8,14.4-26.8,34,0,17.6,6.8,30,27.2,30Z"/><path d="M413.2,154.8a24.48,24.48,0,0,1-24-24.8c0-23.2,11.2-31.2,24.4-31.2,4.8,0,9.6.8,13.6.8,0-7.6-2.41-20-2.41-31.6,0-14.8,8.41-31.6,32.8-31.6,28.4,0,36.4,14,36.4,26.8,0,13.6-3.2,24-3.2,36.4,13.6,0,24.8-1.2,39.2-1.2,19.6,0,26.4,9.2,26.4,28.4,0,18-10,28.4-26.4,28.4-16.8,0-29.6-1.6-40.8-1.6-.8,18-3.6,36.4-2,54.4.4,4.8,1.2,12.4,9.6,12.4,7.2,0,11.2-4,11.2-12.4,0-14,10.4-18.8,23.6-18.8,22,0,30,10.8,30,26.4,0,33.2-17.6,63.6-69.6,63.6-48.79,0-70-29.6-67.2-71.2,1.21-18,2.41-36,1.61-54A121.3,121.3,0,0,1,413.2,154.8Z"/><path d="M758.78,95.2c36.8,0,72,20.8,72,58.4,0,21.6-11.2,35.6-29.2,35.6-23.6,0-29.2-12-29.2-23.2,0-7.2-4-9.6-13.6-9.6-20.4,0-30,12.4-30,30.8,0,16.8,8,32.8,28,32.8,26.4,0,28.8-10.8,44.8-10.8,22,0,29.2,18.8,29.2,30,0,24-26.4,40.8-73.2,40.8-55.2,0-92.4-35.6-92.4-93.2C665.18,140.8,696.78,95.2,758.78,95.2Z"/><path d="M1028.78,187.2c0,53.2-38,90.8-87.6,90.8-57.6,0-90-37.6-90-90.4,0-58,32.4-92.4,87.6-92.4C995.18,95.2,1028.78,127.2,1028.78,187.2ZM968,184.4c0-16-9.6-29.6-26.4-29.6-18.8,0-28,13.2-28,32.8,0,16.4,9.2,30.8,27.6,30.8C960.78,218.4,968,202,968,184.4Z"/><path d="M1050,36c0-22,11.2-36,34.4-36,24.4,0,35.6,14,35.6,30,0,15.6-3.2,24.4-3.2,47.6L1116,208c0,4.8,2,11.6,6.4,11.6,5.6,0,4.8-1.2,12-.8s20,4.8,20,25.6c0,27.2-20.4,35.2-47.2,35.2-22.8,0-53.6-10.8-53.2-55.6l.8-156.8C1054.78,58.4,1050,45.6,1050,36Z"/><path d="M1164,36c0-22,11.2-36,34.4-36,24.4,0,35.6,14,35.6,30,0,15.6-3.2,24.4-3.2,47.6L1230,208c0,4.8,2,11.6,6.4,11.6,5.6,0,4.8-1.2,12-.8s20,4.8,20,25.6c0,27.2-20.4,35.2-47.2,35.2-22.8,0-53.6-10.8-53.2-55.6l.8-156.8C1168.77,58.4,1164,45.6,1164,36Z"/><path d="M1444.36,240.8c0,22.8-18,39.2-72,39.2-61.6,0-96.4-35.6-96.4-93.2,0-46,31.6-91.6,94-91.6,38,0,70.39,18.4,70.39,62,0,30-33.6,54.4-83.59,54.4-5.6,0-10.8,0-15.2-.4,8,8,20.4,13.2,39.2,13.2,17.19,0,26.8-8,39.19-8C1436.36,216.4,1444.36,226.8,1444.36,240.8Zm-110-72.4c7.6.8,16,1.2,20,1.2,23.2,0,31.2-4.4,31.2-12.4,0-6.8-6.8-10.8-17.6-10.8-12.39,0-27.59,6.4-33.59,22Z"/><path d="M1556.76,95.2c36.8,0,72,20.8,72,58.4,0,21.6-11.2,35.6-29.2,35.6-23.6,0-29.2-12-29.2-23.2,0-7.2-4-9.6-13.6-9.6-20.4,0-30,12.4-30,30.8,0,16.8,8,32.8,28,32.8,26.4,0,28.8-10.8,44.8-10.8,22,0,29.2,18.8,29.2,30,0,24-26.4,40.8-73.2,40.8-55.2,0-92.39-35.6-92.39-93.2C1463.17,140.8,1494.76,95.2,1556.76,95.2Z"/><path d="M1663.56,154.8a24.48,24.48,0,0,1-24-24.8c0-23.2,11.2-31.2,24.4-31.2,4.8,0,9.6.8,13.6.8,0-7.6-2.4-20-2.4-31.6,0-14.8,8.4-31.6,32.8-31.6,28.4,0,36.4,14,36.4,26.8,0,13.6-3.2,24-3.2,36.4,13.6,0,24.8-1.2,39.2-1.2,19.6,0,26.4,9.2,26.4,28.4,0,18-10,28.4-26.4,28.4-16.8,0-29.6-1.6-40.8-1.6-.8,18-3.6,36.4-2,54.4.4,4.8,1.2,12.4,9.6,12.4,7.2,0,11.2-4,11.2-12.4,0-14,10.4-18.8,23.6-18.8,22,0,30,10.8,30,26.4,0,33.2-17.6,63.6-69.6,63.6-48.8,0-70-29.6-67.2-71.2,1.2-18,2.4-36,1.6-54A121.3,121.3,0,0,1,1663.56,154.8Z"/><path d="M2004.75,187.2c0,53.2-38,90.8-87.59,90.8-57.6,0-90-37.6-90-90.4,0-58,32.4-92.4,87.59-92.4C1971.15,95.2,2004.75,127.2,2004.75,187.2ZM1944,184.4c0-16-9.61-29.6-26.41-29.6-18.79,0-28,13.2-28,32.8,0,16.4,9.2,30.8,27.6,30.8C1936.75,218.4,1944,202,1944,184.4Z"/><path d="M2094.35,192.4c0,24.8,7.6,34.8,7.6,49.6,0,19.6-6,38-36,38-27.6,0-33.2-16.4-33.2-38,0-13.2,1.6-43.6,1.6-66,0-36.8-10.8-34.8-10.8-54.8,0-10.8,5.2-26,31.6-26,22.8,0,34.8,13.2,36,27.2,6.8-16.8,17.2-27.2,44-27.2,27.6,0,46.4,21.2,46.4,50.8,0,26.4-11.6,44.4-33.2,44.4-12,0-21.6-6-21.6-17.2s-4-16.8-14.8-16.8C2098.75,156.4,2094.35,167.6,2094.35,192.4Z"/></svg>