<svg xmlns="http://www.w3.org/2000/svg" viewBox="0 0 650 650"><defs><style>.cls-1{isolation:isolate;}.cls-2{fill:#ffcbce;}.cls-3{mix-blend-mode:multiply;}.cls-4{fill:#ff5562;}</style></defs><g class="cls-1"><g id="Layer_1" data-name="Layer 1"><rect class="cls-2" width="650" height="650" rx="325"/><g class="cls-3"><path class="cls-4" d="M452,165.18c-46.45-15.65-118.84-.66-196,40.09-.82-1.17-1.68-2.34-2.6-3.51-20.64-26.25-50.62-38-80.17-31.47-24.32,5.39-43.86,22.62-48.62,42.93-4.89,21.17,2.54,35.68,9.09,48.48a121.19,121.19,0,0,1,6.83,15,40.85,40.85,0,0,1,1.73,9.31c-13.73,14.47-43,47.53-49.07,72.85C88.25,379.07,91,396,101.28,409c13,16.53,36.3,24.55,71.19,24.55H383.68a18,18,0,0,0,3,0h58c25.92,0,45.77-5.91,61.22-14.73a55.35,55.35,0,0,1,11.46,11.35c3.77,5.29,5.08,9.7,4.51,13.76s-3.5,9.61-8.77,14.77c-4.29,4.41-10.67,7.85-18.38,10.93-31.37,11.7-69.09,15.51-105.39,18.49-36.71,2.73-73.81,3.65-110.95,3.94l-112-.18a10.12,10.12,0,0,0-.37,20.24l.37,0,111.78,3.92c37.46,1,75,1.31,112.8-.22,18.89-.81,37.84-2,56.92-4.37,19.12-2.54,38.25-5.32,58-12.36,9.65-3.49,20.42-8.36,29.66-16.93,8.2-7.52,16.64-18,19.49-32.39s-2-29.14-8.76-39.11a89.82,89.82,0,0,0-12.9-15.19c16.94-21.17,22.41-45.45,24.07-56.75C566.3,278.06,544,196.18,452,165.18ZM390,397.54a93.15,93.15,0,0,1-23.73-32.41c-6-14-7.27-28.53-1.88-41a52.3,52.3,0,0,1,12-17.18,36.64,36.64,0,0,1,17-9.27c12.38-3.12,29.33,1.76,41.54,9.37l1,.61A13.92,13.92,0,0,0,451,284.36a100,100,0,0,0-29.49-13.91,74.7,74.7,0,0,0-34-2A67.1,67.1,0,0,0,355.8,284a83.55,83.55,0,0,0-20.51,27.11c-10.39,21.42-8.47,46.77-.58,66.63a140.69,140.69,0,0,0,10,19.81H172.47c-31,0-40.33-7.57-42.89-10.82-3.11-4-3.59-10.49-1.43-19.45,3.59-14.9,28.67-45.11,45.34-61.8a18,18,0,0,0,5.24-13.79c-.59-10-1.28-18.25-4.25-26.89a154.9,154.9,0,0,0-8.78-19.51c-5.68-11.09-7.91-15.91-6.07-23.9,1.37-5.8,9.71-13.34,21.33-15.92a39.05,39.05,0,0,1,8.46-.92c9.85,0,23.19,3.73,35.6,19.49,14.8,18.84.33,42.24-.4,43.39a18,18,0,0,0,30.17,19.69c.83-1.26,14.08-21.87,12.93-47.28,42.23-22.89,82.87-37.45,116.8-42.63,5.92,22.12,29.87,66,126.31,61,15.48,32.2,12.38,65.46,10.94,75.33-4.29,29.2-21.13,64-77.09,64Z"/><circle class="cls-4" cx="185.07" cy="339.97" r="17.56"/><path class="cls-4" d="M325.16,227.82c-19.5,7.5-31.48,23.51-26.77,35.74s24.33,16.06,43.83,8.55S373.7,248.6,369,236.37,344.66,220.31,325.16,227.82Z"/></g></g></g></svg>