<svg id="Layer_1" data-name="Layer 1" xmlns="http://www.w3.org/2000/svg" viewBox="0 0 976.81 536.19"><defs><style>.cls-1{fill:#faaf5e;}.cls-2,.cls-5{opacity:0.5;}.cls-3,.cls-5{fill:#e26d1e;}.cls-4{fill:#fff;}.cls-6{fill:#ffccd8;}.cls-7{fill:#d2dce8;}.cls-8{fill:#fcc99e;}.cls-9{fill:#bcbfc6;}.cls-10{fill:#81daf1;}.cls-11{opacity:0.2;}</style></defs><path class="cls-1" d="M682.91,9.33c-87-16-121.87,16.83-125.75,27.4a175.74,175.74,0,0,0-137.52,0c-3.89-10.57-39.79-38.65-125.75-27.4,0,0-5.55,123,25.49,147.71a167.52,167.52,0,0,0-3.83,35.57c0,93.83,77.39,137.14,172.85,137.14s172.84-43.31,172.84-137.14A167.52,167.52,0,0,0,657.42,157C688.46,132.31,682.91,9.33,682.91,9.33Z"/><g class="cls-2"><path class="cls-3" d="M509.89,33.2c0-3.13-.12-6.17-.3-9.16a170.74,170.74,0,0,0-42.38,0c-.18,3-.3,6-.3,9.16,0,31.42,9.62,56.89,21.49,56.89S509.89,64.62,509.89,33.2Z"/></g><g class="cls-2"><path class="cls-3" d="M531,73.82c8.42,1.31,18.18-14.8,24-37.94a174,174,0,0,0-35.08-10.27C517.57,51.74,522,72.43,531,73.82Z"/></g><path class="cls-4" d="M660.86,203.25C622.35,232.06,556.48,254.08,488.4,153c-68.09,101.06-134,79-172.46,50.23,5.67,86.45,80.69,126.5,172.46,126.5S655.19,289.7,660.86,203.25Z"/><path class="cls-5" d="M445.79,73.82c9-1.39,13.4-22.08,11-48.2a174,174,0,0,0-35.08,10.27C427.61,59,437.37,75.13,445.79,73.82Z"/><path d="M488.4,334.75c-50.73,0-94-11.87-125.15-34.33-34.47-24.86-52.7-62.14-52.7-107.81a173.1,173.1,0,0,1,3.35-33.77C301.26,146.38,293.22,118,290,74.28A627.17,627.17,0,0,1,288.89,9.1a5,5,0,0,1,4.35-4.73A299.33,299.33,0,0,1,331.8,1.72c33,0,54.54,6.59,66.82,12.12,11.95,5.39,19.35,11.53,23.13,16.61a180.81,180.81,0,0,1,133.21,0C563.48,18.25,590,0,638.76,0a250.21,250.21,0,0,1,45.06,4.41,5,5,0,0,1,4.09,4.69,627.17,627.17,0,0,1-1.12,65.18c-3.22,43.68-11.25,72.1-23.89,84.56a173,173,0,0,1,3.34,33.77c0,45.67-18.22,82.95-52.7,107.81C582.4,322.88,539.13,334.75,488.4,334.75Zm-189.68-321c-1.21,36.34.89,121.13,23.77,139.36a5,5,0,0,1,1.77,5,163.36,163.36,0,0,0-3.71,34.51c0,82.74,62.75,132.14,167.85,132.14s167.84-49.4,167.84-132.14a163.36,163.36,0,0,0-3.71-34.51,5,5,0,0,1,1.77-5c22.94-18.28,25-103.36,23.77-139.58A235.57,235.57,0,0,0,638.76,10c-50.7,0-74.12,20.86-76.91,28.45a5,5,0,0,1-6.66,2.88,170.71,170.71,0,0,0-133.59,0A5,5,0,0,1,415,38.45c-.77-2.09-5.95-9-20.44-15.49C383.12,17.83,363,11.72,331.8,11.72A283.89,283.89,0,0,0,298.72,13.77Z"/><path class="cls-6" d="M636.07,117.79S588.5,87.91,582.79,59.43,640,22.13,656.1,33.69,660.81,132,636.07,117.79Z"/><path class="cls-6" d="M340.72,117.79S388.3,87.91,394,59.43s-57.25-37.3-73.31-25.74S316,132,340.72,117.79Z"/><path d="M507.5,210.38c0,3.87-8.55,14.65-19.1,14.65s-19.11-10.78-19.11-14.65,8.56-8.92,19.11-8.92S507.5,206.51,507.5,210.38Z"/><path d="M501.34,248.81h-.21c-4.67-.07-8.93-2.28-12.73-6.61-3.8,4.33-8.06,6.54-12.73,6.61h-.21c-10.59,0-17.83-11.4-18.63-12.71a5,5,0,1,1,8.55-5.19c1.26,2.05,5.83,7.9,10.08,7.9h.08c3.41-.06,6.51-4.26,8.51-7.78a5,5,0,0,1,8.7,0c2,3.52,5.1,7.73,8.52,7.78,4.36.08,9.12-6.22,10.15-7.9A5,5,0,1,1,520,236.1C519.17,237.41,511.93,248.81,501.34,248.81Z"/><circle cx="405.73" cy="171.3" r="21" transform="translate(-34.66 167.14) rotate(-22.35)"/><path class="cls-4" d="M418.47,161.8a3.62,3.62,0,1,1-3.62-3.61A3.62,3.62,0,0,1,418.47,161.8Z"/><circle cx="571.96" cy="171.3" r="21" transform="translate(46.4 454.61) rotate(-45)"/><path class="cls-4" d="M584.69,161.8a3.62,3.62,0,1,1-3.61-3.61A3.62,3.62,0,0,1,584.69,161.8Z"/><path class="cls-4" d="M652.09,401.65s63.94,0,63.53,37.87-1.55,35.59-49.76,35.59-36-36.72-36-36.72Z"/><path d="M711,415.41c-5.71-5.8-13.37-9.81-21.29-12.6-1.66-.59-3.33-1.1-5-1.59s-3.37-.93-5-1.31c-4.24-1-8.34-1.72-12-2.22a125.17,125.17,0,0,0-15.6-1.2,5.15,5.15,0,0,0-4.42,2.48l-22.25,36.74a4.73,4.73,0,0,0-.48,1.05,39.44,39.44,0,0,0-1.59,13.31,34.51,34.51,0,0,0,.68,5.16,29.42,29.42,0,0,0,1.58,5.17,28.3,28.3,0,0,0,3.13,5.65c4.43,6.13,11.25,10.29,20.35,12.44a56.6,56.6,0,0,0,7.92,1.33c.49.07,1,.1,1.47.14,2.34.2,4.8.31,7.38.31h9.25l4.79,0c1.67,0,3.25,0,4.8,0,4.08,0,7.75-.1,11-.32,8.56-.59,14.43-2.17,18.53-6.36,3.11-3.18,4.71-7.35,5.56-13.2.22-1.58.39-3.31.53-5.17.12-1.61.19-3.34.26-5.16.12-3.15.16-6.63.21-10.49A32.72,32.72,0,0,0,711,415.41Zm-.77,34.66c-.07,1.86-.15,3.6-.28,5.16a46.26,46.26,0,0,1-.65,5.17c-.52,2.77-1.29,4.79-2.48,6-3.27,3.32-12.79,3.58-26.94,3.58h-.37l-5.25,0h-8.42a72.51,72.51,0,0,1-9.83-.62c-8.76-1.22-15-4.2-18.59-8.92a3.07,3.07,0,0,1-.28-.35,16.73,16.73,0,0,1-2.44-4.82,21.62,21.62,0,0,1-1-5.16,29.72,29.72,0,0,1,.91-9.57L655,406.9c2.49.13,6.45.4,11.14,1a113.18,113.18,0,0,1,12.07,2.22c1.67.41,3.35.86,5,1.38s3.33,1.07,5,1.69c5.91,2.25,11.44,5.33,15.55,9.47a22.43,22.43,0,0,1,6.77,16.78C710.42,443.41,710.37,446.94,710.25,450.07Z"/><path class="cls-4" d="M324.72,401.65s-63.94,0-63.54,37.87,1.56,35.59,49.77,35.59,36-36.72,36-36.72Z"/><path d="M351.87,436.76a5.85,5.85,0,0,0-.48-1.05L329.14,399a5.15,5.15,0,0,0-4.42-2.48,132.15,132.15,0,0,0-27.63,3.42c-1.66.38-3.33.81-5,1.31s-3.35,1-5,1.59c-7.92,2.79-15.58,6.8-21.3,12.6A32.75,32.75,0,0,0,256,439.58c.05,3.86.09,7.34.21,10.49.07,1.82.14,3.55.26,5.16.13,1.86.31,3.59.53,5.17.84,5.85,2.45,10,5.56,13.2,4.1,4.19,10,5.77,18.53,6.36,3.25.22,6.92.31,11,.32,1.55,0,3.13,0,4.8,0l4.79,0H311c.24,0,.49,0,.74,0,2.3,0,4.52-.1,6.64-.29.5,0,1-.07,1.47-.14,10.88-1.14,19.24-4.48,25-10a27.12,27.12,0,0,0,3.28-3.73,28.3,28.3,0,0,0,3.13-5.65,29.42,29.42,0,0,0,1.58-5.17,33.2,33.2,0,0,0,.67-5.16A39.29,39.29,0,0,0,351.87,436.76Zm-9.78,18.47a16.88,16.88,0,0,1-2.41,4.77,3,3,0,0,1-.31.4c-4.84,6.34-14.41,9.54-28.42,9.54h-8.42l-5.26,0h-.36c-14.15,0-23.67-.26-26.94-3.58-1.19-1.2-2-3.22-2.48-6a48.55,48.55,0,0,1-.66-5.17c-.12-1.56-.2-3.3-.27-5.16-.12-3.13-.17-6.66-.21-10.61a22.43,22.43,0,0,1,6.77-16.78c4.11-4.14,9.64-7.22,15.55-9.47,1.63-.62,3.28-1.19,4.95-1.69s3.34-1,5-1.38a129.13,129.13,0,0,1,23.23-3.24l20.33,33.58a30.3,30.3,0,0,1,.9,9.59A22.59,22.59,0,0,1,342.09,455.23Z"/><path class="cls-7" d="M742.12,455.23c0,16.69-10.32,30.22-23,30.22H257.74c-12.73,0-23.06-13.53-23.06-30.22Z"/><path d="M742.12,450.07H234.69a5.16,5.16,0,0,0-5.17,5.16A40.2,40.2,0,0,0,237.6,480a29.13,29.13,0,0,0,5.06,5.16l.05,0a24.35,24.35,0,0,0,11.3,5.13,21,21,0,0,0,3.73.33H719.07a21,21,0,0,0,3.73-.33,24.19,24.19,0,0,0,10.88-4.81l.47-.36a29.47,29.47,0,0,0,5.06-5.16,40.2,40.2,0,0,0,8.07-24.73A5.15,5.15,0,0,0,742.12,450.07Zm-10,22.31c-2.63,3.95-6.18,6.7-10.17,7.58a12.31,12.31,0,0,1-2.84.32H257.74a12.31,12.31,0,0,1-2.84-.32c-4.18-.93-7.87-3.89-10.55-8.13a29.48,29.48,0,0,1-4.12-11.43H736.58A29.37,29.37,0,0,1,732.08,472.38Z"/><path class="cls-8" d="M937.38,508.07c0,12.68-8.28,23-18.51,23H57.94c-10.23,0-18.52-10.28-18.52-23h0c0-12.67,8.29-22.95,18.52-22.95H918.87c10.23,0,18.51,10.28,18.51,22.95Z"/><path d="M918.87,480H57.94c-13,0-23.68,12.6-23.68,28.11a31.38,31.38,0,0,0,5.36,17.79c4.34,6.3,11,10.33,18.32,10.33H918.87c7.37,0,14-4,18.32-10.33a31.38,31.38,0,0,0,5.36-17.79C942.55,492.56,931.92,480,918.87,480Zm0,45.9H57.94c-7.37,0-13.35-8-13.35-17.79s6-17.78,13.35-17.78H918.87c7.35,0,13.35,8,13.35,17.78S926.22,525.86,918.87,525.86Z"/><path d="M976.81,531a5.18,5.18,0,0,1-5.17,5.17H5.17a5.17,5.17,0,1,1,0-10.33H971.64A5.18,5.18,0,0,1,976.81,531Z"/><path class="cls-7" d="M674.34,469.73c-1.32,8.65-10.93,15.72-21.37,15.72H323.84c-10.44,0-20.06-7.07-21.37-15.72L272.83,274.55c-1.31-8.64,6.16-15.72,16.59-15.72h398c10.44,0,17.91,7.08,16.6,15.72Z"/><path class="cls-9" d="M683.67,295.33,657.12,465.41C655.4,476.35,643.2,485.3,630,485.3H328.42c-11,0-21.3-6.21-25.42-14.6,46.1,1.26,95.57-5,144.66-19.84,112.59-33.92,192.56-103.36,213.47-175.4h1.63C676,275.46,685.39,284.39,683.67,295.33Z"/><path d="M705,261.13c-4.08-4.74-10.5-7.46-17.61-7.46h-398c-7.11,0-13.53,2.72-17.61,7.46a17.4,17.4,0,0,0-4.08,14.2l19.35,127.48.79,5.21.8,5.19,5.59,36.86.78,5.16.79,5.17,1.44,9.57.09.54a19.45,19.45,0,0,0,1.31,4.63,22,22,0,0,0,2.79,4.82l.24.32a25.41,25.41,0,0,0,5.08,4.84,3.72,3.72,0,0,0,.45.33,28.87,28.87,0,0,0,12.26,4.84,28.37,28.37,0,0,0,4.35.33H653a28.47,28.47,0,0,0,4.35-.33,28.87,28.87,0,0,0,12.26-4.84c.16-.1.31-.21.47-.33a26.16,26.16,0,0,0,5.06-4.84l.24-.32a22,22,0,0,0,2.79-4.82,19.45,19.45,0,0,0,1.31-4.63l.08-.54L681,460.4l.79-5.17.78-5.16,5.59-36.86.8-5.19.79-5.21,19.35-127.48A17.4,17.4,0,0,0,705,261.13ZM678.93,405l-.77,5.11-6.06,39.93-.8,5.16-.79,5.17L669.22,469a9.05,9.05,0,0,1-.21,1,11.57,11.57,0,0,1-3.13,5.16h0a18,18,0,0,1-8.85,4.72,5,5,0,0,1-.67.14,17.26,17.26,0,0,1-3.37.32H323.84a17.19,17.19,0,0,1-3.37-.32,5,5,0,0,1-.67-.14,18.31,18.31,0,0,1-8.89-4.72,12.36,12.36,0,0,1-2.86-4.3c-.1-.29-.19-.57-.26-.86a7.22,7.22,0,0,1-.22-1l-1.29-8.56-1.58-10.33-6.07-39.93-.77-5.11-.77-5.12L277.94,273.78a7.31,7.31,0,0,1,1.7-5.92c2.12-2.45,5.69-3.86,9.78-3.86h398c4.09,0,7.66,1.41,9.77,3.86a7.27,7.27,0,0,1,1.71,5.92L679.71,399.91Z"/><ellipse cx="488.4" cy="392.87" rx="21.87" ry="18.25"/><path class="cls-7" d="M190.82,472.68a17.15,17.15,0,0,1-2.77,9.18H107.51a17.16,17.16,0,0,1-2.78-9.18c0-14.39,19.27-26,43.05-26S190.82,458.29,190.82,472.68Z"/><path d="M147.78,441.48c-27,0-48.21,13.7-48.21,31.2a21.2,21.2,0,0,0,1.29,7.28,24.33,24.33,0,0,0,2.27,4.65,5.63,5.63,0,0,0,.36.51,5.16,5.16,0,0,0,4,1.91h80.54a5.15,5.15,0,0,0,4-1.91,5.63,5.63,0,0,0,.36-.51,23.75,23.75,0,0,0,2.27-4.65,21.21,21.21,0,0,0,1.3-7.28C196,455.18,174.81,441.48,147.78,441.48ZM184.9,476.7H110.66a11.28,11.28,0,0,1-.76-4c0-11.32,17.35-20.87,37.88-20.87s37.87,9.55,37.87,20.87A11.27,11.27,0,0,1,184.9,476.7Z"/><path class="cls-10" d="M872.63,394.11a43.18,43.18,0,0,0-10.33,0,32.39,32.39,0,0,0-3.74.59,42.48,42.48,0,0,0-15,6.13C833.51,407.4,827,418,827,429.89a31.88,31.88,0,0,0,1.5,9.69c4,12.69,15.55,22.59,30.06,25.5a32.39,32.39,0,0,0,3.74.59,43.18,43.18,0,0,0,10.33,0c19.88-2.26,35.29-17.46,35.29-35.78S892.51,396.37,872.63,394.11Zm0,59.32a26.41,26.41,0,0,1-10.33,0,27.23,27.23,0,0,1-3.74-1.07,23.76,23.76,0,0,1,0-45,27.21,27.21,0,0,1,3.74-1.06,25.91,25.91,0,0,1,10.33,0c11.29,2.3,19.8,12,19.8,23.55S883.92,451.12,872.63,453.43Z"/><path d="M872.63,401.1a29.87,29.87,0,0,0-10.33,0,24.48,24.48,0,0,0-3.74.86,29.4,29.4,0,0,0-21.23,27.93c0,13.1,8.95,24.22,21.23,27.93a27.06,27.06,0,0,0,3.74.84,29.87,29.87,0,0,0,10.33,0c14.15-2.36,25-14.38,25-28.77S886.78,403.46,872.63,401.1Zm0,47a20.54,20.54,0,0,1-10.33,0,18.6,18.6,0,0,1-3.74-35.1,18.17,18.17,0,0,1,3.74-1.38,20.85,20.85,0,0,1,10.33,0,18.69,18.69,0,0,1,0,36.48Zm0-47a29.87,29.87,0,0,0-10.33,0,24.48,24.48,0,0,0-3.74.86,29.4,29.4,0,0,0-21.23,27.93c0,13.1,8.95,24.22,21.23,27.93a27.06,27.06,0,0,0,3.74.84,29.87,29.87,0,0,0,10.33,0c14.15-2.36,25-14.38,25-28.77S886.78,403.46,872.63,401.1Zm0,47a20.54,20.54,0,0,1-10.33,0,18.6,18.6,0,0,1-3.74-35.1,18.17,18.17,0,0,1,3.74-1.38,20.85,20.85,0,0,1,10.33,0,18.69,18.69,0,0,1,0,36.48Zm0-59.21a49.54,49.54,0,0,0-10.33,0,43.49,43.49,0,0,0-5.27.83,47.52,47.52,0,0,0-12.47,4.49c-13.58,7.13-22.72,20.44-22.72,35.66A37.34,37.34,0,0,0,825,444.82c5.56,13,18.2,22.78,33.61,25.53,1.24.22,2.48.4,3.74.52a49.54,49.54,0,0,0,10.33,0c22.72-2.31,40.46-19.82,40.46-41S895.35,391.22,872.63,388.91Zm0,71.56a39.4,39.4,0,0,1-10.33,0c-1.26-.16-2.52-.38-3.74-.66C844.49,456.59,833.8,446,832.36,433a22.06,22.06,0,0,1-.19-3.06,28.93,28.93,0,0,1,9.6-21.19A36.53,36.53,0,0,1,858.56,400c1.22-.28,2.48-.5,3.74-.66a39.4,39.4,0,0,1,10.33,0c17,2.19,30.13,15.05,30.13,30.58S889.64,458.28,872.63,460.47Zm0-59.37a29.87,29.87,0,0,0-10.33,0,24.48,24.48,0,0,0-3.74.86,29.4,29.4,0,0,0-21.23,27.93c0,13.1,8.95,24.22,21.23,27.93a27.06,27.06,0,0,0,3.74.84,29.87,29.87,0,0,0,10.33,0c14.15-2.36,25-14.38,25-28.77S886.78,403.46,872.63,401.1Zm0,47a20.54,20.54,0,0,1-10.33,0,18.6,18.6,0,0,1-3.74-35.1,18.17,18.17,0,0,1,3.74-1.38,20.85,20.85,0,0,1,10.33,0,18.69,18.69,0,0,1,0,36.48Z"/><rect class="cls-10" x="775.64" y="373.9" width="91.83" height="107.96" rx="8.61"/><path d="M858.85,368.73h-74.6a13.79,13.79,0,0,0-13.77,13.78v90.75a13.78,13.78,0,0,0,6.8,11.86,13.45,13.45,0,0,0,7,1.91h74.6a13.82,13.82,0,0,0,13.78-13.77V382.51A13.79,13.79,0,0,0,858.85,368.73Zm3.45,104.53a3.5,3.5,0,0,1-3.45,3.44h-74.6a3.48,3.48,0,0,1-3.44-3.44V382.51a3.49,3.49,0,0,1,3.44-3.45h74.6a3.51,3.51,0,0,1,3.45,3.45Z"/><rect class="cls-10" x="775.64" y="373.9" width="91.83" height="107.96" rx="8.61"/><path d="M858.85,368.73h-74.6a13.79,13.79,0,0,0-13.77,13.78v90.75a13.78,13.78,0,0,0,6.8,11.86,13.45,13.45,0,0,0,7,1.91h74.6a13.82,13.82,0,0,0,13.78-13.77V382.51A13.79,13.79,0,0,0,858.85,368.73Zm3.45,104.53a3.5,3.5,0,0,1-3.45,3.44h-74.6a3.48,3.48,0,0,1-3.44-3.44V382.51a3.49,3.49,0,0,1,3.44-3.45h74.6a3.51,3.51,0,0,1,3.45,3.45Z"/><g class="cls-11"><path d="M851.62,387h-6.34c-2.76,41.78-27,76.51-59.9,89.1a6.89,6.89,0,0,0,6.1,4h60.14a7.21,7.21,0,0,0,6.94-7.42V394.37A7.21,7.21,0,0,0,851.62,387Z"/></g><ellipse cx="147.78" cy="469.42" rx="5.17" ry="11.52"/></svg>