<svg xmlns="http://www.w3.org/2000/svg" viewBox="0 0 650 650"><defs><style>.cls-1{isolation:isolate;}.cls-2{fill:#d685f9;}.cls-3{fill:#8715e3;mix-blend-mode:multiply;}</style></defs><g class="cls-1"><g id="Layer_1" data-name="Layer 1"><rect class="cls-2" width="650" height="650" rx="325"/><path class="cls-3" d="M526.42,492.55H374.91V275.89a35.39,35.39,0,1,0,31.53-51.34c-.58,0-1.12.14-1.7.17L374.91,110.13V93.7A13.76,13.76,0,0,0,361.16,80H288.84A13.76,13.76,0,0,0,275.09,93.7V492.55H123.58a13.75,13.75,0,0,0,0,27.5H526.42a13.75,13.75,0,1,0,0-27.5ZM302.6,395.66v-9.17h44.8v9.17Zm44.8,9.17V414H302.6v-9.17Zm-44.8-27.5v-9.17h44.8v9.17Zm0-18.34V351h44.8V359Zm0-17.12V331.48h44.8v10.39Zm0-19.56v-9.17h44.8v9.17Zm0-18.33v-9.17h44.8V304Zm0-18.34v-9.17h44.8v9.17Zm0-18.34v-9.17h44.8v9.17Zm0-18.34v-9.17h44.8V249Zm0-18.33v-9.17h44.8v9.17Zm0-18.34v-9.17h44.8v9.17Zm0-18.34v-9.17h44.8V194Zm0-18.34v-9.17h44.8v9.17Zm0-18.34v-9.16h44.8v9.16Zm0,265.9h44.8v9.17H302.6Zm44.8-284.23H302.6v-9.17h44.8ZM302.6,441.51h44.8v9.17H302.6ZM347.4,120.6H302.6V107.45h44.8ZM302.6,459.85h44.8v10.38H302.6ZM423.56,260a17.12,17.12,0,1,1-17.12-17.12A17.15,17.15,0,0,1,423.56,260Zm-36.32-29.73a35.56,35.56,0,0,0-12.33,13.84v-61.2ZM302.6,479.4h44.8v13.15H302.6Z"/></g></g></svg>