<svg id="Layer_1" data-name="Layer 1" xmlns="http://www.w3.org/2000/svg" viewBox="0 0 379.28 434.83"><defs><style>.cls-1{fill:#faaf5e;}.cls-2{fill:#fff;}.cls-3{fill:#96c6fc;}.cls-4{fill:#22b573;}.cls-5{fill:#c1272d;}.cls-6{fill:#ffa356;}.cls-7{opacity:0.61;}.cls-8{fill:#e26d1e;}.cls-9{fill:#ffccd8;}.cls-10{fill:#f78c8b;}.cls-11{fill:#ccc;}</style></defs><path class="cls-1" d="M288.5,333.53A41.22,41.22,0,0,0,308.44,328c8.82-4.89,13.26-10.13,12.16-14.39-1.15-4.42-8.21-8.3-15.12-8.3a15,15,0,0,0-5.3.89,48.33,48.33,0,0,1-16.92,2.61c-2.26,0-4.5-.11-6.68-.27q-2.28,11.52-7.89,19a36.82,36.82,0,0,0,19.81,6.06Z"/><path d="M276.58,308.49c2.18.16,4.42.27,6.68.27a48.33,48.33,0,0,0,16.92-2.61,15,15,0,0,1,5.3-.89c6.91,0,14,3.88,15.12,8.3,1.1,4.26-3.34,9.5-12.16,14.39a41.22,41.22,0,0,1-19.94,5.58h0a36.82,36.82,0,0,1-19.81-6.06,31.33,31.33,0,0,1-5.83,5.95,45.21,45.21,0,0,0,25.63,8.24h0a49.17,49.17,0,0,0,23.88-6.6c16.88-9.33,17.33-18.75,16.09-23.53-2.32-9-13.51-14.4-23-14.4a23,23,0,0,0-8.17,1.41,40.52,40.52,0,0,1-14.05,2.08c-1.86,0-3.72-.08-5.54-.21A79.8,79.8,0,0,1,276.58,308.49Z"/><path class="cls-1" d="M242.93,272.17a39.8,39.8,0,0,1-4.74,10.93,51.18,51.18,0,0,1,7.14,3,4.06,4.06,0,0,1-2.54,7.59l-4.63,30.42,2.92.6a4.06,4.06,0,0,1,8,1c-.11,2-.29,3.89-.56,5.67a25.34,25.34,0,0,0,7.34-3c9.76-6,14.48-19.31,14.09-39.47a4.06,4.06,0,0,1-5.57-5.61,12.93,12.93,0,0,1,1.72-2.11l-7-17.37A142.41,142.41,0,0,1,242.93,272.17Z"/><path class="cls-1" d="M118.93,261.72a20.18,20.18,0,0,0-2,.71c-5.81,2.52-10.45,8-13.85,16.45,4.44,2.55,9,5.09,13.72,7.61A144.32,144.32,0,0,1,118.93,261.72Z"/><path d="M271.31,287.62a3.93,3.93,0,0,1-1.33,1.3c.39,20.16-4.33,33.43-14.09,39.47a25.34,25.34,0,0,1-7.34,3,36.44,36.44,0,0,1-2.34,8.67,34.67,34.67,0,0,0,14-4.75,28.35,28.35,0,0,0,2.7-1.89,31.33,31.33,0,0,0,5.83-5.95q5.61-7.44,7.89-19a79.8,79.8,0,0,0,1.14-8.08,117.58,117.58,0,0,0,.19-16.81C273.32,285.21,271.8,286.84,271.31,287.62Z"/><path d="M103.12,278.88c3.4-8.41,8-13.93,13.85-16.45a20.18,20.18,0,0,1,2-.71c.48-2.94,1-5.84,1.6-8.68a27.17,27.17,0,0,0-6.69,1.88c-7.6,3.26-13.56,9.91-17.8,19.82C98.35,276.12,100.72,277.5,103.12,278.88Z"/><path class="cls-2" d="M185.25,313.14c.56-5.05,3.4-11.17,8.6-18.53A33,33,0,0,1,209,282.55,129.49,129.49,0,0,1,186.74,285h-.06a4,4,0,0,1-2.42-.81,92.53,92.53,0,0,1-12.49-11.93c-6.11,11.24-7.1,29.43-7.22,37.66,5.43,2.47,10.85,4.86,16.21,7.18A16.53,16.53,0,0,1,185.25,313.14Z"/><path class="cls-2" d="M219,280.34a43,43,0,0,1,7.9.19,55.25,55.25,0,0,1,11.26,2.57,39.8,39.8,0,0,0,4.74-10.93,151.8,151.8,0,0,1-18.06,6.57C222.88,279.32,220.92,279.85,219,280.34Z"/><path class="cls-1" d="M200.49,299.31a49,49,0,0,0-6.21,11c13-1.3,28.63,5.92,31,7.07a4,4,0,0,1,2.2,4.48l10.67,2.19,4.63-30.42a3.94,3.94,0,0,1-1.31-.42C240.39,292.67,214.67,279.26,200.49,299.31Z"/><path d="M219,280.34c-3.57.9-6.95,1.63-10.08,2.21a33,33,0,0,0-15.1,12.06c-5.2,7.36-8,13.48-8.6,18.53a21.56,21.56,0,0,1,9-2.79,49,49,0,0,1,6.21-11c14.18-20.05,39.9-6.64,41-6.06a3.94,3.94,0,0,0,1.31.42,4.06,4.06,0,0,0,2.54-7.59,51.18,51.18,0,0,0-7.14-3,55.25,55.25,0,0,0-11.26-2.57A43,43,0,0,0,219,280.34Z"/><path class="cls-2" d="M227.49,321.9a4.22,4.22,0,0,1-.31,1,4.06,4.06,0,0,1-5.43,1.89c-6.41-3.08-24.94-9.78-32.91-4.2,17.56,7.43,34.26,13.94,48.45,19,2.14-3.2,3.36-7.91,3.69-14.29a6,6,0,0,1,.1-.61l-2.92-.6Z"/><path d="M248.55,331.39c.27-1.78.45-3.66.56-5.67a4.06,4.06,0,0,0-8-1,6,6,0,0,0-.1.61c-.33,6.38-1.55,11.09-3.69,14.29,2.7,1,5.32,1.89,7.83,2.76a24.22,24.22,0,0,0,1.09-2.29A36.44,36.44,0,0,0,248.55,331.39Z"/><path d="M221.75,324.74a4.06,4.06,0,0,0,5.43-1.89,4.22,4.22,0,0,0,.31-1,4,4,0,0,0-2.2-4.48c-2.38-1.15-18-8.37-31-7.07a21.56,21.56,0,0,0-9,2.79,16.53,16.53,0,0,0-4.49,3.94c2.71,1.18,5.41,2.33,8.08,3.46C196.81,315,215.34,321.66,221.75,324.74Z"/><path class="cls-3" d="M88.51,279.69q-5.7-3.48-11-6.95c-9.39-6.23-19.27-9.94-28.87-10.92a67.3,67.3,0,0,1,23.59,11.71q3.53,2.67,7.34,5.3c.58,0,1.17-.07,1.78-.07A28.77,28.77,0,0,1,88.51,279.69Z"/><path class="cls-3" d="M242.59,352.83c5.78,1.84,11,3.4,15.4,4.65,12.7,3.57,21.55,7.54,27.3,12.33-3.51-5.64-10.64-9.91-21.72-13-6.55-1.85-15.1-4.62-25-8.13A27.84,27.84,0,0,1,242.59,352.83Z"/><path class="cls-3" d="M107.93,294a21.16,21.16,0,0,1,1.31,2.94c3.1,1.7,6.26,3.4,9.47,5.07a54.55,54.55,0,0,1-1.17-6q-6.9-3.63-13.51-7.31A26,26,0,0,1,107.93,294Z"/><path class="cls-3" d="M165.41,324c15.88,6.78,31.55,12.9,45.86,18.12a23.82,23.82,0,0,1,6.88-1c-16.08-6.17-34.11-13.6-52.4-21.78A13.69,13.69,0,0,1,165.41,324Z"/><path d="M35.72,260.13a52.05,52.05,0,0,1,13,1.69c9.6,1,19.48,4.69,28.87,10.92q5.25,3.47,11,6.95a32.62,32.62,0,0,1,6.71,2.54,31.62,31.62,0,0,1,8.81,6.51q6.6,3.67,13.51,7.31a79.14,79.14,0,0,1-.7-9.56c-4.69-2.52-9.28-5.06-13.72-7.61-2.4-1.38-4.77-2.76-7.08-4.14-4.9-2.93-9.58-5.86-14-8.79-12.38-8.2-25.66-12.53-38.41-12.53-18.19,0-32.92,8.66-39.19,22.53C10.42,266.13,21.88,260.13,35.72,260.13Z"/><path d="M237.29,339.59c-14.19-5.11-30.89-11.62-48.45-19-2.67-1.13-5.37-2.28-8.08-3.46-5.36-2.32-10.78-4.71-16.21-7.18,0,1.73,0,3,0,3.72a24.41,24.41,0,0,1,1.2,5.72c18.29,8.18,36.32,15.61,52.4,21.78h0a31.43,31.43,0,0,1,12.52,2.73,32.71,32.71,0,0,1,7.83,4.81c9.92,3.51,18.47,6.28,25,8.13,11.08,3.11,18.21,7.38,21.72,13a23.55,23.55,0,0,1,6.63,8.36c4.4,9.66.22,20.91-3.92,29.62,6-12.6,11.34-27.14,5.76-39.41-4.06-8.92-13.22-15.28-28-19.43-5.57-1.56-12.58-3.8-20.66-6.6C242.61,341.48,240,340.56,237.29,339.59Z"/><path class="cls-1" d="M283.92,244.37a126.6,126.6,0,0,1-24.83,19.46l7,17.37c5.88-5.93,19.65-9.16,42-9.84,4.21-.12,8.33-.15,12.18-.11-.3-3.24.24-6.17,2.46-7.84,4.9-3.7,0-16.3,1.57-25.69a132,132,0,0,0-18-3.3q-3.27,2-6.85,3.78A106.74,106.74,0,0,1,283.92,244.37Z"/><path class="cls-2" d="M322.73,263.41c-2.22,1.67-2.76,4.6-2.46,7.84,12.05.11,21.37.83,21.88.87a4.08,4.08,0,0,1,1.88.63c3.12,2,4.63,2,4.94,1.81.78-.44,1.42-3.11,1.37-4.91a4.08,4.08,0,0,1,1.27-3.07c5.45-5.14,1.88-9.89.65-11.23a3.91,3.91,0,0,1-1.08-2.44c-.37-4.38-1.5-7.33-3.19-8.29-1.84-1.05-4.54.2-4.57.21a4,4,0,0,1-4.41-.51c-3.34-2.77-8.49-4.93-14.71-6.6C322.69,247.11,327.63,259.71,322.73,263.41Z"/><path d="M351.92,237.49a12.66,12.66,0,0,0-9.64-.87c-6.29-4.31-15.82-7.16-26.49-9a78.7,78.7,0,0,1-9.52,6.82,132,132,0,0,1,18,3.3c6.22,1.67,11.37,3.83,14.71,6.6a4,4,0,0,0,4.41.51s2.73-1.26,4.57-.21c1.69,1,2.82,3.91,3.19,8.29a3.91,3.91,0,0,0,1.08,2.44c1.23,1.34,4.8,6.09-.65,11.23a4.08,4.08,0,0,0-1.27,3.07c.05,1.8-.59,4.47-1.37,4.91-.31.18-1.82.2-4.94-1.81a4.08,4.08,0,0,0-1.88-.63c-.51,0-9.83-.76-21.88-.87-3.85,0-8,0-12.18.11-22.31.68-36.08,3.91-42,9.84a12.93,12.93,0,0,0-1.72,2.11,4.05,4.05,0,0,0,5.57,5.61,3.93,3.93,0,0,0,1.33-1.3c.49-.78,2-2.41,6.6-4,5.2-1.82,14.33-3.61,30.37-4.1,14.56-.45,28.52.4,32.26.66,4.87,2.89,9,3.4,12.42,1.49,4.21-2.36,5.22-7.56,5.45-10.38a15.29,15.29,0,0,0,4.26-10,16.87,16.87,0,0,0-3.52-10.34C358.37,244.25,355.94,239.73,351.92,237.49Z"/><path class="cls-3" d="M57.87,319.43a28.14,28.14,0,0,1,2.88.17c-5-5.92-6.77-13.08-4-19,3.25-10.81,8.88-15.28,10.9-16.6A15.86,15.86,0,0,1,70,282c-.9-.65-1.78-1.31-2.65-2-12.88-9.72-24.32-11.76-31.65-11.76-13.5,0-24,7-26.82,17.82-3.11,12.05,3.2,30,26.58,49.39,3.17-6.71,7.07-9.79,8.7-10.85C47.34,321.33,52.2,319.43,57.87,319.43Z"/><path class="cls-3" d="M245.85,370.08a.89.89,0,0,1-.08.17.08.08,0,0,0,0,0,1.65,1.65,0,0,0-.11.21c-.14.29-.29.58-.45.86-1.26,2.44-4.51,8.56-7.65,13.42a14.1,14.1,0,0,1-1.13,1.68c-3.2,4.1-8.76,6.44-15.24,6.44-.46,0-.92,0-1.38,0,5.45,5.74,7.56,13,4.85,19.15a1.3,1.3,0,0,1-.08.17.06.06,0,0,0,0,0l-.1.17a9.51,9.51,0,0,1-.46.9c-.62,1.2-1.71,3.26-3,5.63a137,137,0,0,0,23.86,2.37h0c14,0,24.1-3.12,30.56-9.51a25.93,25.93,0,0,0,5.25-7.47c5-10.59,6.21-17.61,3.87-22.76-2.91-6.39-12-11.55-28.74-16.24-2.69-.76-5.67-1.64-8.88-2.62A14.13,14.13,0,0,1,245.85,370.08Z"/><path class="cls-3" d="M197,383c.46,0,.92,0,1.39,0-5.35-5.62-7.49-12.66-5-18.77,2.41-10,7.06-14.83,9.35-16.71-13.45-5-27.91-10.74-42.51-17a15.87,15.87,0,0,1-8,1.57,16.6,16.6,0,0,1-9.2,3,16.15,16.15,0,0,1-2.29-.17,18,18,0,0,1-10.49-6.13c-6.32-2.05-10.25-5.37-11.7-9.88a13.26,13.26,0,0,1,0-7.83q-4.42-2.27-8.75-4.57a13.42,13.42,0,0,1-1,2.74l-.09.17,0,0-.08.15c-.16.28-.32.57-.5.84-1.38,2.34-5,8.31-8.42,13a13.46,13.46,0,0,1-1.22,1.62c-3.18,3.63-8.19,5.62-14.1,5.62a26,26,0,0,1-2.91-.17,25.36,25.36,0,0,1,2.89,4.15c2.87,5.21,3.21,10.77.94,15.25l-.1.17v0l-.09.14a9,9,0,0,1-.5.85c-1.15,1.95-3.85,6.43-6.71,10.6,20.25,9.86,62.07,29.82,94.7,42.77,2.74-9.68,7.58-14,9.45-15.42C185.31,385.25,190.62,383,197,383Z"/><path d="M109.86,306.53q4.32,2.31,8.75,4.57a18.43,18.43,0,0,1,1.73-4.05,40.39,40.39,0,0,1-1.63-5c-3.21-1.67-6.37-3.37-9.47-5.07A16.16,16.16,0,0,1,109.86,306.53Z"/><path d="M172.17,406.23c.15-.6.31-1.16.47-1.73-32.63-12.95-74.45-32.91-94.7-42.77-.57.82-1.14,1.64-1.7,2.41A13.81,13.81,0,0,1,75,365.76a14.17,14.17,0,0,1-2.61,2.33c19.82,9.7,64.37,31.09,98.82,44.61A14.21,14.21,0,0,1,172.17,406.23Z"/><path d="M33.27,341.24a41.88,41.88,0,0,1,2.21-5.76C12.1,316.08,5.79,298.14,8.9,286.09c2.79-10.82,13.32-17.82,26.82-17.82,7.33,0,18.77,2,31.65,11.76.87.65,1.75,1.31,2.65,2a19.31,19.31,0,0,1,9.59-3.16q-3.81-2.62-7.34-5.3a67.3,67.3,0,0,0-23.59-11.71,52.05,52.05,0,0,0-13-1.69c-13.84,0-25.3,6-31.27,15.82A29.87,29.87,0,0,0,1,284.06c-2,7.9-2,20.76,9.64,37.15a113,113,0,0,0,21.8,22.33A13.36,13.36,0,0,1,33.27,341.24Z"/><path d="M291.92,378.17a23.55,23.55,0,0,0-6.63-8.36c-5.75-4.79-14.6-8.76-27.3-12.33-4.43-1.25-9.62-2.81-15.4-4.65.53.68,1,1.37,1.48,2.08a18.88,18.88,0,0,1,2.83,7.78c3.21,1,6.19,1.86,8.88,2.62,16.7,4.69,25.83,9.85,28.74,16.24,2.34,5.15,1.15,12.17-3.87,22.76a25.93,25.93,0,0,1-5.25,7.47c-6.46,6.39-16.55,9.51-30.56,9.51h0A137,137,0,0,1,221,418.92c-1.32,2.38-2.87,5.05-4.41,7.46a151.29,151.29,0,0,0,28.27,3.05h0c1.36,0,2.7,0,4-.09,19.61-.85,32.77-8.09,39.15-21.55C292.14,399.08,296.32,387.83,291.92,378.17Z"/><path d="M202.72,347.6l.57-.45a16.5,16.5,0,0,1,8-5c-14.31-5.22-30-11.34-45.86-18.12a10.28,10.28,0,0,1-2,4.08,10.45,10.45,0,0,1-3.15,2.51C174.81,336.86,189.27,342.59,202.72,347.6Z"/><path class="cls-4" d="M195.11,418.69a29.71,29.71,0,0,1-13.34-11.06c-.38-.61-.72-1.23-1-1.85-.26.82-.51,1.7-.73,2.64a3.68,3.68,0,0,1-.23.71c-2.14,4.88,2.87,12,10.94,15.52a23.45,23.45,0,0,0,9.25,2c4,0,7.19-1.21,8.84-3.32a5.15,5.15,0,0,0,.5-.75l.15-.24c.23-.35.46-.72.69-1.09-.82.08-1.65.12-2.52.12A31.66,31.66,0,0,1,195.11,418.69Z"/><path d="M224.56,412.22a.06.06,0,0,1,0,0,2.12,2.12,0,0,1-.11.21Z"/><path d="M221,418.92c1.32-2.37,2.41-4.43,3-5.63-2.57,4.53-7.56,7.4-13.85,8-.23.37-.46.74-.69,1.09l-.15.24a5.15,5.15,0,0,1-.5.75c-1.65,2.11-4.87,3.32-8.84,3.32a23.45,23.45,0,0,1-9.25-2c-8.07-3.53-13.08-10.64-10.94-15.52a3.68,3.68,0,0,0,.23-.71c.22-.94.47-1.82.73-2.64-2.24-4.52-2.53-9.28-.76-13.33a14,14,0,0,1,2.11-3.37c-1.87,1.38-6.71,5.74-9.45,15.42-.16.57-.32,1.13-.47,1.73a14.21,14.21,0,0,0-.95,6.47c.57,7.52,6.68,15.22,16.24,19.4A31.59,31.59,0,0,0,200,434.83h0c6.49,0,12.05-2.35,15.25-6.44a14.21,14.21,0,0,0,1.13-1.69l.21-.32C218.1,424,219.65,421.3,221,418.92Z"/><path class="cls-4" d="M55.48,355c-6.6-3.34-11.36-8.36-13.64-13.67-.3.8-.59,1.65-.86,2.57a4.12,4.12,0,0,1-.27.69c-1.42,2.8-.11,6,.8,7.66a21.78,21.78,0,0,0,9.25,8.45,22.75,22.75,0,0,0,10.15,2.59c3.49,0,6.4-1,8-2.85a5.12,5.12,0,0,0,.53-.72l.16-.24c.25-.34.51-.69.76-1.05-.34,0-.69,0-1,0A31,31,0,0,1,55.48,355Z"/><path d="M85.24,350.14v0a1,1,0,0,1-.1.17Z"/><path d="M75,365.76a13.81,13.81,0,0,0,1.23-1.62c.56-.77,1.13-1.59,1.7-2.41,2.86-4.17,5.56-8.65,6.71-10.6-2.79,4.35-8,7-14.3,7.26-.25.36-.51.71-.76,1.05l-.16.24a5.12,5.12,0,0,1-.53.72c-1.59,1.81-4.5,2.85-8,2.85a22.75,22.75,0,0,1-10.15-2.59,21.78,21.78,0,0,1-9.25-8.45c-.91-1.66-2.22-4.86-.8-7.66a4.12,4.12,0,0,0,.27-.69c.27-.92.56-1.77.86-2.57-1.93-4.52-2.09-9.25,0-13.38a13.53,13.53,0,0,1,2.34-3.28c-1.63,1.06-5.53,4.14-8.7,10.85a41.88,41.88,0,0,0-2.21,5.76,13.36,13.36,0,0,0-.81,2.3,17.08,17.08,0,0,0,1.92,12.59,29.76,29.76,0,0,0,12.71,11.79,30.92,30.92,0,0,0,13.82,3.46h0a19.8,19.8,0,0,0,11.49-3.29A14.17,14.17,0,0,0,75,365.76Z"/><path class="cls-4" d="M211.11,406.29c-.07.15-.16.28-.24.43s-.16.28-.25.42-.23.31-.35.47-.2.25-.31.37a4.17,4.17,0,0,1-.43.41l-.35.32a5.76,5.76,0,0,1-.51.35l-.39.27-.58.28c-.14.07-.28.15-.43.21a6.38,6.38,0,0,1-.66.22l-.43.14a6.5,6.5,0,0,1-.79.15c-.13,0-.25.06-.37.07a9.9,9.9,0,0,1-1.23.08h0a11.75,11.75,0,0,1-4.64-1c-5-2.18-7.49-7.07-5.71-11.13l3.16-7.15c-4.48.1-8,1.8-9.17,4.52s.24,6,1.24,7.6a21.85,21.85,0,0,0,9.71,7.92,23.45,23.45,0,0,0,9.25,2c4.68,0,8.35-1.74,9.57-4.54s.15-6.18-2.44-9.3Z"/><path d="M224.57,412.18a1.3,1.3,0,0,0,.08-.17c2.71-6.19.6-13.41-4.85-19.15-.49,0-1-.06-1.47-.11l-3.57,6.69c2.59,3.12,3.64,6.56,2.44,9.3s-4.89,4.54-9.57,4.54a23.45,23.45,0,0,1-9.25-2,21.85,21.85,0,0,1-9.71-7.92c-1-1.61-2.5-4.73-1.24-7.6s4.69-4.42,9.17-4.52l3-6.88c-.44-.41-.85-.82-1.25-1.24-.47,0-.93,0-1.39,0-6.38,0-11.69,2.21-14.91,6a14,14,0,0,0-2.11,3.37c-1.77,4.05-1.48,8.81.76,13.33.31.62.65,1.24,1,1.85a29.71,29.71,0,0,0,13.34,11.06,31.66,31.66,0,0,0,12.52,2.72c.87,0,1.7,0,2.52-.12,6.29-.6,11.28-3.47,13.85-8a9.51,9.51,0,0,0,.46-.9A2.12,2.12,0,0,0,224.57,412.18Z"/><path d="M206.18,410.18l.43-.14Z"/><path d="M208.28,409.33l.39-.27Z"/><path d="M207.27,409.82c.15-.06.29-.14.43-.21C207.56,409.68,207.42,409.76,207.27,409.82Z"/><path d="M205,410.4c.12,0,.24,0,.37-.07C205.26,410.35,205.14,410.39,205,410.4Z"/><path d="M209.18,408.71l.35-.32Z"/><path d="M210.62,407.14c.09-.14.17-.28.25-.42C210.79,406.86,210.71,407,210.62,407.14Z"/><path d="M210.27,407.61c-.11.12-.2.25-.31.37C210.07,407.86,210.16,407.73,210.27,407.61Z"/><path class="cls-4" d="M72.15,343.47a7.65,7.65,0,0,1-7,3.79A11.56,11.56,0,0,1,60,346c-4.85-2.46-7.07-7.48-5.07-11.44l3.55-7-.63,0c-4.22,0-7.5,1.5-8.77,4-2.41,4.75,2.2,12.13,10,16.11a22.81,22.81,0,0,0,10.16,2.58c4.22,0,7.5-1.5,8.78-4,1.42-2.8.1-6-.81-7.66a17.49,17.49,0,0,0-1.12-1.73Z"/><path d="M85.25,350.11l.1-.17c2.27-4.48,1.93-10-.94-15.25a25.36,25.36,0,0,0-2.89-4.15c-.47-.05-.94-.11-1.4-.19l-4,6.52a17.49,17.49,0,0,1,1.12,1.73c.91,1.66,2.23,4.86.81,7.66-1.28,2.52-4.56,4-8.78,4a22.81,22.81,0,0,1-10.16-2.58c-7.85-4-12.46-11.36-10-16.11,1.27-2.52,4.55-4,8.77-4l.63,0,3.42-6.7q-.62-.63-1.17-1.29a28.14,28.14,0,0,0-2.88-.17c-5.67,0-10.53,1.9-13.69,5.2a13.53,13.53,0,0,0-2.34,3.28c-2.09,4.13-1.93,8.86,0,13.38,2.28,5.31,7,10.33,13.64,13.67a31,31,0,0,0,13.83,3.46c.35,0,.7,0,1,0,6.31-.26,11.51-2.91,14.3-7.26a9,9,0,0,0,.5-.85A1,1,0,0,0,85.25,350.11Z"/><path class="cls-2" d="M62.46,337.73a3.46,3.46,0,0,0,1.23,1,3.5,3.5,0,0,0,1.49.4h.09l6.79-11.18c-.49-.22-1-.45-1.46-.69-.75-.38-1.47-.78-2.18-1.2Z"/><path d="M72.06,327.94l-6.79,11.18h-.09a3.5,3.5,0,0,1-1.49-.4,3.46,3.46,0,0,1-1.23-1l6-11.68a31.84,31.84,0,0,1-6.5-5.16l-3.42,6.7-3.55,7c-2,4,.22,9,5.07,11.44a11.56,11.56,0,0,0,5.16,1.27,7.65,7.65,0,0,0,7-3.79l4-6.6,4-6.52A31.78,31.78,0,0,1,72.06,327.94Z"/><path class="cls-2" d="M201.12,401.1a3.46,3.46,0,0,0,1.29.93,3.65,3.65,0,0,0,1.38.31H204l6.16-11.54c-.51-.19-1-.39-1.5-.61-.77-.34-1.52-.7-2.24-1.08Z"/><path d="M210.16,390.79,204,402.33h-.21a3.65,3.65,0,0,1-1.38-.31,3.46,3.46,0,0,1-1.29-.93l5.3-12a31.61,31.61,0,0,1-6.78-4.78l-3,6.88-3.16,7.15c-1.78,4.06.73,8.95,5.71,11.13a11.75,11.75,0,0,0,4.64,1h0a9.9,9.9,0,0,0,1.23-.08c.12,0,.24,0,.37-.07a6.5,6.5,0,0,0,.79-.15l.43-.14a6.38,6.38,0,0,0,.66-.22c.15-.06.29-.14.43-.21l.58-.28.39-.27a5.76,5.76,0,0,0,.51-.35l.35-.32A4.17,4.17,0,0,0,210,408c.11-.12.2-.25.31-.37s.25-.31.35-.47.17-.28.25-.42.17-.28.24-.43l3.65-6.85,3.57-6.69A32,32,0,0,1,210.16,390.79Z"/><path class="cls-4" d="M64.22,303.88C61.81,308.64,66.42,316,74.28,320a22.74,22.74,0,0,0,10.15,2.58c3.48,0,6.39-1,8-2.84A6.14,6.14,0,0,0,93,319l.16-.24.75-1c-.34,0-.68,0-1,0A31,31,0,0,1,79,314.29a29.75,29.75,0,0,1-12.7-11.8c-.35-.63-.65-1.26-.93-1.9-.3.81-.59,1.67-.87,2.6A4.12,4.12,0,0,1,64.22,303.88Z"/><path d="M108.75,309.47l0,0-.1.18Z"/><path d="M93.86,317.72l-.75,1L93,319a6.14,6.14,0,0,1-.54.72c-1.59,1.81-4.5,2.84-8,2.84A22.74,22.74,0,0,1,74.28,320c-7.86-4-12.47-11.35-10.06-16.11a4.12,4.12,0,0,0,.27-.69c.28-.93.57-1.79.87-2.6-2-4.64-2-9.41,0-13.35A14.09,14.09,0,0,1,67.69,284c-2,1.32-7.65,5.79-10.9,16.6-2.81,6-1.07,13.12,4,19q.55.66,1.17,1.29a31.84,31.84,0,0,0,6.5,5.16c.71.42,1.43.82,2.18,1.2.49.24,1,.47,1.46.69a31.78,31.78,0,0,0,8.06,2.41c.46.08.93.14,1.4.19a26,26,0,0,0,2.91.17c5.91,0,10.92-2,14.1-5.62a13.46,13.46,0,0,0,1.22-1.62c3.43-4.7,7-10.67,8.42-13C105.38,314.81,100.18,317.46,93.86,317.72Z"/><path class="cls-4" d="M72.61,290.92c-1.42,2.8-.1,6,.81,7.66A21.91,21.91,0,0,0,82.67,307a22.78,22.78,0,0,0,10.16,2.58c4.22,0,7.5-1.5,8.77-4,1.42-2.8.11-6-.8-7.66a21.91,21.91,0,0,0-9.25-8.45,22.81,22.81,0,0,0-10.16-2.58C77.17,286.9,73.89,288.4,72.61,290.92Zm16.08,15.67a11.59,11.59,0,0,1-5.16-1.27c-4.84-2.46-7.07-7.48-5.07-11.44a7.64,7.64,0,0,1,7.07-4,11.43,11.43,0,0,1,5.15,1.28,11.12,11.12,0,0,1,4.77,4.47,7.4,7.4,0,0,1,.3,7A7.61,7.61,0,0,1,88.69,306.59Z"/><path d="M67.69,284a14.09,14.09,0,0,0-2.34,3.28c-2,3.94-2,8.71,0,13.35.28.64.58,1.27.93,1.9A29.75,29.75,0,0,0,79,314.29a31,31,0,0,0,13.84,3.46c.35,0,.69,0,1,0,6.32-.26,11.52-2.91,14.31-7.26.18-.27.34-.56.5-.84l.1-.18.09-.17a13.42,13.42,0,0,0,1-2.74,16.16,16.16,0,0,0-.62-9.57,21.16,21.16,0,0,0-1.31-2.94,26,26,0,0,0-3.9-5.28,31.62,31.62,0,0,0-8.81-6.51,32.62,32.62,0,0,0-6.71-2.54,28.77,28.77,0,0,0-7.12-.93c-.61,0-1.2,0-1.78.07A19.31,19.31,0,0,0,70,282,15.86,15.86,0,0,0,67.69,284Zm23.86,5.52a21.91,21.91,0,0,1,9.25,8.45c.91,1.66,2.22,4.86.8,7.66-1.27,2.52-4.55,4-8.77,4A22.78,22.78,0,0,1,82.67,307a21.91,21.91,0,0,1-9.25-8.45c-.91-1.66-2.23-4.86-.81-7.66,1.28-2.52,4.56-4,8.78-4A22.81,22.81,0,0,1,91.55,289.48Z"/><path d="M95.75,302.63a7.4,7.4,0,0,0-.3-7,11.12,11.12,0,0,0-4.77-4.47,11.43,11.43,0,0,0-5.15-1.28,7.64,7.64,0,0,0-7.07,4c-2,4,.23,9,5.07,11.44a11.59,11.59,0,0,0,5.16,1.27A7.61,7.61,0,0,0,95.75,302.63Z"/><path class="cls-4" d="M201,367.2c-2.14,4.89,2.87,12,10.94,15.53a23.45,23.45,0,0,0,9.26,2c4,0,7.18-1.21,8.83-3.32a5.75,5.75,0,0,0,.5-.75l.15-.24.69-1.09c-.82.07-1.65.12-2.51.12a31.67,31.67,0,0,1-12.53-2.72c-6.77-3-11.81-7.71-14.38-12.89-.25.81-.5,1.68-.71,2.62A4.13,4.13,0,0,1,201,367.2Z"/><path d="M245.77,370.25l-.12.25a1.65,1.65,0,0,1,.11-.21A.08.08,0,0,1,245.77,370.25Z"/><path d="M193.37,364.31c-2.47,6.11-.33,13.15,5,18.77.4.42.81.83,1.25,1.24a31.61,31.61,0,0,0,6.78,4.78c.72.38,1.47.74,2.24,1.08.5.22,1,.42,1.5.61a32,32,0,0,0,8.17,2c.49.05,1,.09,1.47.11s.92,0,1.38,0c6.48,0,12-2.34,15.24-6.44a14.1,14.1,0,0,0,1.13-1.68c3.14-4.86,6.39-11,7.65-13.42-2.56,4.53-7.56,7.4-13.85,8l-.69,1.09-.15.24a5.75,5.75,0,0,1-.5.75c-1.65,2.11-4.87,3.32-8.83,3.32a23.45,23.45,0,0,1-9.26-2c-8.07-3.54-13.08-10.64-10.94-15.53a4.13,4.13,0,0,0,.24-.7c.21-.94.46-1.81.71-2.62-2.18-4.4-2.6-9.11-.75-13.35a14,14,0,0,1,2.11-3.38l-.57.45C200.43,349.48,195.78,354.33,193.37,364.31Z"/><path class="cls-4" d="M227.46,351.3a23.32,23.32,0,0,0-9.26-2c-4.68,0-8.34,1.74-9.57,4.53-2.13,4.88,2.88,12,11,15.52a23.3,23.3,0,0,0,9.26,2.05c4.67,0,8.34-1.74,9.56-4.54s-.23-6-1.23-7.6A21.84,21.84,0,0,0,227.46,351.3Zm4.93,12.89a7.79,7.79,0,0,1-7.4,4.37,11.75,11.75,0,0,1-4.64-1c-5-2.18-7.49-7.07-5.71-11.14a7.8,7.8,0,0,1,7.41-4.36,11.61,11.61,0,0,1,4.64,1C231.67,355.24,234.17,360.13,232.39,364.19Z"/><path d="M203.29,347.15a14,14,0,0,0-2.11,3.38c-1.85,4.24-1.43,9,.75,13.35,2.57,5.18,7.61,9.92,14.38,12.89a31.67,31.67,0,0,0,12.53,2.72c.86,0,1.69-.05,2.51-.12,6.29-.61,11.29-3.48,13.85-8,.16-.28.31-.57.45-.86l.12-.25a.89.89,0,0,0,.08-.17,14.13,14.13,0,0,0,1.05-7.39,18.88,18.88,0,0,0-2.83-7.78c-.45-.71-.95-1.4-1.48-2.08a27.84,27.84,0,0,0-4-4.17,32.71,32.71,0,0,0-7.83-4.81,31.43,31.43,0,0,0-12.52-2.73h0a23.82,23.82,0,0,0-6.88,1A16.5,16.5,0,0,0,203.29,347.15Zm33.88,12.07c1,1.6,2.49,4.72,1.23,7.6s-4.89,4.54-9.56,4.54a23.3,23.3,0,0,1-9.26-2.05c-8.07-3.53-13.08-10.64-11-15.52,1.23-2.79,4.89-4.53,9.57-4.53a23.32,23.32,0,0,1,9.26,2A21.84,21.84,0,0,1,237.17,359.22Z"/><path d="M226.69,353.06a11.61,11.61,0,0,0-4.64-1,7.8,7.8,0,0,0-7.41,4.36c-1.78,4.07.73,9,5.71,11.14a11.75,11.75,0,0,0,4.64,1,7.79,7.79,0,0,0,7.4-4.37C234.17,360.13,231.67,355.24,226.69,353.06Z"/><path class="cls-1" d="M142.43,233.32c-2.58-1.31-5-2.68-7.41-4.12-4,13.18-10.47,37.78-10.12,57.42,7-.42,14,2.41,20.6,3.36a32.47,32.47,0,0,1,11.9,4.54C158.55,284.9,161,273.79,166,266c.05-.08.12-.15.17-.22C157.44,255.12,148.76,242.77,142.43,233.32Z"/><path class="cls-2" d="M145.5,290c-6.58-1-13.62-3.78-20.6-3.36.13,7.3,1.2,13.92,3.71,19a4.1,4.1,0,0,1-.47,4.34c-.76,1-2.6,4.1-1.81,6.51s4.51,4.07,7.44,4.91A4,4,0,0,1,136,323s2.5,3.41,6.08,3.94c2.09.31,4.25-.4,6.58-2.18a4.07,4.07,0,0,1,3.13-.78c1.22.18,4.29.16,5.35-1.11.89-1.09.72-3.76-.47-7.14a4.18,4.18,0,0,1-.23-1.21,143.55,143.55,0,0,1,1-20A32.47,32.47,0,0,0,145.5,290Z"/><path d="M118.93,261.72a144.32,144.32,0,0,0-2.09,24.77,79.14,79.14,0,0,0,.7,9.56,54.55,54.55,0,0,0,1.17,6,40.39,40.39,0,0,0,1.63,5,18.43,18.43,0,0,0-1.73,4.05,13.26,13.26,0,0,0,0,7.83c1.45,4.51,5.38,7.83,11.7,9.88a18,18,0,0,0,10.49,6.13,16.15,16.15,0,0,0,2.29.17,16.6,16.6,0,0,0,9.2-3,15.87,15.87,0,0,0,8-1.57,10.45,10.45,0,0,0,3.15-2.51,10.28,10.28,0,0,0,2-4.08,13.69,13.69,0,0,0,.34-4.64,24.41,24.41,0,0,0-1.2-5.72c0-.69,0-2,0-3.72.12-8.23,1.11-26.42,7.22-37.66-1.84-2.06-3.71-4.24-5.57-6.49,0,.07-.12.14-.17.22-5.06,7.82-7.48,18.93-8.63,28.55a143.55,143.55,0,0,0-1,20,4.18,4.18,0,0,0,.23,1.21c1.19,3.38,1.36,6.05.47,7.14-1.06,1.27-4.13,1.29-5.35,1.11a4.07,4.07,0,0,0-3.13.78c-2.33,1.78-4.49,2.49-6.58,2.18C138.49,326.37,136,323,136,323a4,4,0,0,0-2.22-1.58c-2.93-.84-6.61-2.37-7.44-4.91s1-5.53,1.81-6.51a4.1,4.1,0,0,0,.47-4.34c-2.51-5.08-3.58-11.7-3.71-19C124.55,267,131,242.38,135,229.2c-1.75-1.06-3.47-2.15-5.11-3.28-.67-.47-1.33-.94-2-1.42a293.16,293.16,0,0,0-7.4,28.54C120,255.88,119.41,258.78,118.93,261.72Z"/><path class="cls-5" d="M188.06,276.82a146.66,146.66,0,0,0,34.77-6,134.15,134.15,0,0,0,44.23-22.35c-15.92,2.89-34,3.68-53.75,2.25-21.45-1.56-40.63-5.43-56.82-11.37C166.27,253.27,178.5,269.16,188.06,276.82Z"/><path d="M184.26,284.17a4,4,0,0,0,2.42.81h.06A129.49,129.49,0,0,0,209,282.55c3.13-.58,6.51-1.31,10.08-2.21,1.89-.49,3.85-1,5.84-1.6a151.8,151.8,0,0,0,18.06-6.57,142.41,142.41,0,0,0,16.16-8.34,126.6,126.6,0,0,0,24.83-19.46,138.54,138.54,0,0,1-16.86,4.14,134.15,134.15,0,0,1-44.23,22.35,146.66,146.66,0,0,1-34.77,6c-9.56-7.66-21.79-23.55-31.57-37.43a134.22,134.22,0,0,1-14.06-6.07c6.33,9.45,15,21.8,23.77,32.43,1.86,2.25,3.73,4.43,5.57,6.49A92.53,92.53,0,0,0,184.26,284.17Z"/><path class="cls-6" d="M375.64,33.28c-61.73-18.21-89.47,2.92-93.09,10.27A127.93,127.93,0,0,0,183,33.1c-2-7.94-25.86-31-88.93-29.38,0,0-13.36,88.58,7.23,108.83A121.72,121.72,0,0,0,95.86,138c-7.13,67.9,45.58,105.12,114.66,112.38S338.9,232.18,346,164.27a121.71,121.71,0,0,0-.06-26C370.31,122.7,375.64,33.28,375.64,33.28Z"/><g class="cls-7"><path class="cls-8" d="M248.61,37.4c.24-2.26.38-4.47.48-6.64a123.58,123.58,0,0,0-30.67-3.22c-.36,2.14-.68,4.34-.91,6.6-2.39,22.74,2.64,41.9,11.23,42.8S246.23,60.14,248.61,37.4Z"/></g><g class="cls-7"><path class="cls-8" d="M260.79,68.41c6,1.58,14.28-9.33,20.28-25.64a127.06,127.06,0,0,0-24.61-10.09C252.77,51.41,254.4,66.72,260.79,68.41Z"/></g><path class="cls-2" d="M345,171.94c-30.06,17.93-79.4,28.86-121-49.45-56.95,68-102.95,47-128.62,23.24-2.47,63,48.78,97.68,115.19,104.66S334.27,234.08,345,171.94Z"/><g class="cls-7"><path class="cls-8" d="M199.13,61.93c6.6-.32,11.38-15,11.66-34a126.28,126.28,0,0,0-26.17,4.77C187.1,49.85,192.94,62.24,199.13,61.93Z"/></g><path d="M210.14,254c-36.71-3.86-67.12-15.74-87.95-34.36-23.07-20.61-33.42-49-29.95-82a126.29,126.29,0,0,1,5-24.19c-8.2-10-11.85-31.16-10.86-63A456,456,0,0,1,90.5,3.18,3.66,3.66,0,0,1,94,.08a218.17,218.17,0,0,1,28.11,1c23.87,2.5,39,8.92,47.43,13.85,8.25,4.81,13.13,9.82,15.48,13.78a131.56,131.56,0,0,1,96.41,10.1c7.09-8.16,27.64-19.36,63-15.65a182.39,182.39,0,0,1,32.27,6.62,3.64,3.64,0,0,1,2.6,3.71,454.18,454.18,0,0,1-5.75,47.08C367.87,112,359.89,131.9,349.8,140a125.71,125.71,0,0,1-.15,24.69c-3.47,33-19.49,58.65-46.33,74C279.08,252.56,246.86,257.86,210.14,254ZM97.26,7.3C93.63,33.5,88.71,95,103.88,110a3.61,3.61,0,0,1,.9,3.73,118.53,118.53,0,0,0-5.3,24.7c-6.29,59.88,35.36,100.39,111.42,108.38s125.23-23,131.52-82.88a119.17,119.17,0,0,0-.07-25.26,3.64,3.64,0,0,1,1.66-3.46C362,123.69,370,62.27,371.82,36a171.57,171.57,0,0,0-28.18-5.56c-36.69-3.85-55.23,9.46-57.82,14.75a3.65,3.65,0,0,1-5,1.57A124.28,124.28,0,0,0,184.1,36.58,3.65,3.65,0,0,1,179.5,34c-.4-1.57-3.62-6.94-13.61-12.76C158,16.65,143.94,10.7,121.36,8.33A204.71,204.71,0,0,0,97.26,7.3Z"/><path class="cls-9" d="M333.5,108.22S301.34,83,299.37,61.93s44.27-22.65,55-13.06S350.32,120.41,333.5,108.22Z"/><path class="cls-9" d="M119.76,85.77s36.7-18,43-38.19-38.6-31.34-51.1-24.19S100.77,94.2,119.76,85.77Z"/><path d="M233.19,167.62c-.29,2.8-7.3,9.95-14.94,9.15s-13-9.25-12.71-12.05,6.87-5.8,14.5-5S233.49,164.82,233.19,167.62Z"/><path d="M225.81,195l-.15,0c-3.37-.4-6.29-2.33-8.71-5.75-3.08,2.84-6.33,4.12-9.71,3.82l-.16,0c-7.66-.8-12-9.61-12.51-10.61a3.64,3.64,0,1,1,6.58-3.11c.76,1.58,3.62,6.16,6.69,6.48h.06c2.48.22,5-2.59,6.75-5a3.64,3.64,0,0,1,6.29.66c1.19,2.7,3.11,6,5.58,6.28,3.15.38,7.08-3.81,7.95-5a3.64,3.64,0,0,1,5.79,4.41C239.58,188.07,233.47,195.77,225.81,195Z"/><path class="cls-10" d="M297.88,101.89c-29.43-3.1-43.81-1.53-50.93,4.81l-40-4.2c-5.65-7.68-19.39-12.2-48.82-15.29C110,82.15,100.62,97.36,100.7,121.55c.08,23.23,15.45,47.75,48.41,51.21,30.43,3.19,54.57-16.64,59-40.88.26-1.42.51-2.79.74-4.12L239.77,131c-.05,1.35-.09,2.74-.13,4.18-.67,24.64,18.83,49.06,49.25,52.26,33,3.46,53.09-17.33,58-40C352,123.75,346,106.94,297.88,101.89Z"/><path d="M288.47,191.49a60.41,60.41,0,0,1-38.9-19.42,53.28,53.28,0,0,1-14-37v-.41l-23.34-2.45c0,.13,0,.27-.07.4a53.3,53.3,0,0,1-21.39,33.29,60.42,60.42,0,0,1-42.09,10.91c-35.84-3.76-52-30.46-52.05-55.24,0-9.53,1.09-21.52,10.17-29.72,9.56-8.63,26-11.4,51.72-8.7,28.88,3,43.4,7.44,50.49,15.47l36.69,3.85c8.6-6.38,23.72-7.67,52.6-4.64,25.73,2.7,41.23,8.82,48.78,19.25,7.18,9.91,5.8,21.87,3.79,31.18C345.64,172.49,324.32,195.25,288.47,191.49ZM209.31,123.7,240.19,127a4.07,4.07,0,0,1,3.65,4.21c-.05,1.33-.09,2.71-.13,4.13-.58,21.23,16.33,45,45.61,48.09,30.82,3.24,49.12-16.17,53.58-36.84,2.45-11.37,1.71-19-2.42-24.68-6-8.31-20.09-13.51-43-15.92-27.28-2.87-41.57-1.73-47.79,3.81a4.1,4.1,0,0,1-3.14,1l-40-4.21a4.07,4.07,0,0,1-2.85-1.63c-4.94-6.71-18.68-10.79-46-13.66-22.94-2.41-37.79-.24-45.4,6.64-5.22,4.71-7.53,12-7.49,23.64.07,21.14,13.93,43.93,44.76,47.17,29.28,3.07,50.75-16.69,54.6-37.57.26-1.4.5-2.76.73-4.08A4.09,4.09,0,0,1,209.31,123.7Z"/><path d="M192.35,131.34c-3.16,17.15-20.24,31.18-41.76,28.92-23.31-2.45-34.19-19.79-34.24-36.22-.06-17.11,6.55-27.87,40.59-24.29C196.35,103.88,196,111.64,192.35,131.34Z"/><path d="M150.24,163.55c-25.62-2.69-37.15-21.78-37.2-39.5,0-6.83.79-15.42,7.34-21.34,6.85-6.2,18.58-8.18,36.91-6.26,21.69,2.28,32,5.66,36.78,12.06s3.16,14.6,1.53,23.43C192.37,149.48,174.52,166.1,150.24,163.55ZM156.6,103c-16.1-1.69-26.5-.19-31.78,4.59-3.59,3.24-5.18,8.3-5.16,16.4,0,14.76,9.74,30.67,31.28,32.93,20.46,2.15,35.46-11.64,38.15-26.22,1.64-8.91,2.43-14.58-.32-18.26C185.37,107.93,175.45,105,156.6,103Z"/><path class="cls-11" d="M132.6,154.25a37.53,37.53,0,0,0,6.77,3.38l20.33-57.58-2.76-.3c-1.72-.18-3.35-.32-4.94-.43Z"/><path class="cls-11" d="M142.4,158.66a45.85,45.85,0,0,0,7.43,1.5l20.68-58.57q-3.45-.61-7.56-1.14Z"/><path d="M255.13,137.93c-.47,17.46,13.35,34.76,34.91,37,23.35,2.46,37.62-12.28,41.09-28.36,3.62-16.76-.62-28.68-34.73-32.26C256.92,110.19,255.68,117.87,255.13,137.93Z"/><path d="M289.69,178.25c-24.32-2.55-38.35-22.55-37.87-40.41.25-9,.48-17.48,6.38-22.64S275,108.76,296.75,111c18.36,1.92,29.44,6.31,34.87,13.81,5.18,7.16,4.19,15.75,2.75,22.43C330.62,164.64,315.36,180.94,289.69,178.25Zm6.37-60.62c-18.89-2-29.22-1.2-33.5,2.55-3.47,3-3.87,8.77-4.11,17.84-.41,14.84,11.43,31.49,31.93,33.64,21.58,2.26,34.39-11.31,37.51-25.77,1.71-7.93,1.21-13.22-1.64-17.15C322.06,123,312.19,119.32,296.06,117.63Z"/><path class="cls-11" d="M273.09,169.36a39.18,39.18,0,0,0,6.81,3.25l20.42-57.81c-1.27-.16-2.56-.32-3.92-.47l-3.75-.36Z"/><path class="cls-11" d="M303.54,115.28,283,173.6A43,43,0,0,0,290,175l.37,0L311,116.78Q307.6,115.94,303.54,115.28Z"/><path d="M70.66,162.57a3.28,3.28,0,0,1-.19-6.49c12.72-2.12,32.22-.18,33-.1h0a3.27,3.27,0,0,1-.68,6.51c-.19,0-19.45-1.94-31.3,0A3.33,3.33,0,0,1,70.66,162.57Z"/><path d="M72.86,176.64a3.27,3.27,0,0,1-.63-6.38c12.33-3.82,31.91-4.51,32.73-4.54a3.28,3.28,0,1,1,.22,6.55c-.19,0-19.53.69-31,4.24A3.11,3.11,0,0,1,72.86,176.64Z"/><path d="M76.63,194.25a3.27,3.27,0,0,1-1.44-6c10.83-7,29.49-13,30.28-13.24a3.28,3.28,0,0,1,2,6.25c-.19.05-18.62,6-28.71,12.48A3.19,3.19,0,0,1,76.63,194.25Z"/><path d="M365.58,193.53a3.27,3.27,0,0,0,1.54-6.3c-12-4.72-31.48-6.87-32.3-7h0a3.27,3.27,0,0,0-.7,6.51c.2,0,19.43,2.15,30.62,6.54A2.94,2.94,0,0,0,365.58,193.53Z"/><path d="M360.51,206.85a3.28,3.28,0,0,0,1.94-6.12c-11.26-6.29-30.27-11-31.07-11.24a3.28,3.28,0,0,0-1.58,6.36c.19.05,19,4.74,29.46,10.6A3.45,3.45,0,0,0,360.51,206.85Z"/><path d="M353.17,223.29a3.28,3.28,0,0,0,2.65-5.58c-9.14-9.1-26.15-18.82-26.87-19.23a3.27,3.27,0,0,0-3.24,5.69c.17.1,17,9.7,25.49,18.18A3.29,3.29,0,0,0,353.17,223.29Z"/></svg>