<svg id="Layer_1" data-name="Layer 1" xmlns="http://www.w3.org/2000/svg" viewBox="0 0 1442.19 961.63"><defs><style>.cls-1{fill:#fbda98;}.cls-2{fill:#faaf5e;}.cls-3{fill:#e26d1e;opacity:0.5;}.cls-4{fill:#4d4d4d;}.cls-5{fill:#fff;}.cls-6{fill:#f78c8b;}</style></defs><path class="cls-1" d="M1105.78,365.62c-.07-2.34-10.43-338.57-113.18-354.25C868.46-7.56,721.7,166.48,721.7,166.48l.75.39c-60.72-2.2-126.87,5.16-198.24,24.52-74.43,20.19-136.69,50.18-187.9,86.84h0S164.18,259.55,66.31,312,141.5,621.33,141.5,621.33l1.52-2.68C132.79,745.57,174.7,867.37,251.56,935.92h772.49s147-84.45,169.53-288.38C1203,561.86,1172.61,456.12,1105.78,365.62Z"/><path class="cls-2" d="M1151.93,444.5a488.64,488.64,0,0,0-46.49-76.79c-.07-2.33-10.43-338.57-113.18-354.24-124.14-18.94-270.9,155.1-270.9,155.1l.75.39c-60.72-2.2-126.87,5.16-198.24,24.52-74.43,20.2-136.69,50.18-187.9,86.84,0,0-172.13-18.68-270,33.75s75.19,309.35,75.19,309.35l1.52-2.68A464.17,464.17,0,0,0,145.4,721c41.31,21.93,97.66,36.16,171.11,23.37C502.66,711.94,447.79,574,545.81,516.45S728.55,653.07,959.68,617.67C1057.54,602.67,1116.49,526.9,1151.93,444.5Z"/><path class="cls-3" d="M448.36,364.55c26.4-7.49,8.32-102.32-7.33-145-20.43,8.62-41.81,20.17-60,30.37C392,292,419.54,372.72,448.36,364.55Z"/><path class="cls-3" d="M473,207.86c1.43-.55,17.09-5.28,18.53-5.83,13.13-5,58.55-14.76,71.41-18.79C582.11,233,602.7,378.52,575.33,406.57,542.19,440.54,487.8,276.36,473,207.86Z"/><path class="cls-3" d="M673.81,313.14c19.41-2.62,8.82-89.31-2.79-142.22-29.94,2-41.66,1.61-73.92,8.31C614,215.63,651.71,316.12,673.81,313.14Z"/><path class="cls-4" d="M1049.72,636.08c.12,19.58,87.44,20.19,141.41,15.46,1.91-29.95,3.74-41.53,1.23-74.39C1154.09,589.28,1049.6,613.78,1049.72,636.08Z"/><path d="M1024.05,945.85H251.56a9.89,9.89,0,0,1-6.61-2.52c-77.82-69.41-120.53-190.5-112.41-317.52C121.31,609,7.24,434.82,29.25,346.05c4.84-19.51,15.73-33.91,32.36-42.83,58.88-31.54,142.92-38.16,203.05-38.16,33.79,0,59.56,2.05,68.93,2.92,53.83-37.94,117.07-66.93,188-86.18,61.73-16.75,122.28-25.24,180-25.24,5.12,0,10.28.07,15.39.2a698,698,0,0,1,79.39-76.25C861.8,27.09,921.31,0,973.22,0a139,139,0,0,1,20.87,1.55c47.31,7.22,82.09,71.21,103.38,190.2,14,78.19,17.51,154.13,18.13,170.46,65,89.17,97.82,196,87.86,286.42-5.25,47.59-17.64,92.73-36.83,134.18A404.22,404.22,0,0,1,1108,874.63c-40.23,47.38-77.4,69-79,69.9A9.86,9.86,0,0,1,1024.05,945.85ZM255.39,926h765.87c8.32-5.25,39.42-26.18,72.11-64.86,35-41.39,79-112.22,90.34-214.67,9.52-86.4-22.6-189.18-85.92-274.93a9.92,9.92,0,0,1-1.94-5.6c-.11-3.46-2.73-85.69-17.94-170.67-8.81-49.24-20-89-33.33-118.11C1029,43.06,1011,24.24,991.1,21.2a119,119,0,0,0-17.88-1.33c-104.6,0-222.33,128.49-241.3,150a9.93,9.93,0,0,1-9.83,6.94c-6.77-.25-13.67-.37-20.51-.37-55.93,0-114.73,8.26-174.77,24.55-70,19-132.15,47.7-184.72,85.33a9.94,9.94,0,0,1-6.85,1.8c-.29,0-29.83-3.18-70.58-3.18-57.86,0-138.42,6.21-193.66,35.81C59.36,327,52,336.81,48.54,350.82c-8.36,33.69,6.26,89.88,42.26,162.5A1029.86,1029.86,0,0,0,145.28,609l.66.18a9.93,9.93,0,0,1,7,10.29C143.07,741.73,182.28,858.75,255.39,926Z"/><circle cx="816.08" cy="511.22" r="89.13"/><circle class="cls-5" cx="835.66" cy="466.11" r="20.97" transform="translate(-84.83 727.42) rotate(-45)"/><circle cx="378.29" cy="600.36" r="89.13"/><circle class="cls-5" cx="397.87" cy="555.24" r="20.97" transform="translate(-282.76 497.51) rotate(-49.53)"/><path class="cls-6" d="M668.24,676.6s-2.1,38.83-45,53.47-57.52-29.29-57.52-29.29,33.11-11.22,38.52-24.18C604.27,676.6,642.44,684.48,668.24,676.6Z"/><path d="M629.94,596c4,17.14-12.16,42-36.59,47.72s-47.84-9.76-51.87-26.91,14.9-25.5,39.32-31.25S625.91,578.82,629.94,596Z"/><path d="M570.6,707.79A49.12,49.12,0,0,1,550.54,703l-.49-.21a9.93,9.93,0,0,1,7.76-18.29c.23.09.52.22.86.38,2.75,1.23,11.11,5,18.23,1.64,7.46-3.49,11.7-13.77,13.94-21.77a9.94,9.94,0,0,1,16.59-4.35A46.77,46.77,0,0,0,628.7,671c17.09,3.46,34.61-3.64,52.06-21.1A9.94,9.94,0,0,1,694.82,664c-28.47,28.46-54.45,30-71.23,26.26a66.5,66.5,0,0,1-18.38-7.15c-4.89,10.35-11.55,17.53-19.88,21.44A34.32,34.32,0,0,1,570.6,707.79Z"/><path d="M600.4,677.39a9.94,9.94,0,0,1-9.6-7.39l-11.1-42A9.94,9.94,0,0,1,598.91,623L610,664.91A9.94,9.94,0,0,1,603,677.06,9.81,9.81,0,0,1,600.4,677.39Z"/><path class="cls-6" d="M1026.34,281S916,192.93,797,174.68c0,0,116.72-110.87,171.11-95.14C1013.8,92.74,1026.34,281,1026.34,281Z"/><path class="cls-2" d="M1001.64,935.92c7.6-40.53,14-100.52,3.59-163.73-18.51-112.75-6.16-107,5.94-123.21s-10.43-43.32,51.22-61.57c0,0,36.57-47.64,89-13.42,0,0,38.17-16.48,67.24,28.2,0,0,46,4.37,45.72,99.17-.28,81.79,22.6,140.53,25.27,235"/><path d="M1289.65,946.87a10.46,10.46,0,0,1-10.45-10.16c-1.29-45.8-7.4-83.08-13.31-119.13-6.22-38-12.1-73.83-12-116.26.29-82.93-35.89-88.69-36.25-88.72a10.46,10.46,0,0,1-7.78-4.71c-10.27-15.78-22.68-24.58-36.91-26.16a39.23,39.23,0,0,0-17.41,1.86,10.45,10.45,0,0,1-9.86-.84c-18.47-12-36.61-13.89-53.91-5.48a66.07,66.07,0,0,0-21.12,16.5,10.39,10.39,0,0,1-5.33,3.66c-16.95,5-28.29,11.11-33.71,18.1-4.16,5.37-4.71,11.09-5.35,17.72-.66,7-1.42,14.84-6.75,22-1.83,2.46-3.61,4.43-5.19,6.18-7.59,8.39-14.15,15.65,1.19,109.09,10.71,65.21,3.93,127-3.63,167.35A10.46,10.46,0,1,1,991.36,934c7.26-38.7,13.77-97.89,3.55-160.1-16.21-98.78-9.8-111.31,3.94-126.51,1.38-1.54,2.69-3,3.94-4.66,1.74-2.33,2.16-5.87,2.69-11.46,1.93-20.11,7.34-39.3,50.94-53a88.52,88.52,0,0,1,26.24-19.83c16-7.77,40.84-13.07,70.16,4.09a62,62,0,0,1,22.49-1.61c13.6,1.51,33,8.37,49.72,32,14,4.25,50.11,23.47,49.82,108.45-.14,40.68,5.6,75.71,11.68,112.79,6,36.74,12.25,74.72,13.58,121.93A10.46,10.46,0,0,1,1290,946.87Z"/><ellipse class="cls-6" cx="1048.52" cy="703.84" rx="20.02" ry="27.39" transform="translate(-143.65 287.29) rotate(-14.61)"/><ellipse class="cls-6" cx="1081.37" cy="647.52" rx="20.02" ry="27.39" transform="translate(-128.38 293.76) rotate(-14.61)"/><path class="cls-6" d="M1169,625.59c3.82,14.64-1.76,28.77-12.45,31.55s-22.47-6.81-26.28-21.45,1.76-28.77,12.45-31.56S1165.23,611,1169,625.59Z"/><ellipse class="cls-6" cx="1206.03" cy="663.7" rx="20.02" ry="27.39" transform="translate(-128.43 325.74) rotate(-14.61)"/><path class="cls-6" d="M1204.54,727.39c4.44,26.1-22.51,36.42-56.93,42.28s-63.26,5-67.71-21.07,19.86-52,54.28-57.86S1200.1,701.29,1204.54,727.39Z"/><path class="cls-6" d="M272.28,335.11s-90.4,98.95-108.86,179.25c0,0-80.45-116.29-59.71-149.07C129.93,323.86,272.28,335.11,272.28,335.11Z"/><path d="M1431.35,947.92H10.84a10.84,10.84,0,1,1,0-21.68H1431.35a10.84,10.84,0,1,1,0,21.68Z"/><path class="cls-2" d="M285.24,929l15.54,6.48s53,35.32,87.6-7.07-.71-135.64-94-143.41S147.48,814.23,139,927.24"/><path d="M345.56,959.18a80.71,80.71,0,0,1-15.92-1.65,106.75,106.75,0,0,1-33.48-13.26l-14.75-6.15a9.94,9.94,0,0,1,7.65-18.34l15.54,6.48a9.14,9.14,0,0,1,1.69.9c1.84,1.22,46,29.71,74.39-5.08,12.87-15.76,14.4-40.77,4-65.28-15-35.28-49-58.44-91.09-61.95-45.77-3.8-79.15,3.83-102,23.35-24.74,21.11-38.68,57-42.64,109.78a9.94,9.94,0,0,1-19.82-1.49c4.38-58.31,20.59-98.68,49.56-123.4,27.13-23.14,65.26-32.31,116.59-28,49.55,4.13,89.82,31.79,107.73,74,13.29,31.31,10.65,64.12-6.9,85.61C382.83,950.86,365.58,959.18,345.56,959.18Z"/><path class="cls-2" d="M337.51,895.16s3.53,57.93-45.21,56.51-49.45-40.26-50.16-46.62"/><path d="M294.07,961.63c-.68,0-1.37,0-2.06,0-20.55-.6-55.62-8.46-59.65-54.43,0-.41-.06-.76-.09-1A9.94,9.94,0,0,1,252,904c0,.4.08.9.14,1.49,1.32,15.12,7,35.33,40.43,36.3,10.14.3,17.83-2.39,23.5-8.22,12.73-13.06,11.52-37.54,11.5-37.78a9.94,9.94,0,0,1,19.84-1.19c.08,1.36,1.8,33.32-17,52.75C321.2,956.82,309,961.63,294.07,961.63Z"/><path class="cls-2" d="M180.8,901.58s1.65,53.63,55.25,47.27c41.64-4.94,30.5-62.11,30.5-62.11"/><path d="M227.46,959.31c-14.4,0-26.53-4.17-36.14-12.45-19.36-16.67-20.41-43.83-20.45-45a9.93,9.93,0,0,1,9.63-10.23h.31a9.93,9.93,0,0,1,9.92,9.6c0,.35,1,19.81,13.65,30.65,7.31,6.24,17.57,8.63,30.49,7.09,7.24-.86,12.56-3.74,16.29-8.82,8.83-12.06,7.06-34.07,5.64-41.53a9.94,9.94,0,0,1,19.51-3.79c.28,1.44,6.67,35.41-9.07,57-7.06,9.68-17.16,15.36-30,16.88A82.67,82.67,0,0,1,227.46,959.31Z"/><path d="M606.54,743a47.33,47.33,0,0,1-21.27-4.94c-20.79-10.29-28.62-33.17-28.95-34.14l18.84-6.33c1.21,3.52,12.74,34,44.9,23.06,36.11-12.33,38.24-44.28,38.25-44.6l19.85,1.07c-.1,1.86-3,45.72-51.68,62.34A61.67,61.67,0,0,1,606.54,743Z"/></svg>