<svg xmlns="http://www.w3.org/2000/svg" viewBox="0 0 650 650"><defs><style>.cls-1{isolation:isolate;}.cls-2{fill:#ffd5b7;}.cls-3{fill:#ff712b;mix-blend-mode:multiply;}</style></defs><g class="cls-1"><g id="Layer_1" data-name="Layer 1"><rect class="cls-2" width="650" height="650" rx="325"/><path class="cls-3" d="M129.81,509.7A48.31,48.31,0,0,0,178.07,558H486.28a13,13,0,0,0,0-25.94H178.07a22.33,22.33,0,0,1,0-44.65H281.42a199.13,199.13,0,0,0,185.17-53.61c78.08-78.07,78.08-205.1,0-283.18s-205.12-78.09-283.18,0-78.08,205.11,0,283.18a199.46,199.46,0,0,0,34.85,27.67H178.07A48.31,48.31,0,0,0,129.81,509.7Zm49.67-141.44c52,51.19,113.2,75.72,159.47,87.45-4.62.39-9.26.68-13.95.68a164.14,164.14,0,0,1-145.52-88.13ZM466.25,208.79C451.68,236.55,407.86,307,334.73,319.51c-5.47-2.51-11-5.24-16.45-8.1,35.45-16.5,96.57-54.83,126.63-131.16A163.37,163.37,0,0,1,466.25,208.79ZM424.1,161.46a203.54,203.54,0,0,1-31.18,58.42c-3.5-30.63,1.47-57.6,6-74.22A162.61,162.61,0,0,1,424.1,161.46ZM374.67,135.8c-6.52,22.37-14.23,63.1-3.79,108.56a226.06,226.06,0,0,1-18.07,15.42c-18.07-53.92-5.29-106.9,1.77-129A165.24,165.24,0,0,1,374.67,135.8ZM278,134.88C270.09,170.14,262.66,234,290.33,295l-.17.06A322.37,322.37,0,0,1,258,271.32c-19.66-57.62-14-104.06-9.68-124.38A163.52,163.52,0,0,1,278,134.88Zm201.77,103a164.8,164.8,0,0,1,7.19,28.5c-13.44,21-45.68,63-93,74.73-6.43-1.79-13-3.78-19.76-6C426.69,313.37,461.35,268.25,479.75,237.86ZM488.38,308a164.29,164.29,0,0,1-12,47.61c-9.11-.64-22.33-1.94-38.43-4.66C458.84,338.85,475.66,322.89,488.38,308ZM444.46,404.6c-47.25-6.83-216.6-39.75-274.91-164.75a165.23,165.23,0,0,1,8.16-20,332.61,332.61,0,0,0,59,67.38,12.91,12.91,0,0,0,3.58,3.14A350.45,350.45,0,0,0,279,318.78a12.82,12.82,0,0,0,4.91,3.07,382.15,382.15,0,0,0,40.29,21.43,12.81,12.81,0,0,0,5.51,2.45A430.45,430.45,0,0,0,387,366.19a12.77,12.77,0,0,0,5.85,1.59h.08a451.55,451.55,0,0,0,70.38,12.84A164,164,0,0,1,444.46,404.6Zm-47.37,35c-39.68-4.11-161.94-25.38-235.55-133.2a164.81,164.81,0,0,1,0-27.48c64.76,100.89,194.28,136.33,257.33,147.91A162.73,162.73,0,0,1,397.09,439.61ZM208.88,176.06c3.29-3.29,6.75-6.3,10.24-9.25a259.59,259.59,0,0,0,3,68.9,308.83,308.83,0,0,1-29.35-40.52A163.11,163.11,0,0,1,208.88,176.06ZM325,128c1.05,0,2.1.13,3.15.15-8.59,28.8-19.95,87.1,2.72,146.79-5.95,3.65-11.62,6.82-16.83,9.47-27.75-61.18-15.12-128-7.87-155.22A167.15,167.15,0,0,1,325,128Z"/></g></g></svg>