<svg id="Layer_1" data-name="Layer 1" xmlns="http://www.w3.org/2000/svg" viewBox="0 0 536.87 563.48"><defs><style>.cls-1{fill:#fadce3;}.cls-2{fill:#fae4e3;}.cls-3{fill:#fff;}.cls-4{fill:#231f20;}</style></defs><path class="cls-1" d="M468.49,299.66q-1.15,16.05-3.21,31.28a33.53,33.53,0,0,1,20.79,10,35.37,35.37,0,0,1,9.66,26.14c-.73,20.18-16.85,37.65-36.7,39.76a34.69,34.69,0,0,1-3.92.21,35.89,35.89,0,0,1-7.26-.76,234.72,234.72,0,0,1-10.59,25.29,60.86,60.86,0,0,0,23.47,1.65c33.61-4,61.94-34.1,64.5-68.53,1.34-18-4.23-34.72-15.68-47.06C499.05,306.32,484.51,300,468.49,299.66Z"/><path class="cls-2" d="M351.66,71.82c13.58,7.64,33.95,25.61,43.18,41.31a5.67,5.67,0,0,0,4.87,2.79,5.86,5.86,0,0,0,1.1-.11,5.66,5.66,0,0,0,4.49-4.74,197.21,197.21,0,0,0,1.27-36.75c-2.21-33.07-8.49-42.82-9.2-43.83A5.66,5.66,0,0,0,390,28.83C366.69,42,350.64,62.59,350,63.46a5.63,5.63,0,0,0,1.69,8.36Z"/><path class="cls-2" d="M69.27,115.81a5.61,5.61,0,0,0,6-2.67c9.26-15.72,29.63-33.69,43.19-41.32A5.59,5.59,0,0,0,121.17,68a5.65,5.65,0,0,0-1.06-4.58c-.67-.87-16.73-21.51-40-34.63a5.69,5.69,0,0,0-7.38,1.66c-.71,1-7,10.76-9.19,43.83a197.69,197.69,0,0,0,1.26,36.75A5.65,5.65,0,0,0,69.27,115.81Z"/><path class="cls-1" d="M451.42,344.18q1-6.15,1.91-12.47,2.1-15.18,3.3-31.25.44-5.76.74-11.6c.66-12.59.95-25.48.75-38.63-.1-6.42-7.93-12.95-22.16-18.69-.11,5.21-.38,9.59-.68,13.08a6.28,6.28,0,0,1,8.12,1.76,6.39,6.39,0,0,1-1.4,8.92C401,285.14,236.63,286,235,286S69,285.14,28,255.3a6.37,6.37,0,0,1-1.41-8.91,6.26,6.26,0,0,1,8.13-1.76c-.3-3.5-.57-7.88-.68-13.08-14.23,5.73-22.05,12.25-22.15,18.68-1.25,81.67,14.57,154.6,42.32,195.1A154.65,154.65,0,0,0,88,480.82c2.09,1.6,4.27,3,6.41,4.45,23.08,16,48.57,25.49,71.45,30.94a286.79,286.79,0,0,0,64.25,7.67h6.81l5.23,0a276.13,276.13,0,0,0,66.61-8.55c21.7-5.59,45.29-14.89,66.78-29.87,2.16-1.51,4.32-3,6.43-4.64a156.07,156.07,0,0,0,33.84-35.51q2.55-3.74,5-7.83c1.9-3.22,3.73-6.64,5.5-10.17A222.33,222.33,0,0,0,437,401.92q2-5.55,3.75-11.39A363.39,363.39,0,0,0,451.42,344.18Zm-70.55,86.06a144.88,144.88,0,0,1-14.36,23.2,6.17,6.17,0,0,1-4.92,2.44,6.1,6.1,0,0,1-3.72-1.26,6.16,6.16,0,0,1-1.19-8.64,131.2,131.2,0,0,0,13.15-21.26,6.17,6.17,0,1,1,11,5.52Zm30.64-109.49-1,7.56-1.24,9.37a382.46,382.46,0,0,1-9.38,45l-2.69,9-.48,1.6q-2.23,7-4.71,13.34a5.75,5.75,0,0,1-.69,1.21,6.15,6.15,0,0,1-5.05,2.72,6.05,6.05,0,0,1-2.24-.42,6.17,6.17,0,0,1-3.51-8c1.54-4,3-8.14,4.41-12.49a.19.19,0,0,0,0-.07L388,379.36a369.13,369.13,0,0,0,9.06-43.51l1.39-10.5.8-6a6.14,6.14,0,0,1,6.84-5.42,5.79,5.79,0,0,1,1.37.45A6.08,6.08,0,0,1,411.51,320.75Z"/><path class="cls-3" d="M348,179.72a7.53,7.53,0,1,0,7.53,7.53A7.53,7.53,0,0,0,348,179.72Z"/><path class="cls-3" d="M342.82,198.46a5.15,5.15,0,1,0,5.14,5.15A5.15,5.15,0,0,0,342.82,198.46Z"/><path class="cls-3" d="M144.44,179.72a7.53,7.53,0,1,0,7.52,7.53A7.52,7.52,0,0,0,144.44,179.72Z"/><path class="cls-3" d="M139.29,198.46a5.15,5.15,0,1,0,5.15,5.15A5.16,5.16,0,0,0,139.29,198.46Z"/><path class="cls-3" d="M423.14,223.19a231.6,231.6,0,0,0-9.41-61.55,6.36,6.36,0,0,1-.24-2.41c.62-6.71,2.14-23.71,2.83-36.69,3-54.94-3.8-99.58-16.43-108.57-9.92-7-50.16,10.64-95.71,42a6.36,6.36,0,0,1-5,1,302,302,0,0,0-64-7.26A303.44,303.44,0,0,0,170.89,57a6.39,6.39,0,0,1-5-1C120.32,24.61,80.06,6.92,70.2,14,57.56,23,50.8,67.59,53.76,122.53c.74,13.62,2.33,31.29,2.81,36.38a6.6,6.6,0,0,1-.24,2.42,230.83,230.83,0,0,0-9.53,61.82,174.23,174.23,0,0,0,1.51,28.36s0,.05,0,.07c.88.35,1.77.69,2.7,1,47.13,16.89,154.07,20.6,184,20.6s136.83-3.71,184-20.6c.93-.34,1.82-.68,2.71-1,0,0,0,0,0-.06A176.4,176.4,0,0,0,423.14,223.19Zm-347.92-110a5.65,5.65,0,0,1-10.45-2.07,197.69,197.69,0,0,1-1.26-36.75C65.71,41.25,72,31.5,72.7,30.49a5.69,5.69,0,0,1,7.38-1.66c23.3,13.12,39.36,33.76,40,34.63A5.65,5.65,0,0,1,121.17,68a5.59,5.59,0,0,1-2.76,3.78C104.85,79.45,84.48,97.42,75.22,113.14Zm57.53,109.67a28,28,0,1,1,28-28A28,28,0,0,1,132.75,222.81ZM259,243.31a5.9,5.9,0,0,1-5.84,5.15,6.12,6.12,0,0,1-.74,0c-8.42-1-13.89-4.4-17.48-8.45-3.6,4.05-9.06,7.4-17.49,8.45A5.89,5.89,0,1,1,216,236.73c11.24-1.4,12.86-8.3,13-11.31v-.49a35,35,0,0,1-3.72-1.76c-4.56-2.5-9.21-6.55-9.21-12.91,0-8.85,13.16-9.81,18.82-9.81s18.81,1,18.81,9.81c0,6.36-4.66,10.41-9.21,12.91a34.07,34.07,0,0,1-3.72,1.76v.17c.14,3,1.68,10.21,13.07,11.63A5.9,5.9,0,0,1,259,243.31Zm78-20.5a28,28,0,1,1,28-28A28,28,0,0,1,337.08,222.81ZM405.3,111.07a5.66,5.66,0,0,1-4.49,4.74,5.86,5.86,0,0,1-1.1.11,5.67,5.67,0,0,1-4.87-2.79c-9.23-15.7-29.6-33.67-43.18-41.31A5.63,5.63,0,0,1,350,63.46c.67-.87,16.72-21.51,40-34.63a5.66,5.66,0,0,1,7.38,1.66c.71,1,7,10.76,9.2,43.83A197.21,197.21,0,0,1,405.3,111.07Z"/><path class="cls-3" d="M241.48,213.52c3-.06,5.34-1.44,5.34-3.16s-2.47-3.18-5.52-3.18a8.11,8.11,0,0,0-1.42.17c-2.34.37-4.1,1.55-4.1,3s1.76,2.64,4.1,3a8.11,8.11,0,0,0,1.42.17Z"/><path class="cls-4" d="M469.18,288.18c.63-12.46.91-25.17.71-38.13-.19-12.72-11.43-22.89-34-31.1a243.53,243.53,0,0,0-9.56-59.77c.81-8.68,2.11-23.82,2.76-36,1.27-23.53,3.45-101.71-21.77-119.65-21.41-15.19-81,21.9-108.06,40.36a300.25,300.25,0,0,0-128.41,0C143.74,25.46,84.17-11.6,62.8,3.57,37.59,21.49,39.75,99.68,41,123.22c.7,12.9,2.16,29.3,2.73,35.65A244,244,0,0,0,34.08,219C11.5,227.15.26,237.32.07,250.05c-1.29,84,15.3,159.5,44.37,201.93a168.22,168.22,0,0,0,45.25,44.39l1.37,12.57c.09.61,2.19,15.09,14.16,22.65,43,27.08,99.7,31.6,129.7,31.89H235c30-.29,86.72-4.81,129.69-31.89,12-7.56,14.08-22,14.18-22.81l1.33-12.18A169.27,169.27,0,0,0,425.52,452c2.16-3.16,4.23-6.56,6.26-10.07a72.89,72.89,0,0,0,21.43,3.21,76.47,76.47,0,0,0,8.88-.53c38.85-4.63,71.6-39.36,74.55-79,1.58-21.22-5.06-41-18.7-55.69A67.62,67.62,0,0,0,469.18,288.18Zm-5.54,54.12a22.23,22.23,0,0,1,14.19,6.58,24,24,0,0,1,6.47,17.77c-.52,14.39-12.4,27.31-26.47,28.8a23.36,23.36,0,0,1-6.33-.18A381.73,381.73,0,0,0,463.64,342.3ZM46.8,223.15a230.83,230.83,0,0,1,9.53-61.82,6.6,6.6,0,0,0,.24-2.42c-.48-5.09-2.07-22.76-2.81-36.38C50.8,67.59,57.56,23,70.2,14c9.86-7,50.12,10.64,95.67,42a6.39,6.39,0,0,0,5,1,303.44,303.44,0,0,1,64.21-7.23,302,302,0,0,1,64,7.26,6.36,6.36,0,0,0,5-1C349.73,24.61,390,6.92,399.89,14c12.63,9,19.39,53.63,16.43,108.57-.69,13-2.21,30-2.83,36.69a6.36,6.36,0,0,0,.24,2.41,231.6,231.6,0,0,1,9.41,61.55,176.4,176.4,0,0,1-1.5,28.33s0,0,0,.06c-.89.34-1.78.68-2.71,1-47.12,16.89-154,20.6-184,20.6S98.14,269.49,51,252.6c-.93-.33-1.82-.67-2.7-1,0,0,0-.05,0-.07A174.23,174.23,0,0,1,46.8,223.15ZM367.22,507.34c0,.09-1.52,9.7-8.78,14.28C318,547.14,263.74,551.42,235,551.71h0c-28.77-.29-83-4.57-123.47-30.09-7.23-4.56-8.75-14.12-8.75-14.12l-.36-3.25C155.49,534.36,215,536,230.24,535.65h11.9c20.63,0,75.83-3,125.39-31.19Zm59-80c-1.77,3.53-3.6,6.95-5.5,10.17q-2.41,4.1-5,7.83A156.07,156.07,0,0,1,382,480.84c-2.11,1.63-4.27,3.13-6.43,4.64-21.49,15-45.08,24.28-66.78,29.87a276.13,276.13,0,0,1-66.61,8.55l-5.23,0H230.1a286.79,286.79,0,0,1-64.25-7.67c-22.88-5.45-48.37-14.93-71.45-30.94-2.14-1.48-4.32-2.85-6.41-4.45a154.65,154.65,0,0,1-33.83-35.49c-27.75-40.5-43.57-113.43-42.32-195.1.1-6.43,7.92-12.95,22.15-18.68.11,5.2.38,9.58.68,13.08a6.26,6.26,0,0,0-8.13,1.76A6.37,6.37,0,0,0,28,255.3C69,285.14,233.33,286,235,286s166-.83,207-30.67a6.39,6.39,0,0,0,1.4-8.92,6.28,6.28,0,0,0-8.12-1.76c.3-3.49.57-7.87.68-13.08,14.23,5.74,22.06,12.27,22.16,18.69.2,13.15-.09,26-.75,38.63q-.31,5.85-.74,11.6-1.19,16.05-3.3,31.25-.87,6.33-1.91,12.47a363.39,363.39,0,0,1-10.72,46.35q-1.79,5.85-3.75,11.39A222.33,222.33,0,0,1,426.27,427.33Zm99-62.64c-2.56,34.43-30.89,64.53-64.5,68.53a60.86,60.86,0,0,1-23.47-1.65,234.72,234.72,0,0,0,10.59-25.29,35.89,35.89,0,0,0,7.26.76,34.69,34.69,0,0,0,3.92-.21c19.85-2.11,36-19.58,36.7-39.76a35.37,35.37,0,0,0-9.66-26.14,33.53,33.53,0,0,0-20.79-10q2-15.22,3.21-31.28c16,.35,30.56,6.66,41.06,18C521,330,526.57,346.68,525.23,364.69Z"/><path class="cls-4" d="M216.76,248.46a5.85,5.85,0,0,0,.73,0c8.43-1,13.89-4.4,17.49-8.45,3.59,4.05,9.06,7.4,17.48,8.45a6.12,6.12,0,0,0,.74,0,5.89,5.89,0,0,0,.72-11.73c-11.39-1.42-12.93-8.62-13.07-11.63v-.17a34.07,34.07,0,0,0,3.72-1.76c4.55-2.5,9.21-6.55,9.21-12.91,0-8.85-13.16-9.81-18.81-9.81s-18.82,1-18.82,9.81c0,6.36,4.65,10.41,9.21,12.91a35,35,0,0,0,3.72,1.76v.49c-.18,3-1.8,9.91-13,11.31a5.89,5.89,0,0,0,.72,11.73Zm23.12-41.11a8.11,8.11,0,0,1,1.42-.17c3,0,5.52,1.43,5.52,3.18s-2.38,3.1-5.34,3.16l-.18,0a8.11,8.11,0,0,1-1.42-.17c-2.34-.37-4.1-1.55-4.1-3S237.54,207.72,239.88,207.35Z"/><path class="cls-4" d="M378.11,422a6.18,6.18,0,0,0-8.28,2.76A131.2,131.2,0,0,1,356.68,446a6.16,6.16,0,0,0,1.19,8.64,6.1,6.1,0,0,0,3.72,1.26,6.17,6.17,0,0,0,4.92-2.44,144.88,144.88,0,0,0,14.36-23.2A6.18,6.18,0,0,0,378.11,422Z"/><path class="cls-4" d="M407.46,314.36a5.79,5.79,0,0,0-1.37-.45,6.14,6.14,0,0,0-6.84,5.42l-.8,6-1.39,10.5A369.13,369.13,0,0,1,388,379.36l-3.06,10.29a.19.19,0,0,1,0,.07c-1.39,4.35-2.87,8.53-4.41,12.49a6.17,6.17,0,0,0,3.51,8,6.05,6.05,0,0,0,2.24.42,6.15,6.15,0,0,0,5.05-2.72,5.75,5.75,0,0,0,.69-1.21q2.47-6.31,4.71-13.34l.48-1.6,2.69-9a382.46,382.46,0,0,0,9.38-45l1.24-9.37,1-7.56A6.08,6.08,0,0,0,407.46,314.36Z"/><path class="cls-4" d="M132.75,222.81a28,28,0,1,0-28-28A28,28,0,0,0,132.75,222.81Zm11.69-43.09a7.53,7.53,0,1,1-7.52,7.53A7.53,7.53,0,0,1,144.44,179.72Zm-5.15,18.74a5.15,5.15,0,1,1-5.15,5.15A5.16,5.16,0,0,1,139.29,198.46Z"/><path class="cls-4" d="M337.08,222.81a28,28,0,1,0-28-28A28,28,0,0,0,337.08,222.81ZM348,179.72a7.53,7.53,0,1,1-7.52,7.53A7.53,7.53,0,0,1,348,179.72Zm-5.14,18.74a5.15,5.15,0,1,1-5.15,5.15A5.15,5.15,0,0,1,342.82,198.46Z"/></svg>